<?xml version="1.0" standalone="no"?>
<!DOCTYPE svg PUBLIC "-//W3C//DTD SVG 1.1//EN" "http://www.w3.org/Graphics/SVG/1.1/DTD/svg11.dtd" >
<svg xmlns="http://www.w3.org/2000/svg" xmlns:xlink="http://www.w3.org/1999/xlink" version="1.1">
<metadata></metadata>
<defs>
<font id="kg_primary_dotsregular" horiz-adv-x="888" >
<font-face units-per-em="2048" ascent="1638" descent="-410" />
<missing-glyph horiz-adv-x="596" />
<glyph horiz-adv-x="0" />
<glyph unicode="&#xd;" horiz-adv-x="508" />
<glyph unicode=" "  horiz-adv-x="596" />
<glyph unicode="&#x09;" horiz-adv-x="596" />
<glyph unicode="&#xa0;" horiz-adv-x="596" />
<glyph unicode="!" horiz-adv-x="366" d="M212 30q0 -12 -9 -21t-21 -9t-20 9t-8 21q0 28 28 28q12 0 21 -8t9 -20zM198 522q0 -18 -18 -18t-18 18t18 18t18 -18zM198 600q0 -18 -18 -18t-18 18t18 18t18 -18zM200 844q0 -18 -18 -18t-18 18t18 18t18 -18zM198 786q0 -18 -18 -18t-18 18t18 18t18 -18zM198 724 q0 -18 -18 -18t-18 18t18 18t18 -18zM198 664q0 -18 -18 -18t-18 18t18 18t18 -18zM198 308q0 -18 -18 -18t-18 18t18 18t18 -18zM198 452q0 -18 -18 -18t-18 18t18 18t18 -18zM198 378q0 -18 -18 -18t-18 18t18 18t18 -18zM198 186q0 -18 -18 -18t-18 18t18 18t18 -18z M198 246q0 -18 -18 -18t-18 18t18 18t18 -18zM198 910q0 -18 -18 -18t-18 18t18 18t18 -18zM200 1154q0 -18 -18 -18t-18 18t18 18t18 -18zM198 1096q0 -18 -18 -18t-18 18t18 18t18 -18zM198 1034q0 -18 -18 -18t-18 18t18 18t18 -18zM198 974q0 -18 -18 -18t-18 18t18 18 t18 -18zM200 1216q0 -18 -18 -18t-18 18t18 18t18 -18z" />
<glyph unicode="&#x22;" horiz-adv-x="760" d="M224 988q-14 -10 -26 2q-12 14 4 26q14 10 26 -2q12 -14 -4 -26zM256 942q-14 -10 -26 2q-12 14 4 26q14 10 26 -2q12 -14 -4 -26zM282 892q-14 -10 -26 2q-12 14 4 26q14 10 26 -2q12 -14 -4 -26zM292 828q-14 -10 -26 2q-12 14 4 26q14 10 26 -2q12 -14 -4 -26z M292 770q-14 -10 -26 2q-12 14 4 26q14 10 26 -2q12 -14 -4 -26zM266 704q-14 -10 -26 2q-12 14 4 26q14 10 26 -2q12 -14 -4 -26zM220 652q-14 -10 -26 2q-12 14 4 26q14 10 26 -2q12 -14 -4 -26zM506 986q-14 -10 -26 2q-12 14 4 26q14 10 26 -2q12 -14 -4 -26zM538 940 q-14 -10 -26 2q-12 14 4 26q14 10 26 -2q12 -14 -4 -26zM564 890q-14 -10 -26 2q-12 14 4 26q14 10 26 -2q12 -14 -4 -26zM574 826q-14 -10 -26 2q-12 14 4 26q14 10 26 -2q12 -14 -4 -26zM574 768q-14 -10 -26 2q-12 14 4 26q14 10 26 -2q12 -14 -4 -26zM548 702 q-14 -10 -26 2q-12 14 4 26q14 10 26 -2q12 -14 -4 -26zM502 650q-14 -10 -26 2q-12 14 4 26q14 10 26 -2q12 -14 -4 -26z" />
<glyph unicode="#" horiz-adv-x="898" d="M154 662q-18 0 -18 18t18 18t18 -18t-18 -18zM282 662q-18 0 -18 18t18 18t18 -18t-18 -18zM342 662q-18 0 -18 18t18 18t18 -18t-18 -18zM404 662q-18 0 -18 18t18 18t18 -18t-18 -18zM474 662q-18 0 -18 18t18 18t18 -18t-18 -18zM544 662q-18 0 -18 18t18 18t18 -18 t-18 -18zM614 662q-18 0 -18 18t18 18t18 -18t-18 -18zM218 662q-18 0 -18 18t18 18t18 -18t-18 -18zM154 388q-18 0 -18 18t18 18t18 -18t-18 -18zM282 388q-18 0 -18 18t18 18t18 -18t-18 -18zM342 388q-18 0 -18 18t18 18t18 -18t-18 -18zM404 388q-18 0 -18 18t18 18 t18 -18t-18 -18zM474 388q-18 0 -18 18t18 18t18 -18t-18 -18zM544 388q-18 0 -18 18t18 18t18 -18t-18 -18zM614 388q-18 0 -18 18t18 18t18 -18t-18 -18zM218 388q-18 0 -18 18t18 18t18 -18t-18 -18zM682 662q-18 0 -18 18t18 18t18 -18t-18 -18zM752 662q-18 0 -18 18 t18 18t18 -18t-18 -18zM682 388q-18 0 -18 18t18 18t18 -18t-18 -18zM752 388q-18 0 -18 18t18 18t18 -18t-18 -18zM324 256q0 -18 -18 -18t-18 18t18 18t18 -18zM326 384q0 -18 -18 -18t-18 18t18 18t18 -18zM326 444q0 -18 -18 -18t-18 18t18 18t18 -18zM326 506 q0 -18 -18 -18t-18 18q4 18 20 18q20 0 16 -18zM328 576q0 -18 -18 -18t-18 18t18 18t18 -18zM328 646q0 -18 -18 -18t-18 18t18 18t18 -18zM328 716q0 -18 -18 -18t-18 18q4 18 20 18q20 0 16 -18zM326 320q0 -18 -18 -18t-18 18t18 18t18 -18zM598 252q0 -16 -18 -16 t-18 18t18 18t18 -20zM600 380q0 -16 -18 -16t-18 18t18 18t18 -20zM600 440q0 -16 -18 -16t-18 18t18 18t18 -20zM600 502q0 -16 -18 -16t-18 18q4 18 20 18q20 0 16 -20zM602 572q0 -16 -18 -16t-18 18t18 18t18 -20zM602 642q0 -16 -18 -16t-18 18t18 18t18 -20zM602 712 q0 -16 -18 -16t-18 18q4 18 20 18q20 0 16 -20zM600 316q0 -16 -18 -16t-18 18t18 18t18 -20zM330 784q0 -18 -18 -18t-18 18t18 18t18 -18zM330 854q0 -18 -18 -18t-18 18t18 18t18 -18zM604 780q0 -16 -18 -16t-18 18t18 18t18 -20zM604 850q0 -16 -18 -16t-18 18t18 18 t18 -20z" />
<glyph unicode="$" horiz-adv-x="928" d="M168 1098q0 18 18 18t18 -18t-18 -18t-18 18zM428 1214q0 18 18 18t18 -18t-18 -18t-18 18zM490 1212q0 18 18 18t18 -18t-18 -18t-18 18zM546 1194q0 18 18 18t18 -18t-18 -18t-18 18zM714 1054q0 18 18 18t18 -18t-18 -18t-18 18zM742 996q0 18 18 18t18 -18t-18 -18 t-18 18zM370 1212q0 18 18 18t18 -18t-18 -18t-18 18zM306 1198q0 18 18 18t18 -18t-18 -18t-18 18zM252 1168q0 18 18 18t18 -18t-18 -18t-18 18zM204 1138q0 18 18 18t18 -18t-18 -18t-18 18zM756 944q0 18 18 18t18 -18t-18 -18t-18 18zM512 596q0 18 18 18t18 -18 t-18 -18t-18 18zM120 816q0 18 18 18t18 -18t-18 -18t-18 18zM108 878q0 18 18 18t18 -18t-18 -18t-18 18zM106 936q0 18 18 18t18 -18t-18 -18t-18 18zM114 990q0 18 18 18t18 -18t-18 -18t-18 18zM134 1048q0 18 18 18t18 -18t-18 -18t-18 18zM146 760q0 18 18 18t18 -18 t-18 -18t-18 18zM192 714q0 18 18 18t18 -18t-18 -18t-18 18zM246 674q0 18 18 18t18 -18t-18 -18t-18 18zM434 612q0 18 18 18t18 -18t-18 -18t-18 18zM146 188q0 -18 -18 -18t-18 18t18 18t18 -18zM130 240q0 -18 -18 -18t-18 18t18 18t18 -18zM332 642q0 -18 -18 -18 t-18 18t18 18t18 -18zM630 1174q0 -18 -18 -18t-18 18t18 18t18 -18zM224 96q0 -18 -18 -18t-18 18t18 18t18 -18zM678 1144q0 -18 -18 -18t-18 18t18 18t18 -18zM584 570q0 18 18 18t18 -18t-18 -18t-18 18zM234 62q0 18 18 18t18 -18t-18 -18t-18 18zM360 626q0 18 18 18 t18 -18t-18 -18t-18 18zM648 546q0 18 18 18t18 -18t-18 -18t-18 18zM684 1100q0 18 18 18t18 -18t-18 -18t-18 18zM180 140q0 -18 -18 -18t-18 18t18 18t18 -18zM768 380q0 18 18 18t18 -18t-18 -18t-18 18zM294 34q0 18 18 18t18 -18t-18 -18t-18 18zM774 310q0 18 18 18 t18 -18t-18 -18t-18 18zM712 122q0 18 18 18t18 -18t-18 -18t-18 18zM666 68q0 18 18 18t18 -18t-18 -18t-18 18zM362 14q0 18 18 18t18 -18t-18 -18t-18 18zM746 450q0 18 18 18t18 -18t-18 -18t-18 18zM706 508q0 18 18 18t18 -18t-18 -18t-18 18zM750 178q0 18 18 18 t18 -18t-18 -18t-18 18zM642 30q0 -18 -18 -18t-18 18t18 18t18 -18zM556 12q0 -18 -18 -18t-18 18t18 18t18 -18zM474 8q0 -18 -18 -18t-18 18t18 18t18 -18zM768 238q0 18 18 18t18 -18t-18 -18t-18 18zM414 1008q0 18 18 18t18 -18t-18 -18t-18 18zM414 948q0 18 18 18 t18 -18t-18 -18t-18 18zM414 886q0 18 18 18t18 -18t-18 -18t-18 18zM414 816q0 18 18 18t18 -18t-18 -18t-18 18zM414 742q0 18 18 18t18 -18t-18 -18t-18 18zM414 672q0 18 18 18t18 -18t-18 -18t-18 18zM414 544q0 18 18 18t18 -18t-18 -18t-18 18zM414 484q0 18 18 18 t18 -18t-18 -18t-18 18zM414 422q0 18 18 18t18 -18t-18 -18t-18 18zM414 352q0 18 18 18t18 -18t-18 -18t-18 18zM414 282q0 18 18 18t18 -18t-18 -18t-18 18zM414 212q0 18 18 18t18 -18t-18 -18t-18 18zM414 608q0 18 18 18t18 -18t-18 -18t-18 18zM414 70q0 18 18 18 t18 -18t-18 -18t-18 18zM414 10q0 18 18 18t18 -18t-18 -18t-18 18zM414 -52q0 18 18 18t18 -18t-18 -18t-18 18zM412 -110q0 18 18 18t18 -18t-18 -18t-18 18zM414 134q0 18 18 18t18 -18t-18 -18t-18 18zM414 1072q0 18 18 18t18 -18t-18 -18t-18 18zM414 1338q0 18 18 18 t18 -18t-18 -18t-18 18zM414 1278q0 18 18 18t18 -18t-18 -18t-18 18zM414 1216q0 18 18 18t18 -18t-18 -18t-18 18zM414 1146q0 18 18 18t18 -18t-18 -18t-18 18z" />
<glyph unicode="%" horiz-adv-x="778" d="M540 1056q12 16 26 8q4 -4 8 -10t0 -14q-8 -14 -24 -8q-16 8 -10 24zM516 1002q8 14 24 8t10 -24q-12 -16 -26 -10q-12 8 -8 26zM492 944q8 16 24 10q14 -8 8 -26q-8 -14 -24 -8q-6 4 -9 10t1 14zM464 880q2 8 9 10t13 -2q18 -8 10 -22q-6 -16 -24 -10q-16 6 -8 24z M432 814q4 4 11 8t15 0q14 -8 8 -24q-8 -18 -22 -10q-16 10 -12 26zM406 748q6 16 24 10q14 -10 8 -26q-8 -14 -24 -8q-18 8 -8 24zM354 630q6 16 24 10q6 -2 9 -10t-1 -12q-6 -16 -24 -12q-16 6 -8 24zM328 576q10 18 26 8q16 -6 8 -22q-6 -16 -24 -10q-16 8 -10 24z M304 520q8 14 24 8q6 -2 10 -9t0 -13q-10 -16 -26 -10q-4 2 -8 9t0 15zM276 454q4 8 11 11t13 1q14 -8 8 -26q-2 -8 -9 -10t-13 2q-18 6 -10 22zM248 392q8 14 24 8q16 -8 10 -24q-12 -16 -26 -8t-8 24zM220 326q6 16 24 10q6 -2 9 -9t-1 -13q-2 -8 -9 -11t-13 1q-8 2 -11 9 t1 13zM378 690q4 8 11 10t13 -2q18 -8 10 -22q-8 -18 -22 -10q-16 6 -12 24zM162 198q6 16 24 8q16 -8 10 -24q-4 -6 -11 -9t-15 1q-4 4 -8 10t0 14zM138 142q8 16 24 10q20 -8 8 -24q-8 -16 -22 -10q-16 6 -10 24zM112 86q10 18 26 8q14 -8 8 -24q-4 -6 -10 -9t-14 1 q-16 8 -10 24zM88 34q8 14 24 8q6 -2 10 -9t0 -13q-10 -16 -26 -10q-14 8 -8 24zM190 256q2 6 9 10t13 0q14 -8 8 -26q-2 -6 -9 -9t-13 1q-18 8 -8 24zM568 1114q2 6 8 10t14 0q18 -8 8 -24q-2 -8 -9 -11t-13 1q-8 4 -10 11t2 13zM598 1170q2 6 8 10t14 0q18 -8 8 -24 q-2 -8 -9 -11t-13 1q-8 4 -10 11t2 13zM620 96q0 -12 -9 -21t-21 -9t-20 9t-8 21q0 28 28 28q12 0 21 -8t9 -20zM186 1132q0 -12 -9 -21t-21 -9t-20 9t-8 21q0 28 28 28q12 0 21 -8t9 -20z" />
<glyph unicode="&#x26;" horiz-adv-x="840" d="M732 -14q4 -4 2 -12t-8 -10q-14 -8 -26 4q-6 18 8 26q4 4 12 2t12 -10zM696 48q12 -16 -6 -24q-14 -10 -26 6q-2 6 0 13t8 11q18 6 24 -6zM630 166q8 -14 -8 -24q-18 -8 -24 6q-4 6 -1 13t7 11q14 8 26 -6zM598 218q10 -16 -4 -24t-26 6q-6 18 8 26q16 8 22 -8zM564 280 q4 -6 2 -13t-8 -9q-16 -10 -26 4q-6 18 8 26q6 4 13 2t11 -10zM528 342q10 -18 -6 -24q-16 -12 -26 6q-2 6 0 13t8 11q18 6 24 -6zM492 406q10 -18 -6 -24q-16 -10 -26 6q-8 16 8 26q16 6 24 -8zM456 466q10 -16 -4 -24t-26 6q-6 18 8 26q16 8 22 -8zM660 110q12 -16 -6 -24 q-12 -10 -24 6q-6 16 6 26q16 8 24 -8zM388 590q4 -6 2 -13t-10 -11q-16 -12 -24 6q-8 16 6 24q16 6 26 -6zM358 642q8 -16 -6 -24q-16 -6 -26 6q-4 6 -2 13t10 11q4 4 12 2t12 -8zM328 696q6 -16 -8 -26q-6 -4 -13 -2t-11 10q-10 18 6 24q16 12 26 -6zM292 756 q8 -16 -8 -26q-4 -2 -12 0t-10 8q-10 16 4 24q16 10 26 -6zM576 110q0 -18 -18 -18t-18 18t18 18t18 -18zM418 534q10 -16 -4 -24t-26 6q-6 18 8 26q4 4 11 2t11 -10zM280 1140q0 -18 -18 -18t-18 18t18 18t18 -18zM224 442q0 -18 -18 -18t-18 18t18 18t18 -18zM190 360 q0 -18 -18 -18t-18 18t18 18t18 -18zM168 274q0 -18 -18 -18t-18 18t18 18t18 -18zM242 492q-18 0 -18 20q4 16 22 16q18 -4 14 -22q0 -18 -18 -14zM380 678q-6 0 -11 6t-3 14q-2 8 4 12t14 4q16 0 16 -20q-4 -16 -20 -16zM240 796q-20 4 -16 20q4 18 18 18q18 0 18 -20 q-2 -14 -20 -18zM286 562q-18 0 -14 20q0 16 18 16q18 -4 18 -14q-2 -8 -8 -16t-14 -6zM462 1146q0 16 18 16t18 -18t-18 -18t-18 20zM426 828q4 18 20 18q20 0 16 -18q0 -18 -18 -18t-18 18zM450 888q0 18 18 18t18 -20q0 -16 -18 -16t-18 18zM476 960q0 18 18 18 q18 -4 18 -20q-4 -20 -20 -16q-20 0 -16 18zM490 1088q0 16 20 16q16 0 16 -18t-18 -18t-18 20zM292 1182q0 18 18 18t18 -18t-18 -18t-18 18zM442 1162q-20 0 -20 20q0 16 16 16q20 4 20 -16q0 -16 -16 -20zM378 1178q-18 4 -20 18q0 8 5 14t13 4q18 4 18 -16 q4 -16 -16 -20zM510 1012q-18 -4 -22 14q0 18 16 22q20 0 20 -20q4 -16 -14 -16zM226 1068q-20 -4 -16 16q-4 16 14 20q18 0 22 -18q-2 -14 -20 -18zM212 996q-18 -4 -18 14q-4 18 14 22q20 -4 22 -18q0 -8 -5 -14t-13 -4zM222 862q-18 0 -18 16q0 20 16 20q8 0 14 -4t4 -12 q0 -20 -16 -20zM210 926q-18 -4 -22 16q0 16 20 20q20 0 16 -16q4 -20 -14 -20zM206 42q-6 0 -11 6t-3 14q-2 8 4 12t14 4q16 0 16 -20q-4 -16 -20 -16zM154 100q-20 4 -16 20q4 18 18 18q18 0 18 -20q-2 -14 -20 -18zM484 68q0 16 18 16t18 -18t-18 -18t-18 20zM634 236 q0 18 18 18t18 -20q0 -16 -18 -16t-18 18zM668 444q0 18 18 18q18 -4 18 -20q-4 -20 -20 -16q-20 0 -16 18zM662 516q0 16 20 16q16 0 16 -18t-18 -18t-18 20zM662 372q0 18 18 18t18 -18t-18 -18t-18 18zM436 14q-20 0 -20 20q0 16 16 16q20 4 20 -16q0 -16 -16 -20zM356 2 q-18 4 -20 18q0 8 5 14t13 4q18 4 18 -16q4 -16 -16 -20zM280 14q-18 -4 -22 14q0 18 16 22q20 0 20 -20q4 -16 -14 -16zM418 752q-18 0 -18 16q0 20 16 20q8 0 14 -4t4 -12q0 -20 -16 -20zM140 184q-18 -4 -22 16q0 16 20 20q20 0 16 -16q4 -20 -14 -20zM654 302 q0 18 18 18t18 -18t-18 -18t-18 18z" />
<glyph unicode="'" horiz-adv-x="474" d="M224 906q-14 -10 -26 2q-12 14 4 26q14 10 26 -2q12 -14 -4 -26zM256 860q-14 -10 -26 2q-12 14 4 26q14 10 26 -2q12 -14 -4 -26zM282 810q-14 -10 -26 2q-12 14 4 26q14 10 26 -2q12 -14 -4 -26zM292 746q-14 -10 -26 2q-12 14 4 26q14 10 26 -2q12 -14 -4 -26z M292 688q-14 -10 -26 2q-12 14 4 26q14 10 26 -2q12 -14 -4 -26zM266 622q-14 -10 -26 2q-12 14 4 26q14 10 26 -2q12 -14 -4 -26zM220 570q-14 -10 -26 2q-12 14 4 26q14 10 26 -2q12 -14 -4 -26z" />
<glyph unicode="(" horiz-adv-x="740" d="M556 1268q0 -18 -18 -18t-18 18t18 18t18 -18zM576 1290q0 18 18 18t18 -18t-16 -18q-20 0 -20 18zM354 68q8 2 13 -4t5 -14q-2 -14 -22 -18q-18 4 -14 22q0 18 18 14zM576 -76q16 0 16 -20q2 -8 -4 -12t-14 -4q-16 0 -16 20q0 16 18 16zM228 328q0 -16 -18 -16t-18 18 t18 18t18 -20zM500 1232q0 -18 -20 -18q-16 0 -16 18t18 18t18 -18zM450 1196q-4 -18 -20 -18q-20 0 -16 18q0 18 18 18t18 -18zM402 1146q0 -18 -18 -18t-18 20q0 16 18 16t18 -18zM366 1098q0 -18 -20 -18q-16 0 -16 18t18 18t18 -18zM284 984q0 -18 -18 -18q-18 4 -18 20 q4 20 20 16q20 0 16 -18zM256 918q0 -16 -20 -16q-16 0 -16 18t18 18t18 -20zM326 1044q0 -18 -18 -18t-18 18t18 18t18 -18zM228 288q20 0 20 -20q0 -16 -16 -16q-20 -4 -20 16q0 16 16 20zM260 230q18 -4 20 -18q0 -8 -5 -14t-13 -4q-18 -4 -18 16q-4 16 16 20zM282 162 q18 4 22 -14q0 -18 -16 -22q-20 0 -20 20q-4 16 14 16zM316 116q20 4 16 -16q4 -16 -14 -20q-18 0 -22 18q2 14 20 18zM398 24q18 4 18 -14q4 -18 -14 -22q-20 4 -22 18q0 8 5 14t13 4zM516 -52q18 0 18 -16q0 -20 -16 -20q-8 0 -14 4t-4 12q0 20 16 20zM456 -22 q18 4 22 -16q0 -16 -20 -20q-20 0 -16 16q-4 20 14 20zM196 866q0 18 18 18t18 -18t-18 -18t-18 18zM180 804q0 18 18 18t18 -18t-18 -18t-18 18zM176 394q0 18 18 18t18 -18t-18 -18t-18 18zM162 740q0 18 18 18t18 -18t-18 -18t-18 18zM154 670q0 18 18 18t18 -18t-18 -18 t-18 18zM150 532q0 18 18 18t18 -18t-18 -18t-18 18zM176 484q20 -4 16 -20q-4 -20 -20 -16q-16 0 -16 20q4 16 20 16zM184 604q0 -18 -20 -18q-16 0 -16 18t18 18t18 -18z" />
<glyph unicode=")" horiz-adv-x="716" d="M228 1268q0 18 18 18t18 -18t-18 -18t-18 18zM208 1290q0 -18 -20 -18q-16 0 -16 18t18 18t18 -18zM430 68q18 4 18 -14q4 -18 -14 -22q-20 4 -22 18q0 8 5 14t13 4zM208 -76q18 0 18 -16q0 -20 -16 -20q-8 0 -14 4t-4 12q0 20 16 20zM556 328q0 20 18 20t18 -18t-18 -18 t-18 16zM284 1232q0 18 18 18t18 -18t-16 -18q-20 0 -20 18zM334 1196q0 18 18 18t18 -18q4 -18 -16 -18q-16 0 -20 18zM382 1146q0 18 18 18t18 -16q0 -20 -18 -20t-18 18zM418 1098q0 18 18 18t18 -18t-16 -18q-20 0 -20 18zM500 984q-4 18 16 18q16 4 20 -16 q0 -16 -18 -20q-18 0 -18 18zM528 918q0 20 18 20t18 -18t-16 -18q-20 0 -20 16zM458 1044q0 18 18 18t18 -18t-18 -18t-18 18zM556 288q16 -4 16 -20q0 -20 -20 -16q-16 0 -16 16q0 20 20 20zM524 230q20 -4 16 -20q0 -20 -18 -16q-8 -2 -13 4t-5 14q2 14 20 18zM502 162 q18 0 14 -16q0 -20 -20 -20q-16 4 -16 22q4 18 22 14zM468 116q18 -4 20 -18q-4 -18 -22 -18q-18 4 -14 20q-4 20 16 16zM386 24q8 2 13 -4t5 -14q-2 -14 -22 -18q-18 4 -14 22q0 18 18 14zM268 -52q16 0 16 -20q2 -8 -4 -12t-14 -4q-16 0 -16 20q0 16 18 16zM328 -22 q18 0 14 -20q4 -16 -16 -16q-20 4 -20 20q4 20 22 16zM588 866q0 -18 -18 -18t-18 18t18 18t18 -18zM604 804q0 -18 -18 -18t-18 18t18 18t18 -18zM608 394q0 -18 -18 -18t-18 18t18 18t18 -18zM622 740q0 -18 -18 -18t-18 18t18 18t18 -18zM630 670q0 -18 -18 -18t-18 18 t18 18t18 -18zM634 532q0 -18 -18 -18t-18 18t18 18t18 -18zM608 484q16 0 20 -16q0 -20 -16 -20q-16 -4 -20 16q-4 16 16 20zM600 604q0 18 18 18t18 -18t-16 -18q-20 0 -20 18z" />
<glyph unicode="*" horiz-adv-x="984" d="M260 454q-14 -10 -26 2q-12 14 4 26q12 10 26 -4q10 -14 -4 -24zM360 534q-12 -12 -24 2q-14 14 2 26q14 12 26 -4q10 -14 -4 -24zM408 570q-14 -12 -26 4q-10 12 2 24q16 12 26 -2q12 -16 -2 -26zM456 610q-14 -14 -26 2q-12 14 4 26q14 10 24 -4t-2 -24zM510 652 q-14 -10 -24 4t2 24q14 14 26 -2q12 -14 -4 -26zM566 696q-14 -12 -26 4q-10 12 2 24q16 12 26 -2q12 -16 -2 -26zM620 740q-14 -10 -26 2q-12 14 4 26q14 10 26 -2q12 -14 -4 -26zM310 494q-14 -10 -24 2q-14 14 2 26q12 10 26 -4q10 -14 -4 -24zM668 786q-14 -12 -26 4 q-10 12 2 24q16 12 26 -2q12 -16 -2 -26zM722 830q-14 -10 -26 2q-12 14 4 26q14 10 26 -2q12 -14 -4 -26zM222 812q-16 10 -6 26q8 16 24 4q14 -8 6 -26q-10 -14 -24 -4zM328 742q-16 6 -6 24q4 8 12 9t14 -3q16 -12 4 -26q-10 -14 -24 -4zM378 708q-14 6 -6 26q8 12 24 4 q16 -12 6 -24q-12 -16 -24 -6zM430 674q-8 4 -9 11t3 15q12 16 26 4q14 -10 4 -24q-12 -16 -24 -6zM488 652q14 -12 26 4t-6 24q-14 10 -24 -4q-8 -16 4 -24zM590 582q-16 12 -4 26q8 10 22 6q16 -10 8 -26q-12 -16 -26 -6zM648 544q-14 12 -6 26q12 16 26 4t6 -26 q-12 -16 -26 -4zM274 776q-14 10 -4 24q8 18 24 6q14 -10 4 -26q-8 -12 -24 -4zM706 512q-16 12 -4 26q10 14 24 6q16 -12 6 -26q-12 -16 -26 -6zM766 474q-14 12 -6 26q8 16 26 4q12 -10 6 -26q-12 -16 -26 -4zM518 378q0 -18 -18 -18t-18 18q4 18 20 18t16 -18zM518 506 q4 -20 -16 -16q-10 -2 -15 4t-5 14q4 20 20 16q16 0 16 -18zM520 566q0 -18 -20 -18q-16 4 -16 18q0 18 18 18t18 -18zM520 630q0 -20 -18 -20t-18 20q0 16 18 16t18 -16zM520 698q0 -16 -18 -16t-18 16q0 22 18 18q18 0 18 -18zM520 768q0 -18 -18 -18q-18 4 -18 18 q0 18 18 18t18 -18zM520 838q0 -18 -18 -18t-18 18q0 16 18 20q18 0 18 -20zM518 442q0 -20 -16 -16q-20 -4 -20 16q4 18 20 18t16 -18zM514 904q0 -18 -20 -18q-16 4 -16 18q0 18 16 18q20 0 20 -18zM514 974q0 -18 -18 -18t-18 18q0 16 18 20q18 0 18 -20zM546 608 q-14 12 -6 26q8 16 26 4q12 -10 6 -26q-12 -16 -26 -4zM766 872q-14 -10 -26 2q-12 14 4 26q14 10 26 -2q12 -14 -4 -26z" />
<glyph unicode="+" horiz-adv-x="790" d="M154 454q-18 0 -18 18t18 18t18 -18t-18 -18zM282 454q-18 0 -18 18t18 18t18 -18t-18 -18zM342 454q-18 0 -18 18t18 18t18 -18t-18 -18zM404 454q-18 0 -18 18t18 18t18 -18t-18 -18zM474 454q-18 0 -18 18t18 18t18 -18t-18 -18zM544 454q-18 0 -18 18t18 18t18 -18 t-18 -18zM614 454q-18 0 -18 18t18 18t18 -18t-18 -18zM218 454q-18 0 -18 18t18 18t18 -18t-18 -18zM394 248q0 -18 -18 -18t-18 18t18 18t18 -18zM394 376q0 -18 -18 -18t-18 18t18 18t18 -18zM394 436q0 -18 -18 -18t-18 18t18 18t18 -18zM394 498q0 -18 -18 -18t-18 18 t18 18t18 -18zM394 568q0 -18 -18 -18t-18 18t18 18t18 -18zM394 638q0 -18 -18 -18t-18 18t18 18t18 -18zM394 708q0 -18 -18 -18t-18 18t18 18t18 -18zM394 312q0 -18 -18 -18t-18 18t18 18t18 -18z" />
<glyph unicode="," horiz-adv-x="424" d="M182 202q-14 -10 -26 2q-12 14 4 26q14 10 26 -2q12 -14 -4 -26zM214 156q-14 -10 -26 2q-12 14 4 26q14 10 26 -2q12 -14 -4 -26zM240 106q-14 -10 -26 2q-12 14 4 26q14 10 26 -2q12 -14 -4 -26zM250 42q-14 -10 -26 2q-12 14 4 26q14 10 26 -2q12 -14 -4 -26zM250 -16 q-14 -10 -26 2q-12 14 4 26q14 10 26 -2q12 -14 -4 -26zM224 -82q-14 -10 -26 2q-12 14 4 26q14 10 26 -2q12 -14 -4 -26zM178 -134q-14 -10 -26 2q-12 14 4 26q14 10 26 -2q12 -14 -4 -26z" />
<glyph unicode="-" horiz-adv-x="806" d="M154 454q-18 0 -18 18t18 18t18 -18t-18 -18zM282 454q-18 0 -18 18t18 18t18 -18t-18 -18zM342 454q-18 0 -18 18t18 18t18 -18t-18 -18zM404 454q-18 0 -18 18t18 18t18 -18t-18 -18zM474 454q-18 0 -18 18t18 18t18 -18t-18 -18zM544 454q-18 0 -18 18t18 18t18 -18 t-18 -18zM614 454q-18 0 -18 18t18 18t18 -18t-18 -18zM218 454q-18 0 -18 18t18 18t18 -18t-18 -18z" />
<glyph unicode="." horiz-adv-x="332" d="M190 30q0 -12 -9 -21t-21 -9t-20 9t-8 21q0 28 28 28q12 0 21 -8t9 -20z" />
<glyph unicode="/" horiz-adv-x="748" d="M498 1056q12 16 26 8q4 -4 8 -10t0 -14q-8 -14 -24 -8q-16 8 -10 24zM474 1002q8 14 24 8t10 -24q-12 -16 -26 -10q-12 8 -8 26zM450 944q8 16 24 10q14 -8 8 -26q-8 -14 -24 -8q-6 4 -9 10t1 14zM422 880q2 8 9 10t13 -2q18 -8 10 -22q-6 -16 -24 -10q-16 6 -8 24z M390 814q4 4 11 8t15 0q14 -8 8 -24q-8 -18 -22 -10q-16 10 -12 26zM364 748q6 16 24 10q14 -10 8 -26q-8 -14 -24 -8q-18 8 -8 24zM312 630q6 16 24 10q6 -2 9 -10t-1 -12q-6 -16 -24 -12q-16 6 -8 24zM286 576q10 18 26 8q16 -6 8 -22q-6 -16 -24 -10q-16 8 -10 24z M262 520q8 14 24 8q6 -2 10 -9t0 -13q-10 -16 -26 -10q-4 2 -8 9t0 15zM234 454q4 8 11 11t13 1q14 -8 8 -26q-2 -8 -9 -10t-13 2q-18 6 -10 22zM206 392q8 14 24 8q16 -8 10 -24q-12 -16 -26 -8t-8 24zM178 326q6 16 24 10q6 -2 9 -9t-1 -13q-2 -8 -9 -11t-13 1q-8 2 -11 9 t1 13zM336 690q4 8 11 10t13 -2q18 -8 10 -22q-8 -18 -22 -10q-16 6 -12 24zM120 198q6 16 24 8q16 -8 10 -24q-4 -6 -11 -9t-15 1q-4 4 -8 10t0 14zM96 142q8 16 24 10q20 -8 8 -24q-8 -16 -22 -10q-16 6 -10 24zM70 86q10 18 26 8q14 -8 8 -24q-4 -6 -10 -9t-14 1 q-16 8 -10 24zM46 34q8 14 24 8q6 -2 10 -9t0 -13q-10 -16 -26 -10q-14 8 -8 24zM148 256q2 6 9 10t13 0q14 -8 8 -26q-2 -6 -9 -9t-13 1q-18 8 -8 24zM526 1114q2 6 8 10t14 0q18 -8 8 -24q-2 -8 -9 -11t-13 1q-8 4 -10 11t2 13zM556 1170q2 6 8 10t14 0q18 -8 8 -24 q-2 -8 -9 -11t-13 1q-8 4 -10 11t2 13z" />
<glyph unicode="0" horiz-adv-x="1068" d="M524 1202q0 18 18 18t18 -18t-18 -18t-18 18zM542 44q20 -4 16 -20q-4 -18 -18 -18q-18 0 -18 20q2 14 20 18zM202 334q0 -16 -18 -16t-18 18t18 18t18 -20zM500 1194q0 -18 -20 -18q-16 0 -16 18t18 18t18 -18zM440 1178q-4 -18 -20 -18q-20 0 -16 18q0 18 18 18t18 -18 zM382 1142q0 -18 -18 -18t-18 20q0 16 18 16t18 -18zM340 1104q0 -18 -20 -18q-16 0 -16 18t18 18t18 -18zM258 990q0 -18 -18 -18q-18 4 -18 20q4 20 20 16q20 0 16 -18zM230 924q0 -16 -20 -16q-16 0 -16 18t18 18t18 -20zM300 1050q0 -18 -18 -18t-18 18t18 18t18 -18z M202 294q20 0 20 -20q0 -16 -16 -16q-20 -4 -20 16q0 16 16 20zM234 236q18 -4 20 -18q0 -8 -5 -14t-13 -4q-18 -4 -18 16q-4 16 16 20zM274 180q18 4 22 -14q0 -18 -16 -22q-20 0 -20 20q-4 16 14 16zM312 134q20 4 16 -16q4 -16 -14 -20q-18 0 -22 18q2 14 20 18zM354 94 q18 4 18 -14q4 -18 -14 -22q-20 4 -22 18q0 8 5 14t13 4zM478 50q18 0 18 -16q0 -20 -16 -20q-8 0 -14 4t-4 12q0 20 16 20zM416 66q18 4 22 -16q0 -16 -20 -20q-20 0 -16 16q-4 20 14 20zM170 872q0 18 18 18t18 -18t-18 -18t-18 18zM154 810q0 18 18 18t18 -18t-18 -18 t-18 18zM150 400q0 18 18 18t18 -18t-18 -18t-18 18zM136 746q0 18 18 18t18 -18t-18 -18t-18 18zM128 676q0 18 18 18t18 -18t-18 -18t-18 18zM124 538q0 18 18 18t18 -18t-18 -18t-18 18zM150 490q20 -4 16 -20q-4 -20 -20 -16q-16 0 -16 20q4 16 20 16zM158 610 q0 -18 -20 -18q-16 0 -16 18t18 18t18 -18zM880 332q0 20 18 20t18 -18t-18 -18t-18 16zM584 1198q0 18 18 18t18 -18t-16 -18q-20 0 -20 18zM642 1176q0 18 18 18t18 -18q4 -18 -16 -18q-16 0 -20 18zM700 1140q0 18 18 18t18 -16q0 -20 -18 -20t-18 18zM742 1102 q0 18 18 18t18 -18t-16 -18q-20 0 -20 18zM824 988q-4 18 16 18q16 4 20 -16q0 -16 -18 -20q-18 0 -18 18zM852 922q0 20 18 20t18 -18t-16 -18q-20 0 -20 16zM782 1048q0 18 18 18t18 -18t-18 -18t-18 18zM880 292q16 -4 16 -20q0 -20 -20 -16q-16 0 -16 16q0 20 20 20z M848 234q20 -4 16 -20q0 -20 -18 -16q-8 -2 -13 4t-5 14q2 14 20 18zM808 178q18 0 14 -16q0 -20 -20 -20q-16 4 -16 22q4 18 22 14zM770 132q18 -4 20 -18q-4 -18 -22 -18q-18 4 -14 20q-4 20 16 16zM728 92q8 2 13 -4t5 -14q-2 -14 -22 -18q-18 4 -14 22q0 18 18 14z M604 44q16 0 16 -20q2 -8 -4 -12t-14 -4q-16 0 -16 20q0 16 18 16zM666 64q18 0 14 -20q4 -16 -16 -16q-20 4 -20 20q4 20 22 16zM912 870q0 -18 -18 -18t-18 18t18 18t18 -18zM928 808q0 -18 -18 -18t-18 18t18 18t18 -18zM932 398q0 -18 -18 -18t-18 18t18 18t18 -18z M946 744q0 -18 -18 -18t-18 18t18 18t18 -18zM954 674q0 -18 -18 -18t-18 18t18 18t18 -18zM958 536q0 -18 -18 -18t-18 18t18 18t18 -18zM932 488q16 0 20 -16q0 -20 -16 -20q-16 -4 -20 16q-4 16 16 20zM924 608q0 18 18 18t18 -18t-16 -18q-20 0 -20 18z" />
<glyph unicode="1" horiz-adv-x="366" d="M172 1138q0 18 18 18t18 -18t-18 -18t-18 18zM172 1078q0 18 18 18t18 -18t-18 -18t-18 18zM172 1016q0 18 18 18t18 -18t-18 -18t-18 18zM172 946q0 18 18 18t18 -18t-18 -18t-18 18zM172 872q0 18 18 18t18 -18t-18 -18t-18 18zM172 802q0 18 18 18t18 -18t-18 -18 t-18 18zM172 674q0 18 18 18t18 -18t-18 -18t-18 18zM172 614q0 18 18 18t18 -18t-18 -18t-18 18zM172 552q0 18 18 18t18 -18t-18 -18t-18 18zM172 482q0 18 18 18t18 -18t-18 -18t-18 18zM172 412q0 18 18 18t18 -18t-18 -18t-18 18zM172 342q0 18 18 18t18 -18t-18 -18 t-18 18zM172 738q0 18 18 18t18 -18t-18 -18t-18 18zM172 200q0 18 18 18t18 -18t-18 -18t-18 18zM172 140q0 18 18 18t18 -18t-18 -18t-18 18zM172 78q0 18 18 18t18 -18t-18 -18t-18 18zM170 20q0 18 18 18t18 -18t-18 -18t-18 18zM172 264q0 18 18 18t18 -18t-18 -18 t-18 18zM172 1202q0 18 18 18t18 -18t-18 -18t-18 18z" />
<glyph unicode="2" horiz-adv-x="882" d="M232 0q-18 0 -18 18t18 18t18 -18t-18 -18zM292 0q-18 0 -18 18t18 18t18 -18t-18 -18zM354 0q-18 0 -18 18t18 18t18 -18t-18 -18zM424 0q-18 0 -18 18t18 18q16 0 17 -18t-17 -18zM486 0q-18 0 -18 18t18 18t18 -18t-18 -18zM556 0q-18 0 -18 18t18 18t18 -18t-18 -18z M690 0q-18 0 -18 18t18 18t18 -18t-18 -18zM620 0q-18 0 -18 18t18 18t18 -18t-18 -18zM160 0q-18 0 -18 18t18 18t18 -18t-18 -18zM190 68q0 18 18 18t18 -18t-18 -18t-18 18zM132 914q0 18 18 18t18 -18t-18 -18t-18 18zM152 970q0 18 18 18t18 -18t-18 -18t-18 18z M182 1022q0 18 18 18t18 -18t-18 -18t-18 18zM220 1076q0 18 18 18t18 -18t-18 -18t-18 18zM298 1164q0 18 18 18t18 -18t-18 -18t-18 18zM254 1124q0 18 18 18t18 -18t-18 -18t-18 18zM740 18q0 18 18 18t18 -18t-18 -18t-18 18zM648 570q-18 0 -18 18t18 18t18 -18 t-18 -18zM678 636q-18 0 -18 18t18 18t18 -18t-18 -18zM706 696q-18 0 -18 18t18 18t18 -18t-18 -18zM726 762q-18 0 -18 18t18 18t18 -18t-18 -18zM746 828q-18 0 -18 18t18 18t18 -18t-18 -18zM366 1174q-18 0 -18 18t18 18t18 -18t-18 -18zM752 898q-18 0 -18 18t18 18 t18 -18t-18 -18zM580 452q-18 0 -18 18t18 18t18 -18t-18 -18zM464 1210q0 18 18 18t18 -18t-18 -18t-18 18zM528 1198q0 18 18 18t18 -18t-18 -18t-18 18zM586 1176q0 18 18 18t18 -18t-18 -18t-18 18zM636 1142q0 18 18 18t18 -18t-18 -18t-18 18zM674 1098q0 18 18 18 t18 -18t-18 -18t-18 18zM702 1044q0 18 18 18t18 -18t-18 -18t-18 18zM598 526q0 18 18 18t18 -18t-18 -18t-18 18zM726 984q0 18 18 18t18 -18t-18 -18t-18 18zM402 1210q0 18 18 18t18 -18t-18 -18t-18 18zM320 136q-18 0 -18 18t18 18t18 -18t-18 -18zM270 92 q-18 0 -18 18t18 18t18 -18t-18 -18zM376 192q-18 0 -18 18t18 18t18 -18t-18 -18zM420 238q-18 0 -18 18t18 18t18 -18t-18 -18zM464 288q-18 0 -18 18t18 18t18 -18t-18 -18zM546 398q-18 0 -18 18t18 18t18 -18t-18 -18zM506 340q-18 0 -18 18t18 18t18 -18t-18 -18z" />
<glyph unicode="3" horiz-adv-x="922" d="M438 612q0 18 18 18t18 -18t-18 -18t-18 18zM496 612q0 18 18 18t18 -18t-18 -18t-18 18zM550 610q0 18 18 18t18 -18t-18 -18t-18 18zM600 578q0 18 18 18t18 -18t-18 -18t-18 18zM642 538q0 18 18 18t18 -18t-18 -18t-18 18zM710 422q0 18 18 18t18 -18t-18 -18t-18 18 zM718 356q0 18 18 18t18 -18t-18 -18t-18 18zM680 484q0 18 18 18t18 -18t-18 -18t-18 18zM742 312q16 -4 16 -20q0 -20 -20 -16q-16 0 -16 18t20 18zM736 250q20 -4 16 -20q-4 -20 -20 -16q-16 0 -16 20q4 16 20 16zM716 182q18 0 14 -18q0 -18 -20 -18q-16 4 -16 22 q4 18 22 14zM668 118q18 -4 18 -18q-4 -18 -22 -18q-18 4 -14 20q0 20 18 16zM624 80q18 0 18 -20q-4 -16 -22 -16q-18 4 -14 22q0 18 18 14zM506 34q6 0 11 -6t3 -14q2 -8 -4 -12t-14 -4q-16 0 -16 20q4 16 20 16zM438 26q20 -4 16 -20q-4 -18 -18 -18q-18 0 -18 20 q2 14 20 18zM568 48q18 0 14 -20q0 -16 -18 -16q-18 4 -18 20q4 20 22 16zM150 238q18 -4 20 -18q0 -8 -5 -14t-13 -4q-18 -4 -18 16q-4 16 16 20zM180 170q18 4 22 -14q0 -18 -16 -22q-20 0 -20 20q-4 16 14 16zM218 124q20 4 16 -16q4 -16 -14 -20q-18 0 -22 18 q2 14 20 18zM260 84q18 4 18 -14q4 -18 -14 -22q-20 4 -22 18q0 8 5 14t13 4zM382 32q18 0 18 -16q0 -20 -16 -20q-8 0 -14 4t-4 12q0 20 16 20zM320 48q18 4 22 -16q0 -16 -20 -20q-20 0 -16 16q-4 20 14 20zM434 1202q0 18 18 18t18 -18t-18 -18t-18 18zM492 1196 q0 18 18 18t18 -18t-18 -18t-18 18zM546 1182q0 18 18 18t18 -18t-18 -18t-18 18zM596 1150q0 18 18 18t18 -18t-18 -18t-18 18zM638 1110q0 18 18 18t18 -18t-18 -18t-18 18zM698 996q0 18 18 18t18 -18t-18 -18t-18 18zM714 938q0 18 18 18t18 -18t-18 -18t-18 18z M676 1056q0 18 18 18t18 -18t-18 -18t-18 18zM738 894q16 -4 16 -20q0 -20 -20 -16q-16 0 -16 18t20 18zM732 832q20 -4 16 -20q-4 -20 -20 -16q-16 0 -16 20q4 16 20 16zM712 764q18 0 14 -18q0 -18 -20 -18q-16 4 -16 22q4 18 22 14zM664 700q18 -4 18 -18q-4 -18 -22 -18 q-18 4 -14 20q0 20 18 16zM620 662q18 0 18 -20q-4 -16 -22 -16q-18 4 -14 22q0 18 18 14zM408 1198q0 -18 -20 -18q-16 0 -16 18t18 18t18 -18zM348 1182q-4 -18 -20 -18q-20 0 -16 18q0 18 18 18t18 -18zM290 1146q0 -18 -18 -18t-18 20q0 16 18 16t18 -18zM248 1108 q0 -18 -20 -18q-16 0 -16 18t18 18t18 -18zM180 994q0 -18 -18 -18q-18 4 -18 20q4 20 20 16q20 0 16 -18zM164 936q0 -16 -20 -16q-16 0 -16 18t18 18t18 -20zM208 1054q0 -18 -18 -18t-18 18t18 18t18 -18z" />
<glyph unicode="4" horiz-adv-x="882" d="M206 610q-18 0 -18 18t18 18t18 -18t-18 -18zM266 610q-18 0 -18 18t18 18t18 -18t-18 -18zM328 610q-18 0 -18 18t18 18t18 -18t-18 -18zM398 610q-18 0 -18 18t18 18q16 0 17 -18t-17 -18zM460 610q-18 0 -18 18t18 18t18 -18t-18 -18zM530 610q-18 0 -18 18t18 18 t18 -18t-18 -18zM658 610q-18 0 -18 18t18 18t18 -18t-18 -18zM594 610q-18 0 -18 18t18 18t18 -18t-18 -18zM142 610q-18 0 -18 18t18 18t18 -18t-18 -18zM706 1136q0 18 18 18t18 -18t-18 -18t-18 18zM706 1076q0 18 18 18t18 -18t-18 -18t-18 18zM706 1014q0 18 18 18 t18 -18t-18 -18t-18 18zM706 944q0 18 18 18t18 -18t-18 -18t-18 18zM706 870q0 18 18 18t18 -18t-18 -18t-18 18zM706 800q0 18 18 18t18 -18t-18 -18t-18 18zM706 672q0 18 18 18t18 -18t-18 -18t-18 18zM706 612q0 18 18 18t18 -18t-18 -18t-18 18zM706 550q0 18 18 18 t18 -18t-18 -18t-18 18zM706 480q0 18 18 18t18 -18t-18 -18t-18 18zM706 410q0 18 18 18t18 -18t-18 -18t-18 18zM706 340q0 18 18 18t18 -18t-18 -18t-18 18zM706 736q0 18 18 18t18 -18t-18 -18t-18 18zM706 198q0 18 18 18t18 -18t-18 -18t-18 18zM706 138q0 18 18 18 t18 -18t-18 -18t-18 18zM706 76q0 18 18 18t18 -18t-18 -18t-18 18zM704 18q0 18 18 18t18 -18t-18 -18t-18 18zM706 262q0 18 18 18t18 -18t-18 -18t-18 18zM706 1200q0 18 18 18t18 -18t-18 -18t-18 18zM126 1136q0 18 18 18t18 -18t-18 -18t-18 18zM126 1076q0 18 18 18 t18 -18t-18 -18t-18 18zM126 1014q0 18 18 18t18 -18t-18 -18t-18 18zM126 944q0 18 18 18t18 -18t-18 -18t-18 18zM126 870q0 18 18 18t18 -18t-18 -18t-18 18zM126 800q0 18 18 18t18 -18t-18 -18t-18 18zM126 672q0 18 18 18t18 -18t-18 -18t-18 18zM126 736q0 18 18 18 t18 -18t-18 -18t-18 18zM126 1200q0 18 18 18t18 -18t-18 -18t-18 18z" />
<glyph unicode="5" horiz-adv-x="900" d="M632 660q0 18 18 18t18 -18t-18 -18t-18 18zM574 696q0 18 18 18t18 -18t-18 -18t-18 18zM456 724q0 18 18 18t18 -18t-18 -18t-18 18zM670 612q0 18 18 18t18 -18t-18 -18t-18 18zM698 556q0 18 18 18t18 -18t-18 -18t-18 18zM730 426q0 18 18 18t18 -18t-18 -18t-18 18 zM732 360q0 18 18 18t18 -18t-18 -18t-18 18zM720 494q0 18 18 18t18 -18t-18 -18t-18 18zM748 316q16 -4 16 -20q0 -20 -20 -16q-16 0 -16 18t20 18zM736 254q20 -4 16 -20q-4 -20 -20 -16q-16 0 -16 20q4 16 20 16zM716 186q18 0 14 -18q0 -18 -20 -18q-16 4 -16 22 q4 18 22 14zM668 122q18 -4 18 -18q-4 -18 -22 -18q-18 4 -14 20q0 20 18 16zM624 84q18 0 18 -20q-4 -16 -22 -16q-18 4 -14 22q0 18 18 14zM506 38q6 0 11 -6t3 -14q2 -8 -4 -12t-14 -4q-16 0 -16 20q4 16 20 16zM438 30q20 -4 16 -20q-4 -18 -18 -18q-18 0 -18 20 q2 14 20 18zM568 52q18 0 14 -20q0 -16 -18 -16q-18 4 -18 20q4 20 22 16zM150 242q18 -4 20 -18q0 -8 -5 -14t-13 -4q-18 -4 -18 16q-4 16 16 20zM180 174q18 4 22 -14q0 -18 -16 -22q-20 0 -20 20q-4 16 14 16zM218 128q20 4 16 -16q4 -16 -14 -20q-18 0 -22 18 q2 14 20 18zM260 88q18 4 18 -14q4 -18 -14 -22q-20 4 -22 18q0 8 5 14t13 4zM382 36q18 0 18 -16q0 -20 -16 -20q-8 0 -14 4t-4 12q0 20 16 20zM320 52q18 4 22 -16q0 -16 -20 -20q-20 0 -16 16q-4 20 14 20zM514 718q0 18 18 18t18 -18t-18 -18t-18 18zM390 720 q0 18 18 18t18 -18t-18 -18t-18 18zM258 692q0 18 18 18t18 -18t-18 -18t-18 18zM198 672q0 18 18 18t18 -18t-18 -18t-18 18zM318 706q0 18 18 18t18 -18t-18 -18t-18 18zM146 1118q0 18 18 18t18 -18t-18 -18t-18 18zM146 1058q0 18 18 18t18 -18t-18 -18t-18 18zM146 988 q0 18 18 18t18 -18t-18 -18t-18 18zM146 918q0 18 18 18t18 -18q0 -16 -18 -17t-18 17zM146 856q0 18 18 18t18 -18t-18 -18t-18 18zM146 786q0 18 18 18t18 -18t-18 -18t-18 18zM146 658q0 18 18 18t18 -18t-18 -18t-18 18zM146 722q0 18 18 18t18 -18t-18 -18t-18 18z M146 1182q0 18 18 18t18 -18t-18 -18t-18 18zM692 1202q18 0 18 -18t-18 -18t-18 18t18 18zM632 1202q18 0 18 -18t-18 -18t-18 18t18 18zM570 1202q18 0 18 -18t-18 -18t-18 18t18 18zM500 1202q18 0 18 -18t-18 -18t-18 18t18 18zM426 1202q18 0 18 -18t-18 -18t-18 18 t18 18zM356 1202q18 0 18 -18t-18 -18t-18 18t18 18zM228 1202q18 0 18 -18t-18 -18t-18 18t18 18zM292 1202q18 0 18 -18t-18 -18t-18 18t18 18zM756 1202q18 0 18 -18t-18 -18t-18 18t18 18z" />
<glyph unicode="6" horiz-adv-x="972" d="M688 618q0 18 18 18t18 -18t-18 -18t-18 18zM630 654q0 18 18 18t18 -18t-18 -18t-18 18zM512 682q0 18 18 18t18 -18t-18 -18t-18 18zM726 570q0 18 18 18t18 -18t-18 -18t-18 18zM754 514q0 18 18 18t18 -18t-18 -18t-18 18zM790 320q0 18 18 18t18 -18t-18 -18t-18 18 zM776 452q0 18 18 18t18 -18t-18 -18t-18 18zM796 264q20 -4 16 -20q-4 -20 -20 -16q-16 0 -16 20q4 16 20 16zM776 196q18 0 14 -18q0 -18 -20 -18q-16 4 -16 22q4 18 22 14zM728 132q18 -4 18 -18q-4 -18 -22 -18q-18 4 -14 20q0 20 18 16zM684 94q18 0 18 -20 q-4 -16 -22 -16q-18 4 -14 22q0 18 18 14zM566 48q6 0 11 -6t3 -14q2 -8 -4 -12t-14 -4q-16 0 -16 20q4 16 20 16zM498 40q20 -4 16 -20q-4 -18 -18 -18q-18 0 -18 20q2 14 20 18zM628 62q18 0 14 -20q0 -16 -18 -16q-18 4 -18 20q4 20 22 16zM210 252q18 -4 20 -18 q0 -8 -5 -14t-13 -4q-18 -4 -18 16q-4 16 16 20zM240 184q18 4 22 -14q0 -18 -16 -22q-20 0 -20 20q-4 16 14 16zM278 138q20 4 16 -16q4 -16 -14 -20q-18 0 -22 18q2 14 20 18zM320 98q18 4 18 -14q4 -18 -14 -22q-20 4 -22 18q0 8 5 14t13 4zM442 46q18 0 18 -16 q0 -20 -16 -20q-8 0 -14 4t-4 12q0 20 16 20zM380 62q18 4 22 -16q0 -16 -20 -20q-20 0 -16 16q-4 20 14 20zM570 676q0 18 18 18t18 -18t-18 -18t-18 18zM446 678q0 18 18 18t18 -18t-18 -18t-18 18zM310 628q0 18 18 18t18 -18t-18 -18t-18 18zM162 368q0 18 18 18t18 -18 t-18 -18t-18 18zM370 656q0 18 18 18t18 -18t-18 -18t-18 18zM168 634q0 18 18 18t18 -18t-18 -18t-18 18zM160 572q0 18 18 18t18 -18t-18 -18t-18 18zM208 544q0 18 18 18t18 -18t-18 -18t-18 18zM252 586q0 18 18 18t18 -18q0 -16 -18 -17t-18 17zM156 500q0 18 18 18 t18 -18t-18 -18t-18 18zM154 438q0 18 18 18t18 -18t-18 -18t-18 18zM170 298q0 18 18 18t18 -18t-18 -18t-18 18zM786 386q0 18 18 18t18 -18t-18 -18t-18 18zM176 706q0 18 18 18t18 -18t-18 -18t-18 18zM488 1178q18 0 18 -18t-18 -18t-18 18t18 18zM438 1148 q18 0 18 -18t-18 -18t-18 18t18 18zM388 1110q18 0 18 -18t-18 -18t-18 18t18 18zM348 1060q18 0 18 -18t-18 -18t-18 18t18 18zM310 1014q18 0 18 -18t-18 -18t-18 18t18 18zM278 954q18 0 18 -18t-18 -18t-18 18t18 18zM212 794q18 0 18 -18t-18 -18t-18 18t18 18z M236 856q18 0 18 -18t-18 -18t-18 18t18 18zM674 1206q18 0 18 -18t-18 -18t-18 18t18 18zM602 1214q18 0 18 -18t-18 -18t-18 18t18 18zM544 1202q18 0 18 -18t-18 -18t-18 18t18 18zM256 906q18 0 18 -18t-18 -18t-18 18t18 18zM738 1194q18 0 18 -18t-18 -18t-18 18 t18 18z" />
<glyph unicode="7" horiz-adv-x="954" d="M748 1068q12 16 26 8q4 -4 8 -10t0 -14q-8 -14 -24 -8q-16 8 -10 24zM724 1014q8 14 24 8t10 -24q-12 -16 -26 -10q-12 8 -8 26zM700 956q8 16 24 10q14 -8 8 -26q-8 -14 -24 -8q-6 4 -9 10t1 14zM672 892q2 8 9 10t13 -2q18 -8 10 -22q-6 -16 -24 -10q-16 6 -8 24z M640 826q4 4 11 8t15 0q14 -8 8 -24q-8 -18 -22 -10q-16 10 -12 26zM614 760q6 16 24 10q14 -10 8 -26q-8 -14 -24 -8q-18 8 -8 24zM562 642q6 16 24 10q6 -2 9 -10t-1 -12q-6 -16 -24 -12q-16 6 -8 24zM536 588q10 18 26 8q16 -6 8 -22q-6 -16 -24 -10q-16 8 -10 24z M512 532q8 14 24 8q6 -2 10 -9t0 -13q-10 -16 -26 -10q-4 2 -8 9t0 15zM484 466q4 8 11 11t13 1q14 -8 8 -26q-2 -8 -9 -10t-13 2q-18 6 -10 22zM456 404q8 14 24 8q16 -8 10 -24q-12 -16 -26 -8t-8 24zM428 338q6 16 24 10q6 -2 9 -9t-1 -13q-2 -8 -9 -11t-13 1q-8 2 -11 9 t1 13zM586 702q4 8 11 10t13 -2q18 -8 10 -22q-8 -18 -22 -10q-16 6 -12 24zM370 210q6 16 24 8q16 -8 10 -24q-4 -6 -11 -9t-15 1q-4 4 -8 10t0 14zM346 154q8 16 24 10q20 -8 8 -24q-8 -16 -22 -10q-16 6 -10 24zM320 98q10 18 26 8q14 -8 8 -24q-4 -6 -10 -9t-14 1 q-16 8 -10 24zM296 46q8 14 24 8q6 -2 10 -9t0 -13q-10 -16 -26 -10q-14 8 -8 24zM398 268q2 6 9 10t13 0q14 -8 8 -26q-2 -6 -9 -9t-13 1q-18 8 -8 24zM776 1126q2 6 8 10t14 0q18 -8 8 -24q-2 -8 -9 -11t-13 1q-8 4 -10 11t2 13zM808 1190q2 6 8 10t14 0q18 -8 8 -24 q-2 -8 -9 -11t-13 1q-8 4 -10 11t2 13zM236 1166q-18 0 -18 18t18 18t18 -18t-18 -18zM296 1166q-18 0 -18 18t18 18t18 -18t-18 -18zM358 1166q-18 0 -18 18t18 18t18 -18t-18 -18zM428 1166q-18 0 -18 18t18 18q16 0 17 -18t-17 -18zM490 1166q-18 0 -18 18t18 18t18 -18 t-18 -18zM560 1166q-18 0 -18 18t18 18t18 -18t-18 -18zM688 1166q-18 0 -18 18t18 18t18 -18t-18 -18zM748 1166q-18 0 -18 18t18 18t18 -18t-18 -18zM624 1166q-18 0 -18 18t18 18t18 -18t-18 -18zM172 1166q-18 0 -18 18t18 18t18 -18t-18 -18z" />
<glyph unicode="8" horiz-adv-x="890" d="M438 612q0 18 18 18t18 -18t-18 -18t-18 18zM496 612q0 18 18 18t18 -18t-18 -18t-18 18zM550 610q0 18 18 18t18 -18t-18 -18t-18 18zM600 578q0 18 18 18t18 -18t-18 -18t-18 18zM642 538q0 18 18 18t18 -18t-18 -18t-18 18zM702 424q0 18 18 18t18 -18t-18 -18t-18 18 zM718 366q0 18 18 18t18 -18t-18 -18t-18 18zM680 484q0 18 18 18t18 -18t-18 -18t-18 18zM742 322q16 -4 16 -20q0 -20 -20 -16q-16 0 -16 18t20 18zM736 260q20 -4 16 -20q-4 -20 -20 -16q-16 0 -16 20q4 16 20 16zM716 192q18 0 14 -18q0 -18 -20 -18q-16 4 -16 22 q4 18 22 14zM668 128q18 -4 18 -18q-4 -18 -22 -18q-18 4 -14 20q0 20 18 16zM624 90q18 0 18 -20q-4 -16 -22 -16q-18 4 -14 22q0 18 18 14zM506 44q6 0 11 -6t3 -14q2 -8 -4 -12t-14 -4q-16 0 -16 20q4 16 20 16zM438 36q20 -4 16 -20q-4 -18 -18 -18q-18 0 -18 20 q2 14 20 18zM568 58q18 0 14 -20q0 -16 -18 -16q-18 4 -18 20q4 20 22 16zM412 612q0 -18 -20 -18q-16 0 -16 18t18 18t18 -18zM352 610q-4 -18 -20 -18q-20 0 -16 18q0 18 18 18t18 -18zM294 574q0 -18 -18 -18t-18 20q0 16 18 16t18 -18zM252 536q0 -18 -20 -18 q-16 0 -16 18t18 18t18 -18zM184 422q0 -18 -18 -18q-18 4 -18 20q4 20 20 16q20 0 16 -18zM168 364q0 -16 -20 -16q-16 0 -16 18t18 18t18 -20zM212 482q0 -18 -18 -18t-18 18t18 18t18 -18zM142 318q20 0 20 -20q0 -16 -16 -16q-20 -4 -20 16q0 16 16 20zM150 248 q18 -4 20 -18q0 -8 -5 -14t-13 -4q-18 -4 -18 16q-4 16 16 20zM180 180q18 4 22 -14q0 -18 -16 -22q-20 0 -20 20q-4 16 14 16zM218 134q20 4 16 -16q4 -16 -14 -20q-18 0 -22 18q2 14 20 18zM260 94q18 4 18 -14q4 -18 -14 -22q-20 4 -22 18q0 8 5 14t13 4zM382 42 q18 0 18 -16q0 -20 -16 -20q-8 0 -14 4t-4 12q0 20 16 20zM320 58q18 4 22 -16q0 -16 -20 -20q-20 0 -16 16q-4 20 14 20zM434 1202q0 18 18 18t18 -18t-18 -18t-18 18zM492 1196q0 18 18 18t18 -18t-18 -18t-18 18zM546 1182q0 18 18 18t18 -18t-18 -18t-18 18zM596 1150 q0 18 18 18t18 -18t-18 -18t-18 18zM638 1110q0 18 18 18t18 -18t-18 -18t-18 18zM698 996q0 18 18 18t18 -18t-18 -18t-18 18zM714 938q0 18 18 18t18 -18t-18 -18t-18 18zM676 1056q0 18 18 18t18 -18t-18 -18t-18 18zM738 894q16 -4 16 -20q0 -20 -20 -16q-16 0 -16 18 t20 18zM732 832q20 -4 16 -20q-4 -20 -20 -16q-16 0 -16 20q4 16 20 16zM712 764q18 0 14 -18q0 -18 -20 -18q-16 4 -16 22q4 18 22 14zM664 700q18 -4 18 -18q-4 -18 -22 -18q-18 4 -14 20q0 20 18 16zM620 662q18 0 18 -20q-4 -16 -22 -16q-18 4 -14 22q0 18 18 14z M408 1198q0 -18 -20 -18q-16 0 -16 18t18 18t18 -18zM348 1182q-4 -18 -20 -18q-20 0 -16 18q0 18 18 18t18 -18zM290 1146q0 -18 -18 -18t-18 20q0 16 18 16t18 -18zM248 1108q0 -18 -20 -18q-16 0 -16 18t18 18t18 -18zM180 994q0 -18 -18 -18q-18 4 -18 20q4 20 20 16 q20 0 16 -18zM164 936q0 -16 -20 -16q-16 0 -16 18t18 18t18 -20zM208 1054q0 -18 -18 -18t-18 18t18 18t18 -18zM138 890q20 0 20 -20q0 -16 -16 -16q-20 -4 -20 16q0 16 16 20zM146 820q18 -4 20 -18q0 -8 -5 -14t-13 -4q-18 -4 -18 16q-4 16 16 20zM176 752q18 4 22 -14 q0 -18 -16 -22q-20 0 -20 20q-4 16 14 16zM214 706q20 4 16 -16q4 -16 -14 -20q-18 0 -22 18q2 14 20 18zM256 666q18 4 18 -14q4 -18 -14 -22q-20 4 -22 18q0 8 5 14t13 4z" />
<glyph unicode="9" horiz-adv-x="886" d="M728 30q0 18 18 18t18 -18t-18 -18t-18 18zM728 90q0 18 18 18t18 -18t-18 -18t-18 18zM728 152q0 18 18 18t18 -18t-18 -18t-18 18zM728 222q0 18 18 18t18 -18t-18 -18t-18 18zM728 296q0 18 18 18t18 -18t-18 -18t-18 18zM728 366q0 18 18 18t18 -18t-18 -18t-18 18z M728 494q0 18 18 18t18 -18t-18 -18t-18 18zM728 554q0 18 18 18t18 -18t-18 -18t-18 18zM728 616q0 18 18 18t18 -18t-18 -18t-18 18zM728 686q0 18 18 18t18 -18t-18 -18t-18 18zM728 760q0 18 18 18t18 -18t-18 -18t-18 18zM728 830q0 18 18 18t18 -18t-18 -18t-18 18z M728 430q0 18 18 18t18 -18t-18 -18t-18 18zM728 972q0 18 18 18t18 -18t-18 -18t-18 18zM728 1032q0 18 18 18t18 -18t-18 -18t-18 18zM728 1094q0 18 18 18t18 -18t-18 -18t-18 18zM728 1164q0 18 18 18t18 -18t-18 -18t-18 18zM728 908q0 18 18 18t18 -18t-18 -18t-18 18 zM420 538q0 18 18 18t18 -18t-18 -18t-18 18zM478 548q0 18 18 18t18 -18t-18 -18t-18 18zM532 562q0 18 18 18t18 -18t-18 -18t-18 18zM582 594q0 18 18 18t18 -18t-18 -18t-18 18zM624 634q0 18 18 18t18 -18t-18 -18t-18 18zM684 748q0 18 18 18t18 -18t-18 -18t-18 18z M662 688q0 18 18 18t18 -18t-18 -18t-18 18zM696 1026q-18 -4 -22 14q0 18 16 22q20 0 20 -18q4 -18 -14 -18zM650 1070q-18 -4 -18 16q-4 16 14 20q18 0 22 -18q0 -14 -18 -18zM606 1108q-18 -4 -18 14q-4 18 14 22q18 0 22 -16q0 -20 -18 -20zM488 1160q-16 0 -20 16 q0 20 16 20q8 0 14 -4t4 -12q2 -8 -3 -14t-11 -6zM420 1168q-18 4 -20 18q0 20 18 20q14 0 18 -18q4 -16 -16 -20zM550 1146q-18 -4 -22 16q0 16 18 20q18 0 18 -16q4 -20 -14 -20zM142 872q0 -20 -18 -20t-18 18t18 18t18 -16zM394 546q0 -18 -18 -18t-18 18t16 18 q20 0 20 -18zM334 562q0 -18 -18 -18t-18 18q-4 18 16 18q16 0 20 -18zM276 598q0 -18 -18 -18t-18 16q0 20 18 20t18 -18zM234 636q0 -18 -18 -18t-18 18t16 18q20 0 20 -18zM166 750q4 -18 -16 -18q-16 -4 -20 16q0 16 18 20q18 0 18 -18zM150 816q0 -20 -18 -20t-18 18 t16 18q20 0 20 -16zM194 690q0 -18 -18 -18t-18 18t18 18t18 -18zM130 912q-16 4 -16 20q0 20 20 16q16 0 16 -16q0 -20 -20 -20zM138 970q-20 4 -16 20q0 20 18 16q8 2 13 -4t5 -14q-2 -14 -20 -18zM160 1026q-18 0 -14 16q0 20 20 20q16 -4 16 -22q-4 -18 -22 -14z M198 1072q-18 4 -20 18q4 18 22 18q18 -4 14 -20q4 -20 -16 -16zM240 1112q-8 -2 -13 4t-5 14q2 14 22 18q18 -4 14 -22q0 -18 -18 -14zM364 1162q-16 0 -16 20q-2 8 4 12t14 4q16 0 16 -20q0 -16 -18 -16zM302 1146q-18 0 -14 20q-4 16 16 16q20 -4 20 -20q-4 -20 -22 -16z " />
<glyph unicode=":" horiz-adv-x="402" d="M168 650q0 12 9 21t21 9t20 -9t8 -21q0 -28 -28 -28q-12 0 -21 8t-9 20zM168 260q0 12 9 21t21 9t20 -9t8 -21q0 -28 -28 -28q-12 0 -21 8t-9 20z" />
<glyph unicode=";" horiz-adv-x="438" d="M182 202q-14 -10 -26 2q-12 14 4 26q14 10 26 -2q12 -14 -4 -26zM214 156q-14 -10 -26 2q-12 14 4 26q14 10 26 -2q12 -14 -4 -26zM240 106q-14 -10 -26 2q-12 14 4 26q14 10 26 -2q12 -14 -4 -26zM250 42q-14 -10 -26 2q-12 14 4 26q14 10 26 -2q12 -14 -4 -26zM250 -16 q-14 -10 -26 2q-12 14 4 26q14 10 26 -2q12 -14 -4 -26zM224 -82q-14 -10 -26 2q-12 14 4 26q14 10 26 -2q12 -14 -4 -26zM178 -134q-14 -10 -26 2q-12 14 4 26q14 10 26 -2q12 -14 -4 -26zM168 650q0 12 9 21t21 9t20 -9t8 -21q0 -28 -28 -28q-12 0 -21 8t-9 20z" />
<glyph unicode="&#x3c;" horiz-adv-x="756" d="M208 552q16 4 22 -12q4 -8 0 -14t-10 -8q-18 -6 -24 10t12 24zM264 570q18 8 22 -10q6 -18 -10 -24q-18 -4 -24 12q-4 18 12 22zM322 592q18 6 24 -10q4 -18 -12 -22q-18 -8 -22 8q-6 16 10 24zM388 616q16 6 24 -10q4 -18 -12 -24q-18 -8 -22 12q-6 14 10 22zM458 640 q16 6 24 -10q4 -18 -12 -24q-18 -4 -22 12q-4 8 0 14t10 8zM522 666q20 4 26 -12q4 -18 -12 -22q-6 -4 -13 0t-9 10q-4 8 0 14t8 10zM144 524q16 6 24 -12q8 -14 -12 -22q-14 -8 -22 12q-6 14 10 22zM584 686q14 6 22 -10q6 -18 -10 -24q-16 -4 -22 12q-10 18 10 22z M208 452q-18 10 -12 26q8 14 26 8q16 -4 8 -22q-6 -16 -22 -12zM262 432q-18 4 -10 22q6 16 24 10q18 -8 8 -24q-4 -18 -22 -8zM318 406q-14 8 -8 24q4 18 22 8q16 -4 12 -22q-10 -16 -26 -10zM382 380q-4 4 -8 10t0 12q2 8 9 11t13 -1q16 -6 12 -24q-12 -16 -26 -8z M452 350q-16 8 -10 24q6 14 24 10q14 -6 10 -24q-4 -6 -11 -10t-13 0zM516 322q-16 12 -10 26q4 4 11 8t13 0q8 -2 10 -9t0 -15q-6 -14 -24 -10zM144 480q-16 8 -10 22q8 20 22 12q20 -8 12 -22q-8 -18 -24 -12zM576 298q-20 8 -10 24q6 14 22 10q8 -4 11 -11t-1 -13 q-8 -16 -22 -10z" />
<glyph unicode="=" horiz-adv-x="808" d="M154 626q-18 0 -18 18t18 18t18 -18t-18 -18zM282 626q-18 0 -18 18t18 18t18 -18t-18 -18zM342 626q-18 0 -18 18t18 18t18 -18t-18 -18zM404 626q-18 0 -18 18t18 18t18 -18t-18 -18zM474 626q-18 0 -18 18t18 18t18 -18t-18 -18zM544 626q-18 0 -18 18t18 18t18 -18 t-18 -18zM614 626q-18 0 -18 18t18 18t18 -18t-18 -18zM218 626q-18 0 -18 18t18 18t18 -18t-18 -18zM154 352q-18 0 -18 18t18 18t18 -18t-18 -18zM282 352q-18 0 -18 18t18 18t18 -18t-18 -18zM342 352q-18 0 -18 18t18 18t18 -18t-18 -18zM404 352q-18 0 -18 18t18 18 t18 -18t-18 -18zM474 352q-18 0 -18 18t18 18t18 -18t-18 -18zM544 352q-18 0 -18 18t18 18t18 -18t-18 -18zM614 352q-18 0 -18 18t18 18t18 -18t-18 -18zM218 352q-18 0 -18 18t18 18t18 -18t-18 -18z" />
<glyph unicode="&#x3e;" horiz-adv-x="776" d="M532 552q18 -8 12 -24t-24 -10q-6 2 -10 8t0 14q6 16 22 12zM476 570q16 -4 12 -22q-6 -16 -24 -12q-16 6 -10 24q4 18 22 10zM418 592q16 -8 10 -24q-4 -16 -22 -8q-16 4 -12 22q6 16 24 10zM352 616q16 -8 10 -22q-4 -20 -22 -12q-16 6 -12 24q8 16 24 10zM282 640 q6 -2 10 -8t0 -14q-4 -16 -22 -12q-16 6 -12 24q8 16 24 10zM218 666q4 -4 8 -10t0 -14q-2 -6 -9 -10t-13 0q-16 4 -12 22q6 16 26 12zM596 524q16 -8 10 -22q-8 -20 -22 -12q-20 8 -12 22q8 18 24 12zM156 686q20 -4 10 -22q-6 -16 -22 -12q-16 6 -10 24q8 16 22 10z M532 452q-16 -4 -22 12q-8 18 8 22q18 6 26 -8q6 -16 -12 -26zM478 432q-18 -10 -22 8q-10 16 8 24q18 6 24 -10q8 -18 -10 -22zM422 406q-16 -6 -26 10q-4 18 12 22q18 10 22 -8q6 -16 -8 -24zM358 380q-14 -8 -26 8q-4 18 12 24q6 4 13 1t9 -11q4 -6 0 -12t-8 -10z M288 350q-6 -4 -13 0t-11 10q-4 18 10 24q18 4 24 -10q6 -16 -10 -24zM224 322q-18 -4 -24 10q-2 8 0 15t10 9q6 4 13 0t11 -8q6 -14 -10 -26zM596 480q-16 -6 -24 12q-8 14 12 22q14 8 22 -12q6 -14 -10 -22zM164 298q-14 -6 -22 10q-4 6 -1 13t11 11q16 4 22 -10 q10 -16 -10 -24z" />
<glyph unicode="?" horiz-adv-x="922" d="M736 1096q0 -18 -18 -18t-18 18t18 18t18 -18zM476 1212q0 -18 -18 -18t-18 18t18 18t18 -18zM414 1210q0 -18 -18 -18t-18 18t18 18t18 -18zM358 1192q0 -18 -18 -18t-18 18t18 18t18 -18zM190 1052q0 -18 -18 -18t-18 18t18 18t18 -18zM162 994q0 -18 -18 -18t-18 18 t18 18t18 -18zM534 1210q0 -18 -18 -18t-18 18t18 18t18 -18zM598 1196q0 -18 -18 -18t-18 18t18 18t18 -18zM652 1166q0 -18 -18 -18t-18 18t18 18t18 -18zM700 1136q0 -18 -18 -18t-18 18t18 18t18 -18zM148 942q0 -18 -18 -18t-18 18t18 18t18 -18zM434 506 q0 -18 -18 -18t-18 18t18 18t18 -18zM800 750q0 -18 -18 -18t-18 18t18 18t18 -18zM810 820q0 -18 -18 -18t-18 18t18 18t18 -18zM808 930q0 -18 -18 -18t-18 18t18 18t18 -18zM790 988q0 -18 -18 -18t-18 18t18 18t18 -18zM770 1046q0 -18 -18 -18t-18 18t18 18t18 -18z M776 696q0 -18 -18 -18t-18 18t18 18t18 -18zM744 640q0 -18 -18 -18t-18 18t18 18t18 -18zM698 588q0 -18 -18 -18t-18 18t18 18t18 -18zM492 510q0 -18 -18 -18t-18 18t18 18t18 -18zM604 542q0 18 18 18t18 -18t-18 -18t-18 18zM274 1172q0 18 18 18t18 -18t-18 -18 t-18 18zM226 1142q0 18 18 18t18 -18t-18 -18t-18 18zM434 370q0 -18 -18 -18t-18 18t18 18t18 -18zM564 518q0 -18 -18 -18t-18 18t18 18t18 -18zM434 438q0 -18 -18 -18t-18 18t18 18t18 -18zM220 1098q0 -18 -18 -18t-18 18t18 18t18 -18zM814 876q0 -18 -18 -18t-18 18 t18 18t18 -18zM432 306q0 -18 -18 -18t-18 18t18 18t18 -18zM438 34q0 12 -9 20t-21 8q-28 0 -28 -28q0 -12 8 -21t20 -9t21 9t9 21z" />
<glyph unicode="@" horiz-adv-x="1578" d="M740 854q0 18 18 18t18 -18t-18 -18t-18 18zM798 848q0 18 18 18t18 -18t-18 -18t-18 18zM852 834q0 18 18 18t18 -18t-18 -18t-18 18zM902 802q0 18 18 18t18 -18t-18 -18t-18 18zM944 762q0 18 18 18t18 -18t-18 -18t-18 18zM990 720q0 18 18 18t18 -18t-18 -18t-18 18 zM1028 426q20 -4 16 -20q-4 -20 -20 -16q-16 0 -16 20q4 16 20 16zM1008 372q18 0 14 -18q0 -18 -20 -18q-16 4 -16 22q4 18 22 14zM970 326q18 -4 18 -18q-4 -18 -22 -18q-18 4 -14 20q0 20 18 16zM926 288q18 0 18 -20q-4 -16 -22 -16q-18 4 -14 22q0 18 18 14zM808 242 q6 0 11 -6t3 -14q2 -8 -4 -12t-14 -4q-16 0 -16 20q4 16 20 16zM740 234q20 -4 16 -20q-4 -18 -18 -18q-18 0 -18 20q2 14 20 18zM870 256q18 0 14 -20q0 -16 -18 -16q-18 4 -18 20q4 20 22 16zM462 524q0 -16 -18 -16t-18 18t18 18t18 -20zM714 850q0 -18 -20 -18 q-16 0 -16 18t18 18t18 -18zM654 834q-4 -18 -20 -18q-20 0 -16 18q0 18 18 18t18 -18zM596 798q0 -18 -18 -18t-18 20q0 16 18 16t18 -18zM554 760q0 -18 -20 -18q-16 0 -16 18t18 18t18 -18zM486 646q0 -18 -18 -18q-18 4 -18 20q4 20 20 16q20 0 16 -18zM470 580 q0 -16 -20 -16q-16 0 -16 18t18 18t18 -20zM514 706q0 -18 -18 -18t-18 18t18 18t18 -18zM450 484q20 0 20 -20q0 -16 -16 -16q-20 -4 -20 16q0 16 16 20zM458 426q18 -4 20 -18q0 -8 -5 -14t-13 -4q-18 -4 -18 16q-4 16 16 20zM480 370q18 4 22 -14q0 -18 -16 -22 q-20 0 -20 20q-4 16 14 16zM518 324q20 4 16 -16q4 -16 -14 -20q-18 0 -22 18q2 14 20 18zM560 284q18 4 18 -14q4 -18 -14 -22q-20 4 -22 18q0 8 5 14t13 4zM684 240q18 0 18 -16q0 -20 -16 -20q-8 0 -14 4t-4 12q0 20 16 20zM622 256q18 4 22 -16q0 -16 -20 -20 q-20 0 -16 16q-4 20 14 20zM1038 726q0 18 18 18t18 -18t-18 -18t-18 18zM1038 666q0 18 18 18t18 -18t-18 -18t-18 18zM1038 604q0 18 18 18t18 -18t-18 -18t-18 18zM1038 534q0 18 18 18t18 -18t-18 -18t-18 18zM1038 460q0 18 18 18t18 -18t-18 -18t-18 18zM1038 390 q0 18 18 18t18 -18t-18 -18t-18 18zM1038 262q0 18 18 18t18 -18t-18 -18t-18 18zM1038 202q0 18 18 18t18 -18t-18 -18t-18 18zM1038 326q0 18 18 18t18 -18t-18 -18t-18 18zM1038 856q0 18 18 18t18 -18t-18 -18t-18 18zM1038 786q0 18 18 18t18 -18t-18 -18t-18 18z M766 1152q0 18 18 18t18 -18t-18 -18t-18 18zM308 164q20 -4 16 -20q-4 -18 -18 -18q-18 0 -18 20q2 14 20 18zM228 288q0 -16 -18 -16t-18 18t18 18t18 -20zM742 1144q0 -18 -20 -18q-16 0 -16 18t18 18t18 -18zM334 900q-4 -18 -20 -18q-20 0 -16 18q0 18 18 18t18 -18z M300 852q0 -18 -18 -18t-18 20q0 16 18 16t18 -18zM608 1100q0 -18 -20 -18q-16 0 -16 18t18 18t18 -18zM266 798q0 -18 -18 -18q-18 4 -18 20q4 20 20 16q20 0 16 -18zM234 742q0 -16 -20 -16q-16 0 -16 18t18 18t18 -20zM670 1126q0 -18 -18 -18t-18 18t18 18t18 -18z M234 252q20 0 20 -20q0 -16 -16 -16q-20 -4 -20 16q0 16 16 20zM270 204q18 -4 20 -18q0 -8 -5 -14t-13 -4q-18 -4 -18 16q-4 16 16 20zM1082 170q18 4 22 -14q0 -18 -16 -22q-20 0 -20 20q-4 16 14 16zM1142 210q20 4 16 -16q4 -16 -14 -20q-18 0 -22 18q2 14 20 18z M358 974q18 4 18 -14q4 -18 -14 -22q-20 4 -22 18q0 8 5 14t13 4zM420 1026q18 0 18 -16q0 -20 -16 -20q-8 0 -14 4t-4 12q0 20 16 20zM532 1094q18 4 22 -16q0 -16 -20 -20q-20 0 -16 16q-4 20 14 20zM1252 958q0 18 18 18t18 -18t-18 -18t-18 18zM1198 1016q0 18 18 18 t18 -18t-18 -18t-18 18zM176 354q0 18 18 18t18 -18t-18 -18t-18 18zM174 686q0 18 18 18t18 -18t-18 -18t-18 18zM156 620q0 18 18 18t18 -18t-18 -18t-18 18zM152 482q0 18 18 18t18 -18t-18 -18t-18 18zM178 434q20 -4 16 -20q-4 -20 -20 -16q-16 0 -16 20q4 16 20 16z M186 554q0 -18 -20 -18q-16 0 -16 18t18 18t18 -18zM1284 326q0 20 18 20t18 -18t-18 -18t-18 16zM830 1154q0 18 18 18t18 -18t-16 -18q-20 0 -20 18zM900 1152q0 18 18 18t18 -18q4 -18 -16 -18q-16 0 -20 18zM966 1138q0 18 18 18t18 -16q0 -20 -18 -20t-18 18z M1030 1118q0 18 18 18t18 -18t-16 -18q-20 0 -20 18zM1140 1070q-4 18 16 18q16 4 20 -16q0 -16 -18 -20q-18 0 -18 18zM1302 882q0 20 18 20t18 -18t-16 -18q-20 0 -20 16zM1086 1098q0 18 18 18t18 -18t-18 -18t-18 18zM1262 298q16 -4 16 -20q0 -20 -20 -16q-16 0 -16 16 q0 20 20 20zM1210 250q20 -4 16 -20q0 -20 -18 -16q-8 -2 -13 4t-5 14q2 14 20 18zM480 1060q18 0 14 -16q0 -20 -20 -20q-16 4 -16 22q4 18 22 14zM540 30q18 -4 20 -18q-4 -18 -22 -18q-18 4 -14 20q-4 20 16 16zM470 58q8 2 13 -4t5 -14q-2 -14 -22 -18q-18 4 -14 22 q0 18 18 14zM358 124q16 0 16 -20q2 -8 -4 -12t-14 -4q-16 0 -16 20q0 16 18 16zM416 80q18 0 14 -20q4 -16 -16 -16q-20 4 -20 20q4 20 22 16zM1374 826q0 -18 -18 -18t-18 18t18 18t18 -18zM1392 772q0 -18 -18 -18t-18 18t18 18t18 -18zM1384 440q0 -18 -18 -18t-18 18 t18 18t18 -18zM1356 382q0 -18 -18 -18t-18 18t18 18t18 -18zM1406 716q0 -18 -18 -18t-18 18t18 18t18 -18zM1410 578q0 -18 -18 -18t-18 18t18 18t18 -18zM1384 530q16 0 20 -16q0 -20 -16 -20q-16 -4 -20 16q-4 16 16 20zM1376 650q0 18 18 18t18 -18t-16 -18 q-20 0 -20 18z" />
<glyph unicode="A" horiz-adv-x="1108" d="M520 1162q8 18 24 12t10 -24q-2 -6 -8 -10t-14 0q-16 6 -12 22zM502 1106q4 16 22 12q16 -6 12 -24q-6 -16 -24 -10q-18 4 -10 22zM480 1048q8 16 24 10q18 -4 10 -22q-4 -16 -22 -12q-16 6 -12 24zM458 982q8 16 22 10q20 -4 12 -22q-6 -16 -24 -12q-16 8 -10 24z M434 912q2 6 8 10t14 0q16 -4 12 -22q-6 -16 -24 -12q-16 8 -10 24zM410 846q8 16 24 10q6 -2 10 -9t0 -13q-4 -16 -22 -12q-16 6 -12 24zM542 1224q8 16 22 10q20 -8 12 -22q-8 -20 -22 -12q-18 8 -12 24zM368 724q6 16 24 12q16 -8 10 -24q-2 -6 -9 -10t-13 0q-8 2 -11 9 t-1 13zM348 668q6 16 24 10q18 -4 10 -22q-4 -16 -22 -12q-16 6 -12 24zM328 610q8 16 24 10q6 -2 10 -9t0 -13q-2 -8 -9 -11t-13 -1q-16 6 -12 24zM306 544q2 6 8 10t14 0q16 -6 12 -22q-8 -18 -24 -12q-16 8 -10 24zM282 474q2 6 8 10t14 0q8 -2 11 -9t1 -13 q-6 -16 -24 -12q-16 6 -10 24zM258 408q8 16 22 10q20 -8 12 -22q-8 -20 -22 -12q-18 8 -12 24zM390 784q4 20 22 12q16 -6 12 -22q-8 -18 -24 -12q-16 8 -10 22zM212 274q2 6 8 10t14 0q16 -6 12 -22q-8 -18 -24 -12q-16 8 -10 24zM192 216q2 8 9 11t13 1q16 -6 12 -24 q-8 -16 -24 -10q-6 2 -10 8t0 14zM172 158q4 18 22 10q16 -4 12 -22q-6 -16 -24 -12q-16 6 -10 24zM148 92q6 16 24 10q6 -2 10 -8t0 -14q-2 -8 -9 -11t-13 -1q-16 6 -12 24zM124 22q6 18 22 10q20 -4 12 -22q-6 -16 -22 -12q-18 8 -12 24zM232 334q8 16 24 10q6 -2 10 -8 t0 -14q-2 -8 -9 -11t-13 -1q-16 6 -12 24zM608 1162q4 -16 -12 -22q-8 -4 -14 0t-8 10q-6 18 10 24t24 -12zM626 1106q8 -18 -10 -22q-18 -6 -24 10q-4 18 12 24q18 4 22 -12zM648 1048q4 -18 -12 -24q-18 -4 -22 12q-8 18 10 22q16 6 24 -10zM670 982q6 -16 -10 -24 q-18 -4 -24 12q-8 18 12 22q14 6 22 -10zM694 912q6 -16 -10 -24q-18 -4 -24 12q-4 18 12 22q8 4 14 0t8 -10zM718 846q4 -18 -12 -24q-18 -4 -22 12q-4 6 0 13t10 9q16 6 24 -10zM586 1224q6 -16 -12 -24q-14 -8 -22 12q-8 14 12 22q14 6 22 -10zM760 724q2 -6 -1 -13 t-11 -9q-6 -4 -13 0t-9 10q-6 16 10 24q18 4 24 -12zM780 668q4 -18 -12 -24q-18 -4 -22 12q-8 18 10 22q18 6 24 -10zM800 610q4 -18 -12 -24q-6 -2 -13 1t-9 11q-4 6 0 13t10 9q16 6 24 -10zM822 544q6 -16 -10 -24q-16 -6 -24 12q-4 16 12 22q8 4 14 0t8 -10zM846 474 q6 -18 -10 -24q-18 -4 -24 12q-2 6 1 13t11 9q8 4 14 0t8 -10zM870 408q6 -16 -12 -24q-14 -8 -22 12q-8 14 12 22q14 6 22 -10zM738 784q6 -14 -10 -22q-16 -6 -24 12q-4 16 12 22q18 8 22 -12zM916 274q6 -16 -10 -24q-16 -6 -24 12q-4 16 12 22q8 4 14 0t8 -10zM936 216 q4 -8 0 -14t-10 -8q-16 -6 -24 10q-4 18 12 24q6 2 13 -1t9 -11zM956 158q6 -18 -10 -24q-18 -4 -24 12q-4 18 12 22q18 8 22 -10zM980 92q4 -18 -12 -24q-6 -2 -13 1t-9 11q-4 8 0 14t10 8q18 6 24 -10zM1004 22q6 -16 -12 -24q-16 -4 -22 12q-8 18 12 22q14 8 22 -10z M896 334q4 -18 -12 -24q-6 -2 -13 1t-9 11q-4 8 0 14t10 8q16 6 24 -10zM364 516q-18 0 -18 18t18 18t18 -18t-18 -18zM426 516q-18 0 -18 18t18 18t18 -18t-18 -18zM496 516q-18 0 -18 18t18 18t18 -18t-18 -18zM570 516q-18 0 -18 18t18 18t18 -18t-18 -18zM640 516 q-18 0 -18 18t18 18t18 -18t-18 -18zM768 516q-18 0 -18 18t18 18t18 -18t-18 -18zM704 516q-18 0 -18 18t18 18t18 -18t-18 -18z" />
<glyph unicode="B" horiz-adv-x="980" d="M158 166q0 -18 -18 -18t-18 18t18 18t18 -18zM158 240q0 -18 -18 -18t-18 18t18 18t18 -18zM158 310q0 -18 -18 -18t-18 18t18 18t18 -18zM158 446q0 -18 -18 -18t-18 18t18 18t18 -18zM158 506q0 -18 -18 -18t-18 18t18 18t18 -18zM158 578q0 -18 -18 -18t-18 18t18 18 t18 -18zM158 648q0 -18 -18 -18t-18 18t18 18t18 -18zM158 722q0 -18 -18 -18t-18 18t18 18t18 -18zM158 792q0 -18 -18 -18t-18 18t18 18t18 -18zM158 382q0 -18 -18 -18t-18 18t18 18t18 -18zM158 934q0 -18 -18 -18t-18 18t18 18t18 -18zM158 994q0 -18 -18 -18t-18 18 t18 18t18 -18zM158 1056q0 -18 -18 -18t-18 18t18 18t18 -18zM158 1126q0 -18 -18 -18t-18 18t18 18t18 -18zM158 1200q0 -18 -18 -18t-18 18t18 18t18 -18zM158 870q0 -18 -18 -18t-18 18t18 18t18 -18zM460 634q0 -18 -18 -18t-18 18t18 18t18 -18zM384 632q0 -18 -18 -18 t-18 18t18 18t18 -18zM310 634q0 -18 -18 -18t-18 18t18 18t18 -18zM224 634q0 -18 -18 -18t-18 18t18 18t18 -18zM204 1184q-18 4 -18 24q2 12 22 12q18 -4 14 -20q0 -20 -18 -16zM258 1186q-18 0 -18 20q4 16 22 16q18 -4 14 -22q0 -18 -18 -14zM384 1186q-6 0 -11 6 t-3 14q-2 8 4 12t14 4q16 0 16 -20q-4 -16 -20 -16zM450 1180q-20 4 -16 20q4 18 18 18q18 0 18 -20q-2 -14 -20 -18zM316 1186q-18 0 -14 20q0 16 18 16q18 -4 18 -14q-2 -8 -8 -16t-14 -6zM744 872q0 16 18 16t18 -18t-18 -18t-18 20zM508 636q4 18 20 18q20 0 16 -18 q0 -18 -18 -18t-18 18zM586 666q0 18 18 18t18 -20q0 -16 -18 -16t-18 18zM706 756q0 18 18 18q18 -4 18 -20q-4 -20 -20 -16q-20 0 -16 18zM736 816q0 16 20 16q16 0 16 -18t-18 -18t-18 20zM648 712q0 18 18 18t18 -18t-18 -18t-18 18zM756 912q-20 0 -20 20q0 16 16 16 q20 4 20 -16q0 -16 -16 -20zM748 970q-18 4 -20 18q0 8 5 14t13 4q18 4 18 -16q4 -16 -16 -20zM726 1026q-18 -4 -22 14q0 18 16 22q20 0 20 -20q4 -16 -14 -16zM688 1072q-20 -4 -16 16q-4 16 14 20q18 0 22 -18q-2 -14 -20 -18zM646 1112q-18 -4 -18 14q-4 18 14 22 q20 -4 22 -18q0 -8 -5 -14t-13 -4zM522 1162q-18 0 -18 16q0 20 16 20q8 0 14 -4t4 -12q0 -20 -16 -20zM584 1140q-18 -4 -22 16q0 16 20 20q20 0 16 -16q4 -20 -14 -20zM158 20q0 -18 -18 -18t-18 18t18 18t18 -18zM158 94q0 -18 -18 -18t-18 18t18 18t18 -18zM462 14 q0 -18 -18 -18t-18 18t18 18t18 -18zM386 12q0 -18 -18 -18t-18 18t18 18t18 -18zM312 14q0 -18 -18 -18t-18 18t18 18t18 -18zM226 14q0 -18 -18 -18t-18 18t18 18t18 -18zM766 466q-6 0 -11 6t-3 14q-2 8 4 12t14 4q16 0 16 -20q-4 -16 -20 -16zM718 510q-20 4 -16 20 q4 18 18 18q18 0 18 -20q-2 -14 -20 -18zM808 260q0 16 18 16t18 -18t-18 -18t-18 20zM496 18q0 18 20 18q16 0 16 -18t-18 -18t-18 18zM560 26q4 18 20 18q20 0 16 -18q0 -18 -18 -18t-18 18zM622 42q0 18 18 18t18 -20q0 -16 -18 -16t-18 18zM762 152q0 18 18 18 q18 -4 18 -20q-4 -20 -20 -16q-20 0 -16 18zM790 204q0 16 20 16q16 0 16 -18t-18 -18t-18 20zM722 102q0 18 18 18t18 -18t-18 -18t-18 18zM830 298q-20 0 -20 20q0 16 16 16q20 4 20 -16q0 -16 -16 -20zM826 352q-18 4 -20 18q0 8 5 14t13 4q18 4 18 -16q4 -16 -16 -20z M812 412q-18 -4 -22 14q0 18 16 22q20 0 20 -20q4 -16 -14 -16zM614 582q-18 0 -18 16q0 20 16 20q8 0 14 -4t4 -12q0 -20 -16 -20zM670 550q-18 -4 -22 16q0 16 20 20q20 0 16 -16q4 -20 -14 -20zM674 68q0 18 18 18t18 -18t-18 -18t-18 18z" />
<glyph unicode="C" horiz-adv-x="1052" d="M544 1202q0 18 18 18t18 -18t-18 -18t-18 18zM562 44q20 -4 16 -20q-4 -18 -18 -18q-18 0 -18 20q2 14 20 18zM222 334q0 -16 -18 -16t-18 18t18 18t18 -20zM520 1194q0 -18 -20 -18q-16 0 -16 18t18 18t18 -18zM460 1178q-4 -18 -20 -18q-20 0 -16 18q0 18 18 18t18 -18 zM402 1142q0 -18 -18 -18t-18 20q0 16 18 16t18 -18zM360 1104q0 -18 -20 -18q-16 0 -16 18t18 18t18 -18zM278 990q0 -18 -18 -18q-18 4 -18 20q4 20 20 16q20 0 16 -18zM250 924q0 -16 -20 -16q-16 0 -16 18t18 18t18 -20zM320 1050q0 -18 -18 -18t-18 18t18 18t18 -18z M222 294q20 0 20 -20q0 -16 -16 -16q-20 -4 -20 16q0 16 16 20zM254 236q18 -4 20 -18q0 -8 -5 -14t-13 -4q-18 -4 -18 16q-4 16 16 20zM294 180q18 4 22 -14q0 -18 -16 -22q-20 0 -20 20q-4 16 14 16zM332 134q20 4 16 -16q4 -16 -14 -20q-18 0 -22 18q2 14 20 18zM374 94 q18 4 18 -14q4 -18 -14 -22q-20 4 -22 18q0 8 5 14t13 4zM498 50q18 0 18 -16q0 -20 -16 -20q-8 0 -14 4t-4 12q0 20 16 20zM436 66q18 4 22 -16q0 -16 -20 -20q-20 0 -16 16q-4 20 14 20zM190 872q0 18 18 18t18 -18t-18 -18t-18 18zM174 810q0 18 18 18t18 -18t-18 -18 t-18 18zM170 400q0 18 18 18t18 -18t-18 -18t-18 18zM156 746q0 18 18 18t18 -18t-18 -18t-18 18zM148 676q0 18 18 18t18 -18t-18 -18t-18 18zM144 538q0 18 18 18t18 -18t-18 -18t-18 18zM170 490q20 -4 16 -20q-4 -20 -20 -16q-16 0 -16 20q4 16 20 16zM178 610 q0 -18 -20 -18q-16 0 -16 18t18 18t18 -18zM900 332q0 20 18 20t18 -18t-18 -18t-18 16zM604 1198q0 18 18 18t18 -18t-16 -18q-20 0 -20 18zM662 1176q0 18 18 18t18 -18q4 -18 -16 -18q-16 0 -20 18zM720 1140q0 18 18 18t18 -16q0 -20 -18 -20t-18 18zM762 1102 q0 18 18 18t18 -18t-16 -18q-20 0 -20 18zM844 988q-4 18 16 18q16 4 20 -16q0 -16 -18 -20q-18 0 -18 18zM872 922q0 20 18 20t18 -18t-16 -18q-20 0 -20 16zM802 1048q0 18 18 18t18 -18t-18 -18t-18 18zM900 292q16 -4 16 -20q0 -20 -20 -16q-16 0 -16 16q0 20 20 20z M868 234q20 -4 16 -20q0 -20 -18 -16q-8 -2 -13 4t-5 14q2 14 20 18zM828 178q18 0 14 -16q0 -20 -20 -20q-16 4 -16 22q4 18 22 14zM790 132q18 -4 20 -18q-4 -18 -22 -18q-18 4 -14 20q-4 20 16 16zM748 92q8 2 13 -4t5 -14q-2 -14 -22 -18q-18 4 -14 22q0 18 18 14z M624 44q16 0 16 -20q2 -8 -4 -12t-14 -4q-16 0 -16 20q0 16 18 16zM686 64q18 0 14 -20q4 -16 -16 -16q-20 4 -20 20q4 20 22 16z" />
<glyph unicode="D" horiz-adv-x="1040" d="M172 1138q0 18 18 18t18 -18t-18 -18t-18 18zM172 1078q0 18 18 18t18 -18t-18 -18t-18 18zM172 1016q0 18 18 18t18 -18t-18 -18t-18 18zM172 946q0 18 18 18t18 -18t-18 -18t-18 18zM172 872q0 18 18 18t18 -18t-18 -18t-18 18zM172 802q0 18 18 18t18 -18t-18 -18 t-18 18zM172 674q0 18 18 18t18 -18t-18 -18t-18 18zM172 614q0 18 18 18t18 -18t-18 -18t-18 18zM172 552q0 18 18 18t18 -18t-18 -18t-18 18zM172 482q0 18 18 18t18 -18t-18 -18t-18 18zM172 412q0 18 18 18t18 -18t-18 -18t-18 18zM172 342q0 18 18 18t18 -18t-18 -18 t-18 18zM172 738q0 18 18 18t18 -18t-18 -18t-18 18zM172 200q0 18 18 18t18 -18t-18 -18t-18 18zM172 140q0 18 18 18t18 -18t-18 -18t-18 18zM172 78q0 18 18 18t18 -18t-18 -18t-18 18zM170 20q0 18 18 18t18 -18t-18 -18t-18 18zM172 264q0 18 18 18t18 -18t-18 -18 t-18 18zM172 1202q0 18 18 18t18 -18t-18 -18t-18 18zM476 1202q0 -18 -18 -18t-18 18t18 18t18 -18zM474 40q18 -4 20 -18q0 -20 -18 -20q-14 0 -18 18q-4 16 16 20zM814 336q0 20 18 20t18 -18t-18 -18t-18 16zM516 1192q0 18 18 18t18 -18t-16 -18q-20 0 -20 18z M576 1176q0 18 18 18t18 -18q4 -18 -16 -18q-16 0 -20 18zM634 1144q0 18 18 18t18 -16q0 -20 -18 -20t-18 18zM676 1106q0 18 18 18t18 -18t-16 -18q-20 0 -20 18zM758 992q-4 18 16 18q16 4 20 -16q0 -16 -18 -20q-18 0 -18 18zM786 926q0 20 18 20t18 -18t-16 -18 q-20 0 -20 16zM716 1052q0 18 18 18t18 -18t-18 -18t-18 18zM814 296q16 -4 16 -20q0 -20 -20 -16q-16 0 -16 16q0 20 20 20zM782 238q20 -4 16 -20q0 -20 -18 -16q-8 -2 -13 4t-5 14q2 14 20 18zM742 182q18 0 14 -16q0 -20 -20 -20q-16 4 -16 22q4 18 22 14zM704 136 q18 -4 20 -18q-4 -18 -22 -18q-18 4 -14 20q-4 20 16 16zM662 96q8 2 13 -4t5 -14q-2 -14 -22 -18q-18 4 -14 22q0 18 18 14zM538 52q16 0 16 -20q2 -8 -4 -12t-14 -4q-16 0 -16 20q0 16 18 16zM600 68q18 0 14 -20q4 -16 -16 -16q-20 4 -20 20q4 20 22 16zM846 874 q0 -18 -18 -18t-18 18t18 18t18 -18zM862 812q0 -18 -18 -18t-18 18t18 18t18 -18zM866 402q0 -18 -18 -18t-18 18t18 18t18 -18zM880 748q0 -18 -18 -18t-18 18t18 18t18 -18zM888 678q0 -18 -18 -18t-18 18t18 18t18 -18zM892 540q0 -18 -18 -18t-18 18t18 18t18 -18z M866 492q16 0 20 -16q0 -20 -16 -20q-16 -4 -20 16q-4 16 16 20zM858 612q0 18 18 18t18 -18t-16 -18q-20 0 -20 18zM404 1206q0 -18 -20 -18q-16 0 -16 18t18 18t18 -18zM332 1206q-4 -18 -20 -18q-20 0 -16 18q0 18 18 18t18 -18zM262 1204q0 -18 -18 -18t-18 20 q0 16 18 16t18 -18zM236 38q20 4 16 -16q4 -16 -14 -20q-18 0 -22 18q2 14 20 18zM290 34q18 4 18 -14q4 -18 -14 -22q-20 4 -22 18q0 8 5 14t13 4zM412 38q18 0 18 -16q0 -20 -16 -20q-8 0 -14 4t-4 12q0 20 16 20zM350 36q18 4 22 -16q0 -16 -20 -20q-20 0 -16 16 q-4 20 14 20z" />
<glyph unicode="E" horiz-adv-x="976" d="M172 1138q0 18 18 18t18 -18t-18 -18t-18 18zM172 1078q0 18 18 18t18 -18t-18 -18t-18 18zM172 1016q0 18 18 18t18 -18t-18 -18t-18 18zM172 946q0 18 18 18t18 -18t-18 -18t-18 18zM172 872q0 18 18 18t18 -18t-18 -18t-18 18zM172 802q0 18 18 18t18 -18t-18 -18 t-18 18zM172 674q0 18 18 18t18 -18t-18 -18t-18 18zM172 614q0 18 18 18t18 -18t-18 -18t-18 18zM172 552q0 18 18 18t18 -18t-18 -18t-18 18zM172 482q0 18 18 18t18 -18t-18 -18t-18 18zM172 412q0 18 18 18t18 -18t-18 -18t-18 18zM172 342q0 18 18 18t18 -18t-18 -18 t-18 18zM172 738q0 18 18 18t18 -18t-18 -18t-18 18zM172 200q0 18 18 18t18 -18t-18 -18t-18 18zM172 140q0 18 18 18t18 -18t-18 -18t-18 18zM172 78q0 18 18 18t18 -18t-18 -18t-18 18zM170 20q0 18 18 18t18 -18t-18 -18t-18 18zM172 264q0 18 18 18t18 -18t-18 -18 t-18 18zM172 1204q0 18 18 18t18 -18t-18 -18t-18 18zM314 1188q-18 0 -18 18t18 18t18 -18t-18 -18zM374 1188q-18 0 -18 18t18 18t18 -18t-18 -18zM436 1188q-18 0 -18 18t18 18t18 -18t-18 -18zM506 1188q-18 0 -18 18t18 18q16 0 17 -18t-17 -18zM568 1188q-18 0 -18 18 t18 18t18 -18t-18 -18zM638 1188q-18 0 -18 18t18 18t18 -18t-18 -18zM766 1188q-18 0 -18 18t18 18t18 -18t-18 -18zM826 1188q-18 0 -18 18t18 18t18 -18t-18 -18zM702 1188q-18 0 -18 18t18 18t18 -18t-18 -18zM250 1188q-18 0 -18 18t18 18t18 -18t-18 -18zM312 634 q-18 0 -18 18t18 18t18 -18t-18 -18zM372 634q-18 0 -18 18t18 18t18 -18t-18 -18zM434 634q-18 0 -18 18t18 18t18 -18t-18 -18zM504 634q-18 0 -18 18t18 18q16 0 17 -18t-17 -18zM566 634q-18 0 -18 18t18 18t18 -18t-18 -18zM636 634q-18 0 -18 18t18 18t18 -18t-18 -18 zM248 634q-18 0 -18 18t18 18t18 -18t-18 -18zM312 2q-18 0 -18 18t18 18t18 -18t-18 -18zM372 2q-18 0 -18 18t18 18t18 -18t-18 -18zM434 2q-18 0 -18 18t18 18t18 -18t-18 -18zM504 2q-18 0 -18 18t18 18q16 0 17 -18t-17 -18zM566 2q-18 0 -18 18t18 18t18 -18t-18 -18z M636 2q-18 0 -18 18t18 18t18 -18t-18 -18zM764 2q-18 0 -18 18t18 18t18 -18t-18 -18zM824 2q-18 0 -18 18t18 18t18 -18t-18 -18zM700 2q-18 0 -18 18t18 18t18 -18t-18 -18zM248 2q-18 0 -18 18t18 18t18 -18t-18 -18z" />
<glyph unicode="F" horiz-adv-x="980" d="M172 1138q0 18 18 18t18 -18t-18 -18t-18 18zM172 1078q0 18 18 18t18 -18t-18 -18t-18 18zM172 1016q0 18 18 18t18 -18t-18 -18t-18 18zM172 946q0 18 18 18t18 -18t-18 -18t-18 18zM172 872q0 18 18 18t18 -18t-18 -18t-18 18zM172 802q0 18 18 18t18 -18t-18 -18 t-18 18zM172 674q0 18 18 18t18 -18t-18 -18t-18 18zM172 614q0 18 18 18t18 -18t-18 -18t-18 18zM172 552q0 18 18 18t18 -18t-18 -18t-18 18zM172 482q0 18 18 18t18 -18t-18 -18t-18 18zM172 412q0 18 18 18t18 -18t-18 -18t-18 18zM172 342q0 18 18 18t18 -18t-18 -18 t-18 18zM172 738q0 18 18 18t18 -18t-18 -18t-18 18zM172 200q0 18 18 18t18 -18t-18 -18t-18 18zM172 140q0 18 18 18t18 -18t-18 -18t-18 18zM172 78q0 18 18 18t18 -18t-18 -18t-18 18zM170 20q0 18 18 18t18 -18t-18 -18t-18 18zM172 264q0 18 18 18t18 -18t-18 -18 t-18 18zM172 1202q0 18 18 18t18 -18t-18 -18t-18 18zM314 1188q-18 0 -18 18t18 18t18 -18t-18 -18zM374 1188q-18 0 -18 18t18 18t18 -18t-18 -18zM436 1188q-18 0 -18 18t18 18t18 -18t-18 -18zM506 1188q-18 0 -18 18t18 18q16 0 17 -18t-17 -18zM568 1188q-18 0 -18 18 t18 18t18 -18t-18 -18zM638 1188q-18 0 -18 18t18 18t18 -18t-18 -18zM766 1188q-18 0 -18 18t18 18t18 -18t-18 -18zM826 1188q-18 0 -18 18t18 18t18 -18t-18 -18zM702 1188q-18 0 -18 18t18 18t18 -18t-18 -18zM250 1188q-18 0 -18 18t18 18t18 -18t-18 -18zM312 634 q-18 0 -18 18t18 18t18 -18t-18 -18zM372 634q-18 0 -18 18t18 18t18 -18t-18 -18zM434 634q-18 0 -18 18t18 18t18 -18t-18 -18zM504 634q-18 0 -18 18t18 18q16 0 17 -18t-17 -18zM566 634q-18 0 -18 18t18 18t18 -18t-18 -18zM636 634q-18 0 -18 18t18 18t18 -18t-18 -18 zM248 634q-18 0 -18 18t18 18t18 -18t-18 -18z" />
<glyph unicode="G" horiz-adv-x="1098" d="M544 1202q0 18 18 18t18 -18t-18 -18t-18 18zM562 44q20 -4 16 -20q-4 -18 -18 -18q-18 0 -18 20q2 14 20 18zM222 334q0 -16 -18 -16t-18 18t18 18t18 -20zM520 1194q0 -18 -20 -18q-16 0 -16 18t18 18t18 -18zM460 1178q-4 -18 -20 -18q-20 0 -16 18q0 18 18 18t18 -18 zM402 1142q0 -18 -18 -18t-18 20q0 16 18 16t18 -18zM360 1104q0 -18 -20 -18q-16 0 -16 18t18 18t18 -18zM278 990q0 -18 -18 -18q-18 4 -18 20q4 20 20 16q20 0 16 -18zM250 924q0 -16 -20 -16q-16 0 -16 18t18 18t18 -20zM320 1050q0 -18 -18 -18t-18 18t18 18t18 -18z M222 294q20 0 20 -20q0 -16 -16 -16q-20 -4 -20 16q0 16 16 20zM254 236q18 -4 20 -18q0 -8 -5 -14t-13 -4q-18 -4 -18 16q-4 16 16 20zM294 180q18 4 22 -14q0 -18 -16 -22q-20 0 -20 20q-4 16 14 16zM332 134q20 4 16 -16q4 -16 -14 -20q-18 0 -22 18q2 14 20 18zM374 94 q18 4 18 -14q4 -18 -14 -22q-20 4 -22 18q0 8 5 14t13 4zM498 50q18 0 18 -16q0 -20 -16 -20q-8 0 -14 4t-4 12q0 20 16 20zM436 66q18 4 22 -16q0 -16 -20 -20q-20 0 -16 16q-4 20 14 20zM190 872q0 18 18 18t18 -18t-18 -18t-18 18zM174 810q0 18 18 18t18 -18t-18 -18 t-18 18zM170 400q0 18 18 18t18 -18t-18 -18t-18 18zM156 746q0 18 18 18t18 -18t-18 -18t-18 18zM148 676q0 18 18 18t18 -18t-18 -18t-18 18zM144 538q0 18 18 18t18 -18t-18 -18t-18 18zM170 490q20 -4 16 -20q-4 -20 -20 -16q-16 0 -16 20q4 16 20 16zM178 610 q0 -18 -20 -18q-16 0 -16 18t18 18t18 -18zM900 332q0 20 18 20t18 -18t-18 -18t-18 16zM604 1198q0 18 18 18t18 -18t-16 -18q-20 0 -20 18zM662 1176q0 18 18 18t18 -18q4 -18 -16 -18q-16 0 -20 18zM720 1140q0 18 18 18t18 -16q0 -20 -18 -20t-18 18zM762 1102 q0 18 18 18t18 -18t-16 -18q-20 0 -20 18zM844 988q-4 18 16 18q16 4 20 -16q0 -16 -18 -20q-18 0 -18 18zM872 922q0 20 18 20t18 -18t-16 -18q-20 0 -20 16zM802 1048q0 18 18 18t18 -18t-18 -18t-18 18zM900 292q16 -4 16 -20q0 -20 -20 -16q-16 0 -16 16q0 20 20 20z M868 234q20 -4 16 -20q0 -20 -18 -16q-8 -2 -13 4t-5 14q2 14 20 18zM828 178q18 0 14 -16q0 -20 -20 -20q-16 4 -16 22q4 18 22 14zM790 132q18 -4 20 -18q-4 -18 -22 -18q-18 4 -14 20q-4 20 16 16zM748 92q8 2 13 -4t5 -14q-2 -14 -22 -18q-18 4 -14 22q0 18 18 14z M624 44q16 0 16 -20q2 -8 -4 -12t-14 -4q-16 0 -16 20q0 16 18 16zM686 64q18 0 14 -20q4 -16 -16 -16q-20 4 -20 20q4 20 22 16zM926 868q0 -18 -18 -18t-18 18t18 18t18 -18zM594 598q0 -18 -18 -18t-18 18t18 18t18 -18zM952 398q0 -18 -18 -18t-18 18t18 18t18 -18z M660 600q0 -18 -18 -18t-18 18t18 18t18 -18zM978 536q0 -18 -18 -18t-18 18t18 18t18 -18zM952 488q16 0 20 -16q0 -20 -16 -20q-16 -4 -20 16q-4 16 16 20zM940 600q0 18 18 18t18 -18t-16 -18q-20 0 -20 18zM722 602q0 -18 -18 -18t-18 18t18 18t18 -18zM784 602 q0 -18 -18 -18t-18 18t18 18t18 -18zM850 602q0 -18 -18 -18t-18 18t18 18t18 -18zM912 604q0 -18 -18 -18t-18 18t18 18t18 -18z" />
<glyph unicode="H" horiz-adv-x="1040" d="M158 1138q0 18 18 18t18 -18t-18 -18t-18 18zM158 1078q0 18 18 18t18 -18t-18 -18t-18 18zM158 1016q0 18 18 18t18 -18t-18 -18t-18 18zM158 946q0 18 18 18t18 -18t-18 -18t-18 18zM158 872q0 18 18 18t18 -18t-18 -18t-18 18zM158 802q0 18 18 18t18 -18t-18 -18 t-18 18zM158 674q0 18 18 18t18 -18t-18 -18t-18 18zM158 614q0 18 18 18t18 -18t-18 -18t-18 18zM158 552q0 18 18 18t18 -18t-18 -18t-18 18zM158 482q0 18 18 18t18 -18t-18 -18t-18 18zM158 412q0 18 18 18t18 -18t-18 -18t-18 18zM158 342q0 18 18 18t18 -18t-18 -18 t-18 18zM158 738q0 18 18 18t18 -18t-18 -18t-18 18zM158 200q0 18 18 18t18 -18t-18 -18t-18 18zM158 140q0 18 18 18t18 -18t-18 -18t-18 18zM158 78q0 18 18 18t18 -18t-18 -18t-18 18zM156 20q0 18 18 18t18 -18t-18 -18t-18 18zM158 264q0 18 18 18t18 -18t-18 -18 t-18 18zM158 1202q0 18 18 18t18 -18t-18 -18t-18 18zM852 1138q0 18 18 18t18 -18t-18 -18t-18 18zM852 1078q0 18 18 18t18 -18t-18 -18t-18 18zM852 1016q0 18 18 18t18 -18t-18 -18t-18 18zM852 946q0 18 18 18t18 -18t-18 -18t-18 18zM852 872q0 18 18 18t18 -18 t-18 -18t-18 18zM852 802q0 18 18 18t18 -18t-18 -18t-18 18zM852 674q0 18 18 18t18 -18t-18 -18t-18 18zM852 614q0 18 18 18t18 -18t-18 -18t-18 18zM852 552q0 18 18 18t18 -18t-18 -18t-18 18zM852 482q0 18 18 18t18 -18t-18 -18t-18 18zM852 412q0 18 18 18t18 -18 t-18 -18t-18 18zM852 342q0 18 18 18t18 -18t-18 -18t-18 18zM852 738q0 18 18 18t18 -18t-18 -18t-18 18zM852 200q0 18 18 18t18 -18t-18 -18t-18 18zM852 140q0 18 18 18t18 -18t-18 -18t-18 18zM852 78q0 18 18 18t18 -18t-18 -18t-18 18zM850 20q0 18 18 18t18 -18 t-18 -18t-18 18zM852 264q0 18 18 18t18 -18t-18 -18t-18 18zM852 1202q0 18 18 18t18 -18t-18 -18t-18 18zM228 634q-18 0 -18 18t18 18t18 -18t-18 -18zM290 634q-18 0 -18 18t18 18t18 -18t-18 -18zM360 634q-18 0 -18 18t18 18t18 -18t-18 -18zM430 634q-18 0 -18 18 t18 18t18 -18t-18 -18zM500 634q-18 0 -18 18t18 18t18 -18t-18 -18zM642 634q-18 0 -18 18t18 18t18 -18t-18 -18zM702 634q-18 0 -18 18t18 18t18 -18t-18 -18zM764 634q-18 0 -18 18t18 18t18 -18t-18 -18zM822 632q-18 0 -18 18t18 18t18 -18t-18 -18zM578 634 q-18 0 -18 18t18 18t18 -18t-18 -18z" />
<glyph unicode="I" horiz-adv-x="812" d="M374 1078q0 18 18 18t18 -18t-18 -18t-18 18zM374 1016q0 18 18 18t18 -18t-18 -18t-18 18zM374 946q0 18 18 18t18 -18t-18 -18t-18 18zM374 872q0 18 18 18t18 -18t-18 -18t-18 18zM374 802q0 18 18 18t18 -18t-18 -18t-18 18zM374 674q0 18 18 18t18 -18t-18 -18 t-18 18zM374 614q0 18 18 18t18 -18t-18 -18t-18 18zM374 552q0 18 18 18t18 -18t-18 -18t-18 18zM374 482q0 18 18 18t18 -18t-18 -18t-18 18zM374 412q0 18 18 18t18 -18t-18 -18t-18 18zM374 342q0 18 18 18t18 -18t-18 -18t-18 18zM374 738q0 18 18 18t18 -18t-18 -18 t-18 18zM374 200q0 18 18 18t18 -18t-18 -18t-18 18zM374 140q0 18 18 18t18 -18t-18 -18t-18 18zM374 78q0 18 18 18t18 -18t-18 -18t-18 18zM374 264q0 18 18 18t18 -18t-18 -18t-18 18zM170 1182q-18 0 -18 18t18 18t18 -18t-18 -18zM230 1182q-18 0 -18 18t18 18t18 -18 t-18 -18zM292 1182q-18 0 -18 18t18 18t18 -18t-18 -18zM362 1182q-18 0 -18 18t18 18q16 0 17 -18t-17 -18zM424 1182q-18 0 -18 18t18 18t18 -18t-18 -18zM494 1182q-18 0 -18 18t18 18t18 -18t-18 -18zM622 1182q-18 0 -18 18t18 18t18 -18t-18 -18zM682 1182 q-18 0 -18 18t18 18t18 -18t-18 -18zM558 1182q-18 0 -18 18t18 18t18 -18t-18 -18zM106 1182q-18 0 -18 18t18 18t18 -18t-18 -18zM168 2q-18 0 -18 18t18 18t18 -18t-18 -18zM228 2q-18 0 -18 18t18 18t18 -18t-18 -18zM290 2q-18 0 -18 18t18 18t18 -18t-18 -18zM360 2 q-18 0 -18 18t18 18t18 -18t-18 -18zM426 2q-18 0 -18 18t18 18t18 -18t-18 -18zM496 2q-18 0 -18 18t18 18t18 -18t-18 -18zM624 2q-18 0 -18 18t18 18t18 -18t-18 -18zM684 2q-18 0 -18 18t18 18t18 -18t-18 -18zM560 2q-18 0 -18 18t18 18t18 -18t-18 -18zM104 2 q-18 0 -18 18t18 18t18 -18t-18 -18zM374 1144q0 18 18 18t18 -18t-18 -18t-18 18z" />
<glyph unicode="J" horiz-adv-x="1130" d="M594 54q0 -18 -18 -18t-18 18t18 18t18 -18zM638 92q0 -18 -18 -18t-18 18t18 18t18 -18zM698 184q0 -18 -18 -18t-18 18t18 18t18 -18zM726 312q0 -18 -18 -18t-18 18t18 18t18 -18zM730 372q0 -18 -18 -18t-18 18t18 18t18 -18zM736 434q0 -18 -18 -18t-18 18t18 18 t18 -18zM740 504q0 -18 -18 -18t-18 18t18 18t18 -18zM740 578q0 -18 -18 -18t-18 18t18 18t18 -18zM740 648q0 -18 -18 -18t-18 18t18 18t18 -18zM718 248q0 -18 -18 -18t-18 18t18 18t18 -18zM740 790q0 -18 -18 -18t-18 18t18 18t18 -18zM740 850q0 -18 -18 -18t-18 18 t18 18t18 -18zM740 912q0 -18 -18 -18t-18 18t18 18t18 -18zM740 982q0 -18 -18 -18t-18 18t18 18t18 -18zM740 1056q0 -18 -18 -18t-18 18t18 18t18 -18zM740 726q0 -18 -18 -18t-18 18t18 18t18 -18zM352 36q0 -18 -18 -18t-18 18t18 18t18 -18zM414 20q0 -18 -18 -18 t-18 18t18 18t18 -18zM472 18q0 -18 -18 -18t-18 18t18 18t18 -18zM248 100q0 -18 -18 -18t-18 18t18 18t18 -18zM300 64q0 -18 -18 -18t-18 18t18 18t18 -18zM740 1056q0 -18 -18 -18t-18 18t18 18t18 -18zM152 244q0 -18 -18 -18t-18 18t18 18t18 -18zM136 302 q0 -18 -18 -18t-18 18t18 18t18 -18zM534 28q0 -18 -18 -18t-18 18t18 18t18 -18zM210 146q0 -18 -18 -18t-18 18t18 18t18 -18zM178 192q0 -18 -18 -18t-18 18t18 18t18 -18zM676 136q0 -18 -18 -18t-18 18t18 18t18 -18zM398 1168q-18 0 -18 18t18 18t18 -18t-18 -18z M458 1168q-18 0 -18 18t18 18t18 -18t-18 -18zM520 1168q-18 0 -18 18t18 18t18 -18t-18 -18zM590 1168q-18 0 -18 18t18 18q16 0 17 -18t-17 -18zM652 1168q-18 0 -18 18t18 18t18 -18t-18 -18zM722 1168q-18 0 -18 18t18 18t18 -18t-18 -18zM850 1168q-18 0 -18 18t18 18 t18 -18t-18 -18zM910 1168q-18 0 -18 18t18 18t18 -18t-18 -18zM786 1168q-18 0 -18 18t18 18t18 -18t-18 -18zM334 1168q-18 0 -18 18t18 18t18 -18t-18 -18zM966 1168q-18 0 -18 18t18 18t18 -18t-18 -18zM1026 1168q-18 0 -18 18t18 18t18 -18t-18 -18zM722 1106 q-18 0 -18 18t18 18t18 -18t-18 -18z" />
<glyph unicode="K" horiz-adv-x="1026" d="M172 1138q0 18 18 18t18 -18t-18 -18t-18 18zM172 1078q0 18 18 18t18 -18t-18 -18t-18 18zM172 1016q0 18 18 18t18 -18t-18 -18t-18 18zM172 946q0 18 18 18t18 -18t-18 -18t-18 18zM172 872q0 18 18 18t18 -18t-18 -18t-18 18zM172 802q0 18 18 18t18 -18t-18 -18 t-18 18zM172 674q0 18 18 18t18 -18t-18 -18t-18 18zM172 614q0 18 18 18t18 -18t-18 -18t-18 18zM172 552q0 18 18 18t18 -18t-18 -18t-18 18zM172 482q0 18 18 18t18 -18t-18 -18t-18 18zM172 412q0 18 18 18t18 -18t-18 -18t-18 18zM172 342q0 18 18 18t18 -18t-18 -18 t-18 18zM172 738q0 18 18 18t18 -18t-18 -18t-18 18zM172 200q0 18 18 18t18 -18t-18 -18t-18 18zM172 140q0 18 18 18t18 -18t-18 -18t-18 18zM172 78q0 18 18 18t18 -18t-18 -18t-18 18zM170 20q0 18 18 18t18 -18t-18 -18t-18 18zM172 264q0 18 18 18t18 -18t-18 -18 t-18 18zM172 1202q0 18 18 18t18 -18t-18 -18t-18 18zM824 1208q12 12 26 0t0 -26q-12 -12 -26 0q-10 12 0 26zM776 1158q12 14 26 0q12 -12 0 -26q-14 -12 -26 0q-14 12 0 26zM686 1066q12 14 26 0q12 -12 0 -24q-14 -14 -26 0q-16 12 0 24zM644 1024q12 14 26 0 q12 -12 0 -26q-14 -10 -26 0q-14 12 0 26zM600 980q12 10 26 0q12 -14 0 -26t-26 0q-10 12 0 26zM552 930q4 4 12 5t12 -5q14 -10 2 -26q-14 -12 -26 0q-14 12 0 26zM502 880q14 12 26 0t0 -26q-14 -10 -26 0q-10 12 0 26zM454 830q12 16 24 0q14 -12 0 -26q-12 -12 -24 0 q-14 12 0 26zM730 1112q14 14 26 0q16 -12 0 -24q-10 -14 -26 -2q-12 14 0 26zM354 728q12 14 26 0q12 -12 0 -24q-14 -14 -26 0q-16 12 0 24zM312 686q12 12 26 0q12 -12 0 -26q-14 -10 -26 0q-14 12 0 26zM268 642q12 10 26 0q10 -14 0 -26q-14 -10 -26 0q-10 12 0 26z M226 602q12 10 26 0q10 -14 0 -26q-14 -10 -26 0q-10 12 0 26zM398 774q12 12 26 0q16 -12 0 -24q-10 -14 -26 -2q-12 14 0 26zM466 658q-8 14 6 24q16 12 24 -2q12 -14 -4 -26q-14 -12 -26 4zM502 608q-10 16 4 24q14 12 24 -4q12 -14 -4 -24q-14 -10 -24 4zM536 558 q-10 14 4 24q16 12 26 -2q12 -18 -4 -26q-14 -12 -26 4zM576 500q-10 14 4 24q16 10 26 -4t-4 -24q-14 -12 -26 4zM618 440q-12 16 6 26q6 4 13 2t11 -8q12 -14 -4 -26q-14 -10 -26 6zM658 382q-10 14 6 26q16 8 26 -4q10 -14 -6 -26q-14 -12 -26 4zM732 278q-10 14 4 24 q14 12 26 -4q10 -16 -4 -24q-16 -12 -26 4zM766 226q-12 18 4 26q16 10 26 -4t-4 -24q-16 -12 -26 2zM802 176q-10 16 4 26q16 12 26 -6q8 -16 -6 -22q-14 -10 -24 2zM840 118q-8 16 6 26q14 12 26 -4q4 -6 2 -13t-8 -11q-16 -12 -26 2zM882 62q-12 14 4 26q14 10 26 -6 q12 -14 -4 -26q-18 -10 -26 6zM922 4q-12 14 4 26q14 12 26 -4q12 -14 -4 -26q-14 -12 -26 4zM696 330q-12 16 4 24q14 12 26 -4t-6 -26q-16 -12 -24 6zM430 712q-10 14 6 24q16 8 22 -6q10 -14 -2 -24q-16 -12 -26 6z" />
<glyph unicode="L" horiz-adv-x="956" d="M154 1138q0 18 18 18t18 -18t-18 -18t-18 18zM154 1078q0 18 18 18t18 -18t-18 -18t-18 18zM154 1016q0 18 18 18t18 -18t-18 -18t-18 18zM154 946q0 18 18 18t18 -18t-18 -18t-18 18zM154 872q0 18 18 18t18 -18t-18 -18t-18 18zM154 802q0 18 18 18t18 -18t-18 -18 t-18 18zM154 674q0 18 18 18t18 -18t-18 -18t-18 18zM154 614q0 18 18 18t18 -18t-18 -18t-18 18zM154 552q0 18 18 18t18 -18t-18 -18t-18 18zM154 482q0 18 18 18t18 -18t-18 -18t-18 18zM154 412q0 18 18 18t18 -18t-18 -18t-18 18zM154 342q0 18 18 18t18 -18t-18 -18 t-18 18zM154 738q0 18 18 18t18 -18t-18 -18t-18 18zM154 200q0 18 18 18t18 -18t-18 -18t-18 18zM154 140q0 18 18 18t18 -18t-18 -18t-18 18zM154 78q0 18 18 18t18 -18t-18 -18t-18 18zM152 20q0 18 18 18t18 -18t-18 -18t-18 18zM154 264q0 18 18 18t18 -18t-18 -18 t-18 18zM154 1202q0 18 18 18t18 -18t-18 -18t-18 18zM292 6q-18 0 -18 18t18 18t18 -18t-18 -18zM352 6q-18 0 -18 18t18 18t18 -18t-18 -18zM414 6q-18 0 -18 18t18 18t18 -18t-18 -18zM484 6q-18 0 -18 18t18 18t18 -18t-18 -18zM558 6q-18 0 -18 18t18 18t18 -18 t-18 -18zM628 6q-18 0 -18 18t18 18t18 -18t-18 -18zM756 6q-18 0 -18 18t18 18t18 -18t-18 -18zM816 6q-18 0 -18 18t18 18t18 -18t-18 -18zM692 6q-18 0 -18 18t18 18t18 -18t-18 -18zM228 6q-18 0 -18 18t18 18t18 -18t-18 -18z" />
<glyph unicode="M" horiz-adv-x="1312" d="M172 1138q0 18 18 18t18 -18t-18 -18t-18 18zM172 1078q0 18 18 18t18 -18t-18 -18t-18 18zM172 1016q0 18 18 18t18 -18t-18 -18t-18 18zM172 946q0 18 18 18t18 -18t-18 -18t-18 18zM172 872q0 18 18 18t18 -18t-18 -18t-18 18zM172 802q0 18 18 18t18 -18t-18 -18 t-18 18zM172 674q0 18 18 18t18 -18t-18 -18t-18 18zM172 614q0 18 18 18t18 -18t-18 -18t-18 18zM172 552q0 18 18 18t18 -18t-18 -18t-18 18zM172 482q0 18 18 18t18 -18t-18 -18t-18 18zM172 412q0 18 18 18t18 -18t-18 -18t-18 18zM172 342q0 18 18 18t18 -18t-18 -18 t-18 18zM172 738q0 18 18 18t18 -18t-18 -18t-18 18zM172 200q0 18 18 18t18 -18t-18 -18t-18 18zM172 140q0 18 18 18t18 -18t-18 -18t-18 18zM172 78q0 18 18 18t18 -18t-18 -18t-18 18zM170 20q0 18 18 18t18 -18t-18 -18t-18 18zM172 264q0 18 18 18t18 -18t-18 -18 t-18 18zM172 1202q0 18 18 18t18 -18t-18 -18t-18 18zM1146 1138q0 18 18 18t18 -18t-18 -18t-18 18zM1146 1078q0 18 18 18t18 -18t-18 -18t-18 18zM1146 1016q0 18 18 18t18 -18t-18 -18t-18 18zM1146 946q0 18 18 18t18 -18t-18 -18t-18 18zM1146 872q0 18 18 18t18 -18 t-18 -18t-18 18zM1146 802q0 18 18 18t18 -18t-18 -18t-18 18zM1146 674q0 18 18 18t18 -18t-18 -18t-18 18zM1146 614q0 18 18 18t18 -18t-18 -18t-18 18zM1146 552q0 18 18 18t18 -18t-18 -18t-18 18zM1146 482q0 18 18 18t18 -18t-18 -18t-18 18zM1146 412q0 18 18 18 t18 -18t-18 -18t-18 18zM1146 342q0 18 18 18t18 -18t-18 -18t-18 18zM1146 738q0 18 18 18t18 -18t-18 -18t-18 18zM1146 200q0 18 18 18t18 -18t-18 -18t-18 18zM1146 140q0 18 18 18t18 -18t-18 -18t-18 18zM1146 78q0 18 18 18t18 -18t-18 -18t-18 18zM1144 20 q0 18 18 18t18 -18t-18 -18t-18 18zM1146 264q0 18 18 18t18 -18t-18 -18t-18 18zM1138 1202q0 18 18 18t18 -18t-18 -18t-18 18zM240 1092q-6 18 10 24q6 4 13 1t9 -11q8 -16 -8 -24q-16 -6 -24 10zM264 1038q-8 14 8 22q16 6 24 -8q6 -18 -10 -24q-16 -8 -22 10zM288 980 q-6 18 10 24q14 8 22 -10q6 -16 -8 -24q-18 -6 -24 10zM314 916q-4 16 10 24q16 6 24 -10q6 -18 -10 -24q-16 -8 -24 10zM344 848q-8 16 10 24q6 4 13 0t9 -10q6 -16 -8 -24q-18 -6 -24 10zM372 784q-8 14 8 22q16 6 24 -8q6 -18 -10 -24q-16 -8 -22 10zM422 666q-4 6 -1 13 t9 9q16 6 24 -8q6 -18 -10 -24q-16 -8 -22 10zM444 610q-6 16 10 24q18 6 24 -10q6 -18 -10 -24q-16 -8 -24 10zM470 554q-8 14 8 22q16 6 24 -8q6 -18 -10 -24q-6 -4 -13 -1t-9 11zM496 488q-6 18 10 24q18 6 24 -10q4 -6 1 -13t-11 -9q-16 -6 -24 8zM524 424q-6 18 10 24 q6 4 13 1t9 -11q8 -16 -8 -24q-18 -6 -24 10zM552 360q-8 16 8 24q18 6 24 -10q6 -18 -10 -24q-16 -8 -22 10zM396 724q-6 18 10 24q16 8 24 -10q8 -16 -10 -24q-16 -6 -24 10zM606 230q-6 14 10 22q16 6 24 -8q6 -18 -10 -24q-16 -8 -24 10zM630 174q-6 18 10 24 q16 8 24 -10q6 -16 -10 -24q-18 -6 -24 10zM654 116q-6 18 10 24q18 6 24 -10q8 -16 -10 -22q-16 -6 -24 8zM582 288q-6 18 10 24q14 8 22 -10q6 -16 -8 -24q-18 -6 -24 10zM214 1152q-6 14 10 22q16 6 24 -8q6 -18 -10 -24q-16 -8 -24 10zM1106 1088q-8 -16 -24 -10 q-16 8 -8 24q2 8 9 11t13 -1q16 -6 10 -24zM1082 1034q-8 -18 -22 -10q-16 6 -10 24q8 14 24 8q16 -8 8 -22zM1058 976q-6 -16 -24 -10q-14 8 -8 24q6 18 22 10q16 -6 10 -24zM1032 912q-8 -18 -24 -10q-16 6 -10 24q8 16 24 10q14 -8 10 -24zM1002 844q-6 -16 -24 -10 q-14 8 -8 24q2 6 9 10t13 0q18 -8 10 -24zM974 780q-8 -18 -22 -10q-16 6 -10 24q8 14 24 8q16 -8 8 -22zM924 662q-8 -18 -22 -10q-16 6 -10 24q8 14 24 8q6 -2 9 -9t-1 -13zM902 606q-8 -18 -24 -10q-16 6 -10 24q6 16 24 10q16 -8 10 -24zM876 550q-2 -8 -9 -11t-13 1 q-16 6 -10 24q8 14 24 8q16 -8 8 -22zM850 484q-8 -14 -24 -8q-8 2 -11 9t1 13q6 16 24 10q16 -6 10 -24zM822 420q-6 -16 -24 -10q-16 8 -8 24q2 8 9 11t13 -1q16 -6 10 -24zM794 356q-8 -18 -22 -10q-16 6 -10 24q6 16 24 10q16 -8 8 -24zM950 720q-8 -16 -24 -10 q-18 8 -10 24q8 18 24 10q16 -6 10 -24zM740 226q-8 -18 -24 -10q-16 6 -10 24q8 14 24 8q16 -8 10 -22zM716 170q-6 -16 -24 -10q-16 8 -10 24q8 18 24 10q16 -6 10 -24zM692 112q-8 -14 -24 -8q-18 6 -10 22q6 16 24 10q16 -6 10 -24zM764 284q-6 -16 -24 -10q-14 8 -8 24 q6 18 22 10q16 -6 10 -24zM1136 1148q-8 -18 -24 -10q-16 6 -10 24q8 14 24 8q16 -8 10 -22z" />
<glyph unicode="N" horiz-adv-x="1028" d="M138 1138q0 18 18 18t18 -18t-18 -18t-18 18zM138 1078q0 18 18 18t18 -18t-18 -18t-18 18zM138 1016q0 18 18 18t18 -18t-18 -18t-18 18zM138 946q0 18 18 18t18 -18t-18 -18t-18 18zM138 872q0 18 18 18t18 -18t-18 -18t-18 18zM138 802q0 18 18 18t18 -18t-18 -18 t-18 18zM138 674q0 18 18 18t18 -18t-18 -18t-18 18zM138 614q0 18 18 18t18 -18t-18 -18t-18 18zM138 552q0 18 18 18t18 -18t-18 -18t-18 18zM138 482q0 18 18 18t18 -18t-18 -18t-18 18zM138 412q0 18 18 18t18 -18t-18 -18t-18 18zM138 342q0 18 18 18t18 -18t-18 -18 t-18 18zM138 738q0 18 18 18t18 -18t-18 -18t-18 18zM138 200q0 18 18 18t18 -18t-18 -18t-18 18zM138 140q0 18 18 18t18 -18t-18 -18t-18 18zM138 78q0 18 18 18t18 -18t-18 -18t-18 18zM136 20q0 18 18 18t18 -18t-18 -18t-18 18zM138 264q0 18 18 18t18 -18t-18 -18 t-18 18zM138 1202q0 18 18 18t18 -18t-18 -18t-18 18zM858 1138q0 18 18 18t18 -18t-18 -18t-18 18zM858 1078q0 18 18 18t18 -18t-18 -18t-18 18zM858 1016q0 18 18 18t18 -18t-18 -18t-18 18zM858 946q0 18 18 18t18 -18t-18 -18t-18 18zM858 872q0 18 18 18t18 -18 t-18 -18t-18 18zM858 802q0 18 18 18t18 -18t-18 -18t-18 18zM858 674q0 18 18 18t18 -18t-18 -18t-18 18zM858 614q0 18 18 18t18 -18t-18 -18t-18 18zM858 552q0 18 18 18t18 -18t-18 -18t-18 18zM858 482q0 18 18 18t18 -18t-18 -18t-18 18zM858 412q0 18 18 18t18 -18 t-18 -18t-18 18zM858 342q0 18 18 18t18 -18t-18 -18t-18 18zM858 738q0 18 18 18t18 -18t-18 -18t-18 18zM858 200q0 18 18 18t18 -18t-18 -18t-18 18zM858 140q0 18 18 18t18 -18t-18 -18t-18 18zM858 78q0 18 18 18t18 -18t-18 -18t-18 18zM856 20q0 18 18 18t18 -18 t-18 -18t-18 18zM858 264q0 18 18 18t18 -18t-18 -18t-18 18zM858 1202q0 18 18 18t18 -18t-18 -18t-18 18zM218 1096q-12 16 6 24q16 8 26 -8q8 -16 -8 -26q-16 -8 -24 10zM246 1042q-4 6 0 13t8 11q14 6 26 -6q4 -16 -10 -26q-16 -8 -24 8zM276 986q-6 18 8 26q6 4 13 2 t11 -10q12 -12 -6 -22q-6 -4 -14 -2t-12 6zM312 928q-8 14 8 24q6 4 13 1t9 -9q8 -12 -4 -24q-14 -8 -26 8zM350 862q-8 16 6 24q16 10 24 -4t-4 -26q-18 -6 -26 6zM382 804q-4 4 -2 11t10 11q4 4 12 2t12 -6q8 -16 -6 -26q-16 -8 -26 8zM448 688q-8 18 6 26q16 8 24 -6 q4 -6 2 -13t-8 -11q-12 -8 -24 4zM474 638q-8 16 10 26q18 8 22 -8q6 -18 -6 -24q-16 -10 -26 6zM508 586q-6 6 -4 12t8 8q16 10 26 -4q6 -18 -8 -26q-4 -4 -11 -2t-11 12zM542 524q-8 12 4 24q16 10 26 -6q6 -16 -6 -26q-18 -8 -24 8zM576 464q-4 6 -2 13t10 11 q16 12 26 -8q4 -6 1 -13t-13 -11q-6 -4 -13 -2t-9 10zM610 402q-8 16 6 24q16 10 24 -8q12 -16 -4 -24q-18 -6 -26 8zM414 746q-10 16 8 24q16 8 26 -6q4 -18 -10 -24q-16 -8 -24 6zM682 278q-6 16 6 26q16 8 24 -10q10 -14 -6 -22q-18 -10 -24 6zM708 226q-4 6 -2 13t10 11 q14 8 22 -6q14 -14 -4 -26q-18 -6 -26 8zM740 172q-4 6 -1 13t7 11q14 8 26 -4q6 -16 -8 -26q-16 -8 -24 6zM780 112q-8 14 6 24q6 4 13 1t11 -9q10 -16 -4 -24q-16 -6 -26 8zM650 332q-10 16 4 26q16 6 26 -6q8 -16 -6 -24q-16 -10 -24 4zM186 1150q-8 16 8 26q4 4 12 2 t12 -10q4 -6 2 -13t-8 -11q-8 -4 -15 -3t-11 9zM814 70q0 18 18 18t18 -18t-18 -18t-18 18z" />
<glyph unicode="O" horiz-adv-x="1112" d="M544 1202q0 18 18 18t18 -18t-18 -18t-18 18zM562 44q20 -4 16 -20q-4 -18 -18 -18q-18 0 -18 20q2 14 20 18zM222 334q0 -16 -18 -16t-18 18t18 18t18 -20zM520 1194q0 -18 -20 -18q-16 0 -16 18t18 18t18 -18zM460 1178q-4 -18 -20 -18q-20 0 -16 18q0 18 18 18t18 -18 zM402 1142q0 -18 -18 -18t-18 20q0 16 18 16t18 -18zM360 1104q0 -18 -20 -18q-16 0 -16 18t18 18t18 -18zM278 990q0 -18 -18 -18q-18 4 -18 20q4 20 20 16q20 0 16 -18zM250 924q0 -16 -20 -16q-16 0 -16 18t18 18t18 -20zM320 1050q0 -18 -18 -18t-18 18t18 18t18 -18z M222 294q20 0 20 -20q0 -16 -16 -16q-20 -4 -20 16q0 16 16 20zM254 236q18 -4 20 -18q0 -8 -5 -14t-13 -4q-18 -4 -18 16q-4 16 16 20zM294 180q18 4 22 -14q0 -18 -16 -22q-20 0 -20 20q-4 16 14 16zM332 134q20 4 16 -16q4 -16 -14 -20q-18 0 -22 18q2 14 20 18zM374 94 q18 4 18 -14q4 -18 -14 -22q-20 4 -22 18q0 8 5 14t13 4zM498 50q18 0 18 -16q0 -20 -16 -20q-8 0 -14 4t-4 12q0 20 16 20zM436 66q18 4 22 -16q0 -16 -20 -20q-20 0 -16 16q-4 20 14 20zM190 872q0 18 18 18t18 -18t-18 -18t-18 18zM174 810q0 18 18 18t18 -18t-18 -18 t-18 18zM170 400q0 18 18 18t18 -18t-18 -18t-18 18zM156 746q0 18 18 18t18 -18t-18 -18t-18 18zM148 676q0 18 18 18t18 -18t-18 -18t-18 18zM144 538q0 18 18 18t18 -18t-18 -18t-18 18zM170 490q20 -4 16 -20q-4 -20 -20 -16q-16 0 -16 20q4 16 20 16zM178 610 q0 -18 -20 -18q-16 0 -16 18t18 18t18 -18zM900 332q0 20 18 20t18 -18t-18 -18t-18 16zM604 1198q0 18 18 18t18 -18t-16 -18q-20 0 -20 18zM662 1176q0 18 18 18t18 -18q4 -18 -16 -18q-16 0 -20 18zM720 1140q0 18 18 18t18 -16q0 -20 -18 -20t-18 18zM762 1102 q0 18 18 18t18 -18t-16 -18q-20 0 -20 18zM844 988q-4 18 16 18q16 4 20 -16q0 -16 -18 -20q-18 0 -18 18zM872 922q0 20 18 20t18 -18t-16 -18q-20 0 -20 16zM802 1048q0 18 18 18t18 -18t-18 -18t-18 18zM900 292q16 -4 16 -20q0 -20 -20 -16q-16 0 -16 16q0 20 20 20z M868 234q20 -4 16 -20q0 -20 -18 -16q-8 -2 -13 4t-5 14q2 14 20 18zM828 178q18 0 14 -16q0 -20 -20 -20q-16 4 -16 22q4 18 22 14zM790 132q18 -4 20 -18q-4 -18 -22 -18q-18 4 -14 20q-4 20 16 16zM748 92q8 2 13 -4t5 -14q-2 -14 -22 -18q-18 4 -14 22q0 18 18 14z M624 44q16 0 16 -20q2 -8 -4 -12t-14 -4q-16 0 -16 20q0 16 18 16zM686 64q18 0 14 -20q4 -16 -16 -16q-20 4 -20 20q4 20 22 16zM932 870q0 -18 -18 -18t-18 18t18 18t18 -18zM948 808q0 -18 -18 -18t-18 18t18 18t18 -18zM952 398q0 -18 -18 -18t-18 18t18 18t18 -18z M966 744q0 -18 -18 -18t-18 18t18 18t18 -18zM974 674q0 -18 -18 -18t-18 18t18 18t18 -18zM978 536q0 -18 -18 -18t-18 18t18 18t18 -18zM952 488q16 0 20 -16q0 -20 -16 -20q-16 -4 -20 16q-4 16 16 20zM944 608q0 18 18 18t18 -18t-16 -18q-20 0 -20 18z" />
<glyph unicode="P" horiz-adv-x="876" d="M158 166q0 -18 -18 -18t-18 18t18 18t18 -18zM158 240q0 -18 -18 -18t-18 18t18 18t18 -18zM158 310q0 -18 -18 -18t-18 18t18 18t18 -18zM158 446q0 -18 -18 -18t-18 18t18 18t18 -18zM158 506q0 -18 -18 -18t-18 18t18 18t18 -18zM158 578q0 -18 -18 -18t-18 18t18 18 t18 -18zM158 648q0 -18 -18 -18t-18 18t18 18t18 -18zM158 722q0 -18 -18 -18t-18 18t18 18t18 -18zM158 792q0 -18 -18 -18t-18 18t18 18t18 -18zM158 382q0 -18 -18 -18t-18 18t18 18t18 -18zM158 934q0 -18 -18 -18t-18 18t18 18t18 -18zM158 994q0 -18 -18 -18t-18 18 t18 18t18 -18zM158 1056q0 -18 -18 -18t-18 18t18 18t18 -18zM158 1126q0 -18 -18 -18t-18 18t18 18t18 -18zM158 1200q0 -18 -18 -18t-18 18t18 18t18 -18zM158 870q0 -18 -18 -18t-18 18t18 18t18 -18zM460 526q0 -18 -18 -18t-18 18t18 18t18 -18zM382 514q0 -18 -18 -18 t-18 18t18 18t18 -18zM308 506q0 -18 -18 -18t-18 18t18 18t18 -18zM222 508q0 -18 -18 -18t-18 18t18 18t18 -18zM204 1190q-18 4 -18 18q4 18 22 18q18 -4 14 -20q0 -20 -18 -16zM258 1192q-18 0 -18 20q4 16 22 16q18 -4 14 -22q0 -18 -18 -14zM384 1186q-6 0 -11 6 t-3 14q-2 8 4 12t14 4q16 0 16 -20q-4 -16 -20 -16zM450 1180q-20 4 -16 20q4 18 18 18q18 0 18 -20q-2 -14 -20 -18zM316 1192q-18 0 -14 20q0 16 18 16q18 -4 18 -14q-2 -8 -8 -16t-14 -6zM744 872q0 16 18 16t18 -18t-18 -18t-18 20zM492 546q0 18 20 18q16 0 16 -18 t-18 -18t-18 18zM552 562q4 18 20 18q20 0 16 -18q0 -18 -18 -18t-18 18zM610 598q0 18 18 18t18 -20q0 -16 -18 -16t-18 18zM652 636q0 18 20 18q16 0 16 -18t-18 -18t-18 18zM720 750q0 18 18 18q18 -4 18 -20q-4 -20 -20 -16q-20 0 -16 18zM736 816q0 16 20 16 q16 0 16 -18t-18 -18t-18 20zM692 690q0 18 18 18t18 -18t-18 -18t-18 18zM756 912q-20 0 -20 20q0 16 16 16q20 4 20 -16q0 -16 -16 -20zM748 970q-18 4 -20 18q0 8 5 14t13 4q18 4 18 -16q4 -16 -16 -20zM726 1026q-18 -4 -22 14q0 18 16 22q20 0 20 -20q4 -16 -14 -16z M688 1072q-20 -4 -16 16q-4 16 14 20q18 0 22 -18q-2 -14 -20 -18zM646 1112q-18 -4 -18 14q-4 18 14 22q20 -4 22 -18q0 -8 -5 -14t-13 -4zM522 1162q-18 0 -18 16q0 20 16 20q8 0 14 -4t4 -12q0 -20 -16 -20zM584 1140q-18 -4 -22 16q0 16 20 20q20 0 16 -16 q4 -20 -14 -20zM158 20q0 -18 -18 -18t-18 18t18 18t18 -18zM158 94q0 -18 -18 -18t-18 18t18 18t18 -18z" />
<glyph unicode="Q" horiz-adv-x="1104" d="M544 1202q0 18 18 18t18 -18t-18 -18t-18 18zM562 44q20 -4 16 -20q-4 -18 -18 -18q-18 0 -18 20q2 14 20 18zM222 334q0 -16 -18 -16t-18 18t18 18t18 -20zM520 1194q0 -18 -20 -18q-16 0 -16 18t18 18t18 -18zM460 1178q-4 -18 -20 -18q-20 0 -16 18q0 18 18 18t18 -18 zM402 1142q0 -18 -18 -18t-18 20q0 16 18 16t18 -18zM360 1104q0 -18 -20 -18q-16 0 -16 18t18 18t18 -18zM278 990q0 -18 -18 -18q-18 4 -18 20q4 20 20 16q20 0 16 -18zM250 924q0 -16 -20 -16q-16 0 -16 18t18 18t18 -20zM320 1050q0 -18 -18 -18t-18 18t18 18t18 -18z M222 294q20 0 20 -20q0 -16 -16 -16q-20 -4 -20 16q0 16 16 20zM254 236q18 -4 20 -18q0 -8 -5 -14t-13 -4q-18 -4 -18 16q-4 16 16 20zM294 180q18 4 22 -14q0 -18 -16 -22q-20 0 -20 20q-4 16 14 16zM332 134q20 4 16 -16q4 -16 -14 -20q-18 0 -22 18q2 14 20 18zM374 94 q18 4 18 -14q4 -18 -14 -22q-20 4 -22 18q0 8 5 14t13 4zM498 50q18 0 18 -16q0 -20 -16 -20q-8 0 -14 4t-4 12q0 20 16 20zM436 66q18 4 22 -16q0 -16 -20 -20q-20 0 -16 16q-4 20 14 20zM190 872q0 18 18 18t18 -18t-18 -18t-18 18zM174 810q0 18 18 18t18 -18t-18 -18 t-18 18zM170 400q0 18 18 18t18 -18t-18 -18t-18 18zM156 746q0 18 18 18t18 -18t-18 -18t-18 18zM148 676q0 18 18 18t18 -18t-18 -18t-18 18zM144 538q0 18 18 18t18 -18t-18 -18t-18 18zM170 490q20 -4 16 -20q-4 -20 -20 -16q-16 0 -16 20q4 16 20 16zM178 610 q0 -18 -20 -18q-16 0 -16 18t18 18t18 -18zM900 332q0 20 18 20t18 -18t-18 -18t-18 16zM604 1198q0 18 18 18t18 -18t-16 -18q-20 0 -20 18zM662 1176q0 18 18 18t18 -18q4 -18 -16 -18q-16 0 -20 18zM720 1140q0 18 18 18t18 -16q0 -20 -18 -20t-18 18zM762 1102 q0 18 18 18t18 -18t-16 -18q-20 0 -20 18zM844 988q-4 18 16 18q16 4 20 -16q0 -16 -18 -20q-18 0 -18 18zM872 922q0 20 18 20t18 -18t-16 -18q-20 0 -20 16zM802 1048q0 18 18 18t18 -18t-18 -18t-18 18zM900 292q16 -4 16 -20q0 -20 -20 -16q-16 0 -16 16q0 20 20 20z M868 234q20 -4 16 -20q0 -20 -18 -16q-8 -2 -13 4t-5 14q2 14 20 18zM828 178q18 0 14 -16q0 -20 -20 -20q-16 4 -16 22q4 18 22 14zM790 132q18 -4 20 -18q-4 -18 -22 -18q-18 4 -14 20q-4 20 16 16zM748 92q8 2 13 -4t5 -14q-2 -14 -22 -18q-18 4 -14 22q0 18 18 14z M624 44q16 0 16 -20q2 -8 -4 -12t-14 -4q-16 0 -16 20q0 16 18 16zM686 64q18 0 14 -20q4 -16 -16 -16q-20 4 -20 20q4 20 22 16zM932 870q0 -18 -18 -18t-18 18t18 18t18 -18zM948 808q0 -18 -18 -18t-18 18t18 18t18 -18zM952 398q0 -18 -18 -18t-18 18t18 18t18 -18z M966 744q0 -18 -18 -18t-18 18t18 18t18 -18zM974 674q0 -18 -18 -18t-18 18t18 18t18 -18zM978 536q0 -18 -18 -18t-18 18t18 18t18 -18zM952 488q16 0 20 -16q0 -20 -16 -20q-16 -4 -20 16q-4 16 16 20zM944 608q0 18 18 18t18 -18t-16 -18q-20 0 -20 18zM658 380 q-10 14 6 26q16 8 24 -6q12 -14 -4 -26q-16 -6 -26 6zM692 328q-12 14 4 26q16 6 26 -6q10 -14 -6 -26q-16 -8 -24 6zM730 270q-10 14 4 24q14 8 26 -6q8 -16 -6 -24q-16 -12 -24 6zM768 206q-6 16 6 26q16 8 26 -6q8 -16 -6 -24q-14 -12 -26 4zM806 148q-4 6 -2 13t8 11 q16 12 24 -6q10 -14 -4 -24q-14 -8 -26 6zM876 40q-12 16 4 24q16 10 26 -6q8 -14 -6 -24q-6 -4 -13 -2t-11 8zM908 -10q-10 14 4 24q14 8 26 -6q4 -6 2 -13t-8 -11q-16 -12 -24 6zM840 94q-8 16 6 24q16 12 26 -6q8 -14 -6 -24t-26 6z" />
<glyph unicode="R" horiz-adv-x="968" d="M158 166q0 -18 -18 -18t-18 18t18 18t18 -18zM158 240q0 -18 -18 -18t-18 18t18 18t18 -18zM158 310q0 -18 -18 -18t-18 18t18 18t18 -18zM158 446q0 -18 -18 -18t-18 18t18 18t18 -18zM158 506q0 -18 -18 -18t-18 18t18 18t18 -18zM158 578q0 -18 -18 -18t-18 18t18 18 t18 -18zM158 648q0 -18 -18 -18t-18 18t18 18t18 -18zM158 722q0 -18 -18 -18t-18 18t18 18t18 -18zM158 792q0 -18 -18 -18t-18 18t18 18t18 -18zM158 382q0 -18 -18 -18t-18 18t18 18t18 -18zM158 934q0 -18 -18 -18t-18 18t18 18t18 -18zM158 994q0 -18 -18 -18t-18 18 t18 18t18 -18zM158 1056q0 -18 -18 -18t-18 18t18 18t18 -18zM158 1126q0 -18 -18 -18t-18 18t18 18t18 -18zM158 1200q0 -18 -18 -18t-18 18t18 18t18 -18zM158 870q0 -18 -18 -18t-18 18t18 18t18 -18zM460 592q0 -18 -18 -18t-18 18t18 18t18 -18zM382 588q0 -18 -18 -18 t-18 18t18 18t18 -18zM304 584q0 -18 -18 -18t-18 18t18 18t18 -18zM222 582q0 -18 -18 -18t-18 18t18 18t18 -18zM204 1190q-18 4 -18 18q4 18 22 18q18 -4 14 -20q0 -20 -18 -16zM258 1192q-18 0 -18 20q4 16 22 16q18 -4 14 -22q0 -18 -18 -14zM384 1186q-6 0 -11 6 t-3 14q-2 8 4 12t14 4q16 0 16 -20q-4 -16 -20 -16zM450 1180q-20 4 -16 20q4 18 18 18q18 0 18 -20q-2 -14 -20 -18zM316 1192q-18 0 -14 20q0 16 18 16q18 -4 18 -14q-2 -8 -8 -16t-14 -6zM744 872q0 16 18 16t18 -18t-18 -18t-18 20zM492 602q0 18 20 18q16 0 16 -18 t-18 -18t-18 18zM552 620q4 18 20 18q20 0 16 -18q0 -18 -18 -18t-18 18zM620 652q0 18 20 18q16 0 16 -18t-18 -18t-18 18zM720 750q0 18 18 18q18 -4 18 -20q-4 -20 -20 -16q-20 0 -16 18zM736 816q0 16 20 16q16 0 16 -18t-18 -18t-18 20zM692 690q0 18 18 18t18 -18 t-18 -18t-18 18zM756 912q-20 0 -20 20q0 16 16 16q20 4 20 -16q0 -16 -16 -20zM748 970q-18 4 -20 18q0 8 5 14t13 4q18 4 18 -16q4 -16 -16 -20zM726 1026q-18 -4 -22 14q0 18 16 22q20 0 20 -20q4 -16 -14 -16zM688 1072q-20 -4 -16 16q-4 16 14 20q18 0 22 -18 q-2 -14 -20 -18zM646 1112q-18 -4 -18 14q-4 18 14 22q20 -4 22 -18q0 -8 -5 -14t-13 -4zM522 1162q-18 0 -18 16q0 20 16 20q8 0 14 -4t4 -12q0 -20 -16 -20zM584 1140q-18 -4 -22 16q0 16 20 20q20 0 16 -16q4 -20 -14 -20zM158 20q0 -18 -18 -18t-18 18t18 18t18 -18z M158 94q0 -18 -18 -18t-18 18t18 18t18 -18zM508 478q-6 4 -4 11t8 13q14 6 26 -6q8 -16 -6 -24q-16 -14 -24 6zM538 426q-8 16 6 26q18 8 24 -6q6 -6 5 -13t-7 -11q-16 -10 -28 4zM574 374q-10 18 6 24q12 12 24 -4q8 -10 -4 -26q-16 -6 -26 6zM612 316q-12 16 6 24 q14 10 24 -6q4 -4 2 -12t-6 -12q-14 -8 -26 6zM654 254q-6 6 -4 13t8 11q12 10 26 -4q8 -16 -6 -26q-16 -10 -24 6zM692 196q-12 12 6 24q10 10 24 -6q8 -14 -6 -24q-6 -4 -13 -2t-11 8zM778 64q-10 16 4 24q6 6 14 4t12 -8q8 -16 -6 -26q-16 -8 -24 6zM810 14q-10 14 6 26 q14 8 24 -6q10 -16 -4 -24q-14 -12 -26 4zM734 132q-4 6 -2 13t6 11q16 10 26 -4q12 -16 -6 -26q-16 -8 -24 6zM472 530q-12 16 6 24q12 12 24 -4q4 -6 3 -14t-9 -12q-16 -8 -24 6z" />
<glyph unicode="S" horiz-adv-x="938" d="M168 1098q0 18 18 18t18 -18t-18 -18t-18 18zM428 1214q0 18 18 18t18 -18t-18 -18t-18 18zM490 1212q0 18 18 18t18 -18t-18 -18t-18 18zM546 1194q0 18 18 18t18 -18t-18 -18t-18 18zM714 1054q0 18 18 18t18 -18t-18 -18t-18 18zM742 996q0 18 18 18t18 -18t-18 -18 t-18 18zM370 1212q0 18 18 18t18 -18t-18 -18t-18 18zM306 1198q0 18 18 18t18 -18t-18 -18t-18 18zM252 1168q0 18 18 18t18 -18t-18 -18t-18 18zM204 1138q0 18 18 18t18 -18t-18 -18t-18 18zM756 944q0 18 18 18t18 -18t-18 -18t-18 18zM512 596q0 18 18 18t18 -18 t-18 -18t-18 18zM120 816q0 18 18 18t18 -18t-18 -18t-18 18zM108 878q0 18 18 18t18 -18t-18 -18t-18 18zM106 936q0 18 18 18t18 -18t-18 -18t-18 18zM114 990q0 18 18 18t18 -18t-18 -18t-18 18zM134 1048q0 18 18 18t18 -18t-18 -18t-18 18zM146 760q0 18 18 18t18 -18 t-18 -18t-18 18zM192 714q0 18 18 18t18 -18t-18 -18t-18 18zM246 674q0 18 18 18t18 -18t-18 -18t-18 18zM434 612q0 18 18 18t18 -18t-18 -18t-18 18zM146 188q0 -18 -18 -18t-18 18t18 18t18 -18zM130 240q0 -18 -18 -18t-18 18t18 18t18 -18zM332 642q0 -18 -18 -18 t-18 18t18 18t18 -18zM630 1174q0 -18 -18 -18t-18 18t18 18t18 -18zM224 96q0 -18 -18 -18t-18 18t18 18t18 -18zM678 1144q0 -18 -18 -18t-18 18t18 18t18 -18zM584 570q0 18 18 18t18 -18t-18 -18t-18 18zM234 62q0 18 18 18t18 -18t-18 -18t-18 18zM360 626q0 18 18 18 t18 -18t-18 -18t-18 18zM648 546q0 18 18 18t18 -18t-18 -18t-18 18zM684 1100q0 18 18 18t18 -18t-18 -18t-18 18zM180 140q0 -18 -18 -18t-18 18t18 18t18 -18zM768 380q0 18 18 18t18 -18t-18 -18t-18 18zM294 34q0 18 18 18t18 -18t-18 -18t-18 18zM774 310q0 18 18 18 t18 -18t-18 -18t-18 18zM712 122q0 18 18 18t18 -18t-18 -18t-18 18zM666 68q0 18 18 18t18 -18t-18 -18t-18 18zM362 14q0 18 18 18t18 -18t-18 -18t-18 18zM746 450q0 18 18 18t18 -18t-18 -18t-18 18zM706 508q0 18 18 18t18 -18t-18 -18t-18 18zM750 178q0 18 18 18 t18 -18t-18 -18t-18 18zM642 30q0 -18 -18 -18t-18 18t18 18t18 -18zM556 12q0 -18 -18 -18t-18 18t18 18t18 -18zM474 8q0 -18 -18 -18t-18 18t18 18t18 -18zM768 238q0 18 18 18t18 -18t-18 -18t-18 18z" />
<glyph unicode="T" horiz-adv-x="1084" d="M516 1138q0 18 18 18t18 -18t-18 -18t-18 18zM516 1078q0 18 18 18t18 -18t-18 -18t-18 18zM516 1016q0 18 18 18t18 -18t-18 -18t-18 18zM516 946q0 18 18 18t18 -18t-18 -18t-18 18zM516 872q0 18 18 18t18 -18t-18 -18t-18 18zM516 802q0 18 18 18t18 -18t-18 -18 t-18 18zM516 674q0 18 18 18t18 -18t-18 -18t-18 18zM516 614q0 18 18 18t18 -18t-18 -18t-18 18zM516 552q0 18 18 18t18 -18t-18 -18t-18 18zM516 482q0 18 18 18t18 -18t-18 -18t-18 18zM516 412q0 18 18 18t18 -18t-18 -18t-18 18zM516 342q0 18 18 18t18 -18t-18 -18 t-18 18zM516 738q0 18 18 18t18 -18t-18 -18t-18 18zM516 200q0 18 18 18t18 -18t-18 -18t-18 18zM516 140q0 18 18 18t18 -18t-18 -18t-18 18zM516 78q0 18 18 18t18 -18t-18 -18t-18 18zM516 264q0 18 18 18t18 -18t-18 -18t-18 18zM312 1182q-18 0 -18 18t18 18t18 -18 t-18 -18zM372 1182q-18 0 -18 18t18 18t18 -18t-18 -18zM434 1182q-18 0 -18 18t18 18t18 -18t-18 -18zM504 1182q-18 0 -18 18t18 18t18 -18t-18 -18zM568 1182q-18 0 -18 18t18 18t18 -18t-18 -18zM638 1182q-18 0 -18 18t18 18t18 -18t-18 -18zM766 1182q-18 0 -18 18 t18 18t18 -18t-18 -18zM826 1182q-18 0 -18 18t18 18t18 -18t-18 -18zM702 1182q-18 0 -18 18t18 18t18 -18t-18 -18zM248 1182q-18 0 -18 18t18 18t18 -18t-18 -18zM516 18q0 18 18 18t18 -18t-18 -18t-18 18zM882 1182q-18 0 -18 18t18 18t18 -18t-18 -18zM942 1182 q-18 0 -18 18t18 18t18 -18t-18 -18zM196 1182q-18 0 -18 18t18 18t18 -18t-18 -18zM132 1182q-18 0 -18 18t18 18t18 -18t-18 -18z" />
<glyph unicode="U" horiz-adv-x="986" d="M812 28q0 -18 -18 -18t-18 18t18 18t18 -18zM812 88q0 -18 -18 -18t-18 18t18 18t18 -18zM812 150q0 -18 -18 -18t-18 18t18 18t18 -18zM812 220q0 -18 -18 -18t-18 18t18 18t18 -18zM812 290q0 -18 -18 -18t-18 18t18 18t18 -18zM812 360q0 -18 -18 -18t-18 18t18 18 t18 -18zM812 502q0 -18 -18 -18t-18 18t18 18t18 -18zM812 562q0 -18 -18 -18t-18 18t18 18t18 -18zM812 624q0 -18 -18 -18t-18 18t18 18t18 -18zM814 682q0 -18 -18 -18t-18 18t18 18t18 -18zM762 176q0 -18 -18 -18t-18 18t18 18t18 -18zM812 438q0 -18 -18 -18t-18 18 t18 18t18 -18zM528 20q0 -18 -18 -18t-18 18t18 18t18 -18zM474 20q0 -18 -18 -18t-18 18t18 18t18 -18zM416 32q0 -18 -18 -18t-18 18t18 18t18 -18zM274 108q0 -18 -18 -18t-18 18t18 18t18 -18zM236 156q0 -18 -18 -18t-18 18t18 18t18 -18zM578 34q0 -18 -18 -18t-18 18 t18 18t18 -18zM624 60q0 -18 -18 -18t-18 18t18 18t18 -18zM674 88q0 -18 -18 -18t-18 18t18 18t18 -18zM718 130q0 -18 -18 -18t-18 18t18 18t18 -18zM184 270q0 -18 -18 -18t-18 18t18 18t18 -18zM170 336q0 -18 -18 -18t-18 18t18 18t18 -18zM208 210q0 -18 -18 -18 t-18 18t18 18t18 -18zM152 468q0 -18 -18 -18t-18 18t18 18t18 -18zM158 404q0 -18 -18 -18t-18 18t18 18t18 -18zM814 738q0 -18 -18 -18t-18 18t18 18t18 -18zM814 800q0 -18 -18 -18t-18 18t18 18t18 -18zM816 858q0 -18 -18 -18t-18 18t18 18t18 -18zM814 914 q0 -18 -18 -18t-18 18t18 18t18 -18zM814 976q0 -18 -18 -18t-18 18t18 18t18 -18zM816 1034q0 -18 -18 -18t-18 18t18 18t18 -18zM814 1096q0 -18 -18 -18t-18 18t18 18t18 -18zM814 1158q0 -18 -18 -18t-18 18t18 18t18 -18zM816 1216q0 -18 -18 -18t-18 18t18 18t18 -18z M360 48q0 -18 -18 -18t-18 18t18 18t18 -18zM310 68q0 -18 -18 -18t-18 18t18 18t18 -18zM148 528q0 -18 -18 -18t-18 18t18 18t18 -18zM148 586q0 -18 -18 -18t-18 18t18 18t18 -18zM146 642q0 -18 -18 -18t-18 18t18 18t18 -18zM146 704q0 -18 -18 -18t-18 18t18 18 t18 -18zM148 772q0 -18 -18 -18t-18 18t18 18t18 -18zM148 838q0 -18 -18 -18t-18 18t18 18t18 -18zM148 900q0 -18 -18 -18t-18 18t18 18t18 -18zM150 958q0 -18 -18 -18t-18 18t18 18t18 -18zM148 1020q0 -18 -18 -18t-18 18t18 18t18 -18zM150 1082q0 -18 -16 -18 q-20 0 -20 18t18 18t18 -18zM152 1140q0 -18 -18 -18t-18 18t18 18t18 -18zM152 1208q0 -18 -18 -18t-18 18t18 18t18 -18z" />
<glyph unicode="V" horiz-adv-x="1148" d="M608 72q-8 -18 -24 -12t-10 24q2 6 8 10t14 0q16 -6 12 -22zM626 128q-4 -16 -22 -12q-16 6 -12 24q6 16 24 10q18 -4 10 -22zM648 186q-8 -16 -24 -10q-18 4 -10 22q4 16 22 12q16 -6 12 -24zM670 252q-8 -16 -22 -10q-20 4 -12 22q6 16 24 12q16 -8 10 -24zM694 322 q-2 -6 -8 -10t-14 0q-16 4 -12 22q6 16 24 12q16 -8 10 -24zM718 388q-8 -16 -24 -10q-6 2 -10 9t0 13q4 16 22 12q16 -6 12 -24zM586 10q-8 -16 -22 -10q-20 8 -12 22q8 20 22 12q18 -8 12 -24zM760 510q-6 -16 -24 -12q-16 8 -10 24q2 6 9 10t13 0q8 -2 11 -9t1 -13z M780 566q-6 -16 -24 -10q-18 4 -10 22q4 16 22 12q16 -6 12 -24zM800 624q-8 -16 -24 -10q-6 2 -10 9t0 13q2 8 9 11t13 1q16 -6 12 -24zM822 690q-2 -6 -8 -10t-14 0q-16 6 -12 22q8 18 24 12q16 -8 10 -24zM846 760q-2 -6 -8 -10t-14 0q-8 2 -11 9t-1 13q6 16 24 12 q16 -6 10 -24zM870 826q-8 -16 -22 -10q-20 8 -12 22q8 20 22 12q18 -8 12 -24zM738 450q-4 -20 -22 -12q-16 6 -12 22q8 18 24 12q16 -8 10 -22zM916 960q-2 -6 -8 -10t-14 0q-16 6 -12 22q8 18 24 12q16 -8 10 -24zM936 1018q-2 -8 -9 -11t-13 -1q-16 6 -12 24q8 16 24 10 q6 -2 10 -8t0 -14zM956 1076q-4 -18 -22 -10q-16 4 -12 22q6 16 24 12q16 -6 10 -24zM980 1142q-6 -16 -24 -10q-6 2 -10 8t0 14q2 8 9 11t13 1q16 -6 12 -24zM1004 1212q-8 -18 -22 -10q-20 4 -12 22q6 16 22 12q18 -8 12 -24zM896 900q-8 -16 -24 -10q-6 2 -10 8t0 14 q2 8 9 11t13 1q16 -6 12 -24zM520 72q-4 16 12 22q8 4 14 0t8 -10q6 -18 -10 -24t-24 12zM502 128q-8 18 10 22q18 6 24 -10q4 -18 -12 -24q-18 -4 -22 12zM480 186q-4 18 12 24q18 4 22 -12q8 -18 -10 -22q-16 -6 -24 10zM458 252q-6 16 10 24q18 4 24 -12q8 -18 -12 -22 q-14 -6 -22 10zM434 322q-6 16 10 24q18 4 24 -12q4 -18 -12 -22q-8 -4 -14 0t-8 10zM410 388q-4 18 12 24q18 4 22 -12q4 -6 0 -13t-10 -9q-16 -6 -24 10zM542 10q-6 16 12 24q14 8 22 -12q8 -14 -12 -22q-14 -6 -22 10zM368 510q-2 6 1 13t11 9q6 4 13 0t9 -10 q6 -16 -10 -24q-18 -4 -24 12zM348 566q-4 18 12 24q18 4 22 -12q8 -18 -10 -22q-18 -6 -24 10zM328 624q-4 18 12 24q6 2 13 -1t9 -11q4 -6 0 -13t-10 -9q-16 -6 -24 10zM306 690q-6 16 10 24q16 6 24 -12q4 -16 -12 -22q-8 -4 -14 0t-8 10zM282 760q-6 18 10 24 q18 4 24 -12q2 -6 -1 -13t-11 -9q-8 -4 -14 0t-8 10zM258 826q-6 16 12 24q14 8 22 -12q8 -14 -12 -22q-14 -6 -22 10zM390 450q-6 14 10 22q16 6 24 -12q4 -16 -12 -22q-18 -8 -22 12zM212 960q-6 16 10 24q16 6 24 -12q4 -16 -12 -22q-8 -4 -14 0t-8 10zM192 1018 q-4 8 0 14t10 8q16 6 24 -10q4 -18 -12 -24q-6 -2 -13 1t-9 11zM172 1076q-6 18 10 24q18 4 24 -12q4 -18 -12 -22q-18 -8 -22 10zM148 1142q-4 18 12 24q6 2 13 -1t9 -11q4 -8 0 -14t-10 -8q-18 -6 -24 10zM124 1212q-6 16 12 24q16 4 22 -12q8 -18 -12 -22q-16 -8 -22 10z M232 900q-4 18 12 24q6 2 13 -1t9 -11q4 -8 0 -14t-10 -8q-16 -6 -24 10z" />
<glyph unicode="W" horiz-adv-x="1660" d="M174 1080q-6 16 12 24q14 4 22 -12q4 -18 -12 -24q-18 -4 -22 12zM190 1024q-4 16 12 22q18 4 22 -12q4 -8 0 -14t-10 -8q-16 -6 -24 12zM208 964q-4 18 12 22q16 6 24 -12q4 -14 -12 -22q-18 -4 -24 12zM228 898q-4 14 12 22q18 4 24 -12q4 -18 -12 -22q-16 -6 -24 12z M250 826q-4 18 12 22q18 8 22 -12q8 -14 -12 -22q-16 -4 -22 12zM270 760q-4 14 12 22q18 4 24 -12q4 -18 -12 -22q-16 -6 -24 12zM308 636q-4 18 12 24q18 4 22 -12q6 -16 -12 -24q-14 -4 -22 12zM326 580q-8 18 12 22q18 4 22 -12q8 -18 -12 -22q-18 -8 -22 12zM344 520 q-8 18 12 22q18 8 22 -12q8 -14 -12 -22q-18 -4 -22 12zM364 454q-4 16 12 22q18 4 22 -12q8 -18 -12 -22q-14 -6 -22 12zM384 386q-4 18 12 22q18 8 22 -12q8 -14 -12 -22q-16 -4 -22 12zM404 320q-4 14 12 22q18 4 24 -12q4 -18 -12 -22q-16 -6 -24 12zM290 698 q-8 18 12 22q18 8 22 -12q4 -16 -12 -22q-18 -4 -22 12zM446 184q-4 18 12 22q18 4 22 -12q8 -18 -12 -22q-14 -8 -22 12zM464 126q-8 18 12 22q18 8 22 -12q6 -14 -12 -22q-18 -4 -22 12zM482 66q-6 16 12 24q18 4 22 -12q6 -16 -12 -24q-18 -4 -22 12zM496 10q-4 16 12 24 q16 4 24 -12q4 -16 -12 -24q-16 -4 -24 12zM428 244q-6 16 12 24q18 4 22 -12q4 -18 -12 -24q-18 -4 -22 12zM154 1142q-4 18 12 22q18 8 22 -12q6 -14 -12 -22q-16 -4 -22 12zM136 1200q-4 18 12 22q18 8 22 -12q6 -14 -12 -22q-16 -4 -22 12zM1516 1078q-4 -16 -22 -12 q-16 6 -12 24q8 16 22 12q18 -8 12 -24zM1500 1022q-8 -18 -24 -12q-6 2 -10 8t0 14q4 16 22 12q16 -6 12 -22zM1482 962q-6 -16 -24 -12q-16 8 -12 22q8 18 24 12q16 -4 12 -22zM1462 896q-8 -18 -24 -12q-16 4 -12 22q6 16 24 12q16 -8 12 -22zM1440 824q-6 -16 -22 -12 q-20 8 -12 22q4 20 22 12q16 -4 12 -22zM1420 758q-8 -18 -24 -12q-16 4 -12 22q6 16 24 12q16 -8 12 -22zM1382 634q-8 -16 -22 -12q-18 8 -12 24q4 16 22 12q16 -6 12 -24zM1364 578q-4 -20 -22 -12q-20 4 -12 22q4 16 22 12q20 -4 12 -22zM1346 518q-4 -16 -22 -12 q-20 8 -12 22q4 20 22 12q20 -4 12 -22zM1326 452q-8 -18 -22 -12q-20 4 -12 22q4 16 22 12q16 -6 12 -22zM1306 384q-6 -16 -22 -12q-20 8 -12 22q4 20 22 12q16 -4 12 -22zM1286 318q-8 -18 -24 -12q-16 4 -12 22q6 16 24 12q16 -8 12 -22zM1400 696q-4 -16 -22 -12 q-16 6 -12 22q4 20 22 12q20 -4 12 -22zM1244 182q-8 -20 -22 -12q-20 4 -12 22q4 16 22 12q16 -4 12 -22zM1226 124q-4 -16 -22 -12q-18 8 -12 22q4 20 22 12q20 -4 12 -22zM1208 64q-4 -16 -22 -12q-18 8 -12 24q4 16 22 12q18 -8 12 -24zM1194 8q-8 -16 -24 -12 q-16 8 -12 24q8 16 24 12q16 -8 12 -24zM1262 242q-4 -16 -22 -12q-16 6 -12 24q4 16 22 12q18 -8 12 -24zM1536 1140q-6 -16 -22 -12q-18 8 -12 22q4 20 22 12q16 -4 12 -22zM1554 1198q-6 -16 -22 -12q-18 8 -12 22q4 20 22 12q16 -4 12 -22zM834 950q-8 -18 -24 -12 q-16 4 -12 22q6 16 24 12q16 -8 12 -22zM812 878q-6 -16 -22 -12q-20 8 -12 22q4 20 22 12q16 -4 12 -22zM792 812q-8 -18 -24 -12q-16 4 -12 22q6 16 24 12q16 -8 12 -22zM754 688q-8 -16 -22 -12q-18 8 -12 24q4 16 22 12q16 -6 12 -24zM736 632q-4 -20 -22 -12 q-20 4 -12 22q4 16 22 12q20 -4 12 -22zM718 572q-4 -16 -22 -12q-20 8 -12 22q4 20 22 12q20 -4 12 -22zM698 506q-8 -18 -22 -12q-20 4 -12 22q4 16 22 12q16 -6 12 -22zM678 438q-6 -16 -22 -12q-20 8 -12 22q4 20 22 12q16 -4 12 -22zM658 372q-8 -18 -24 -12 q-16 4 -12 22q6 16 24 12q16 -8 12 -22zM772 750q-4 -16 -22 -12q-16 6 -12 22q4 20 22 12q20 -4 12 -22zM616 236q-8 -20 -22 -12q-20 4 -12 22q4 16 22 12q16 -4 12 -22zM598 178q-4 -16 -22 -12q-18 8 -12 22q4 20 22 12q20 -4 12 -22zM580 118q-4 -16 -22 -12 q-18 8 -12 24q4 16 22 12q18 -8 12 -24zM566 62q-8 -16 -24 -12q-16 8 -12 24q8 16 24 12q16 -8 12 -24zM634 296q-4 -16 -22 -12q-16 6 -12 24q4 16 22 12q18 -8 12 -24zM860 948q-4 14 12 22q18 4 24 -12q4 -18 -12 -22q-16 -6 -24 12zM882 876q-4 18 12 22q18 8 22 -12 q8 -14 -12 -22q-16 -4 -22 12zM902 810q-4 14 12 22q18 4 24 -12q4 -18 -12 -22q-16 -6 -24 12zM940 686q-4 18 12 24q18 4 22 -12q6 -16 -12 -24q-14 -4 -22 12zM958 630q-8 18 12 22q18 4 22 -12q8 -18 -12 -22q-18 -8 -22 12zM976 570q-8 18 12 22q18 8 22 -12 q8 -14 -12 -22q-18 -4 -22 12zM996 504q-4 16 12 22q18 4 22 -12q8 -18 -12 -22q-14 -6 -22 12zM1016 436q-4 18 12 22q18 8 22 -12q8 -14 -12 -22q-16 -4 -22 12zM1036 370q-4 14 12 22q18 4 24 -12q4 -18 -12 -22q-16 -6 -24 12zM922 748q-8 18 12 22q18 8 22 -12 q4 -16 -12 -22q-18 -4 -22 12zM1078 234q-4 18 12 22q18 4 22 -12q8 -18 -12 -22q-14 -8 -22 12zM1096 176q-8 18 12 22q18 8 22 -12q6 -14 -12 -22q-18 -4 -22 12zM1114 116q-6 16 12 24q18 4 22 -12q6 -16 -12 -24q-18 -4 -22 12zM1128 60q-4 16 12 24q16 4 24 -12 q4 -16 -12 -24q-16 -4 -24 12zM1060 294q-6 16 12 24q18 4 22 -12q4 -18 -12 -24q-18 -4 -22 12zM862 1010q-8 -18 -24 -12q-16 4 -12 22q6 16 24 12q16 -8 12 -22z" />
<glyph unicode="X" horiz-adv-x="964" d="M192 1142q-10 16 6 24q14 8 26 -6q8 -16 -8 -24q-6 -4 -13 -2t-11 8zM220 1090q-8 16 8 24q6 4 13 2t11 -8q10 -16 -6 -24q-14 -8 -26 6zM252 1036q-4 6 -2 13t8 11t13 2t11 -8q10 -16 -6 -24q-16 -10 -24 6zM286 974q-8 14 6 26q6 4 13 2t11 -10q4 -6 2 -13t-8 -11 q-16 -8 -24 6zM322 910q-4 6 -2 13t8 11q16 10 24 -6q4 -6 2 -13t-8 -11t-13 -2t-11 8zM356 850q-10 12 6 24q18 6 26 -8q6 -14 -8 -24q-6 -4 -13 -2t-11 10zM418 738q-8 16 6 24q18 6 26 -8t-8 -24q-6 -4 -13 -2t-11 10zM448 686q-10 12 6 24q6 4 13 2t11 -10q4 -6 2 -13 t-8 -11t-13 -2t-11 10zM478 630q-8 14 6 26q18 8 24 -8q4 -6 2 -13t-8 -11q-16 -8 -24 6zM512 570q-4 6 -2 13t8 11q14 8 26 -6q6 -16 -8 -26q-16 -8 -24 8zM546 508q-8 14 6 26q16 6 26 -8q4 -6 2 -13t-10 -11q-6 -4 -13 -2t-11 8zM580 448q-8 16 6 24q16 6 26 -6 q6 -18 -8 -26q-6 -4 -13 -2t-11 10zM386 794q-6 14 8 24q6 4 13 2t11 -10q10 -12 -6 -24q-18 -6 -26 8zM650 324q-4 6 -2 13t8 11t13 2t11 -8q8 -14 -6 -26q-6 -4 -13 -2t-11 10zM678 272q-8 14 8 24q6 4 13 2t11 -10q8 -14 -6 -24q-18 -6 -26 8zM708 218q-8 14 8 24 q6 4 13 2t11 -10q10 -12 -6 -24q-18 -6 -26 8zM736 166q-4 6 -2 13t8 11q16 8 24 -6t-6 -26q-6 -4 -13 -2t-11 10zM618 380q-8 16 6 24q16 6 26 -6q6 -18 -8 -26q-6 -4 -13 -2t-11 10zM160 1198q-8 18 8 24q6 4 13 2t11 -8t2 -13t-10 -11q-12 -10 -24 6zM772 108q-8 14 8 24 q6 4 13 2t11 -10q10 -12 -6 -24q-18 -6 -26 8zM800 56q-4 6 -2 13t8 11q16 8 24 -6t-6 -26q-6 -4 -13 -2t-11 10zM800 1142q-4 -6 -11 -8t-13 2q-16 8 -8 24q12 14 26 6q16 -8 6 -24zM772 1090q-12 -14 -26 -6q-16 8 -6 24q4 6 11 8t13 -2q16 -8 8 -24zM740 1036 q-8 -16 -24 -6q-16 8 -6 24q4 6 11 8t13 -2t8 -11t-2 -13zM706 974q-8 -14 -24 -6q-6 4 -8 11t2 13q4 8 11 10t13 -2q14 -12 6 -26zM670 910q-4 -6 -11 -8t-13 2t-8 11t2 13q8 16 24 6q6 -4 8 -11t-2 -13zM636 850q-4 -8 -11 -10t-13 2q-14 10 -8 24q8 14 26 8q16 -12 6 -24 zM574 738q-4 -8 -11 -10t-13 2q-16 10 -8 24t26 8q14 -8 6 -24zM544 686q-4 -8 -11 -10t-13 2t-8 11t2 13q4 8 11 10t13 -2q16 -12 6 -24zM514 630q-8 -14 -24 -6q-6 4 -8 11t2 13q6 16 24 8q14 -12 6 -26zM480 570q-8 -16 -24 -8q-14 10 -8 26q12 14 26 6q6 -4 8 -11 t-2 -13zM446 508q-4 -6 -11 -8t-13 2q-8 4 -10 11t2 13q10 14 26 8q14 -12 6 -26zM412 448q-4 -8 -11 -10t-13 2q-14 8 -8 26q10 12 26 6q14 -8 6 -24zM606 794q-8 -14 -26 -8q-16 12 -6 24q4 8 11 10t13 -2q14 -10 8 -24zM342 324q-4 -8 -11 -10t-13 2q-14 12 -6 26 q4 6 11 8t13 -2t8 -11t-2 -13zM314 272q-8 -14 -26 -8q-14 10 -6 24q4 8 11 10t13 -2q16 -10 8 -24zM284 218q-8 -14 -26 -8q-16 12 -6 24q4 8 11 10t13 -2q16 -10 8 -24zM256 166q-4 -8 -11 -10t-13 2q-14 12 -6 26t24 6q6 -4 8 -11t-2 -13zM374 380q-4 -8 -11 -10t-13 2 q-14 8 -8 26q10 12 26 6q14 -8 6 -24zM832 1198q-12 -16 -24 -6q-8 4 -10 11t2 13t11 8t13 -2q16 -6 8 -24zM220 108q-8 -14 -26 -8q-16 12 -6 24q4 8 11 10t13 -2q16 -10 8 -24zM192 56q-4 -8 -11 -10t-13 2q-14 12 -6 26t24 6q6 -4 8 -11t-2 -13zM160 6q-4 -8 -11 -10 t-13 2q-14 12 -6 26t24 6q6 -4 8 -11t-2 -13zM860 12q-4 -8 -11 -10t-13 2q-14 12 -6 26t24 6q6 -4 8 -11t-2 -13z" />
<glyph unicode="Y" horiz-adv-x="920" d="M464 548q0 18 18 18t18 -18t-18 -18t-18 18zM464 478q0 18 18 18t18 -18t-18 -18t-18 18zM464 408q0 18 18 18t18 -18t-18 -18t-18 18zM464 338q0 18 18 18t18 -18t-18 -18t-18 18zM464 196q0 18 18 18t18 -18t-18 -18t-18 18zM464 136q0 18 18 18t18 -18t-18 -18t-18 18 zM464 74q0 18 18 18t18 -18t-18 -18t-18 18zM462 16q0 18 18 18t18 -18t-18 -18t-18 18zM464 260q0 18 18 18t18 -18t-18 -18t-18 18zM132 1178q-4 6 -2 13t10 11q6 4 13 2t11 -10q4 -6 2 -13t-10 -11q-6 -4 -13 -2t-11 10zM160 1124q-8 18 8 24q6 4 13 2t11 -8 q6 -18 -8 -26q-16 -8 -24 8zM190 1070q-4 6 -2 13t8 11q18 6 26 -8q8 -16 -8 -24q-18 -8 -24 8zM222 1008q-4 6 -2 13t10 11q6 4 13 2t11 -10q8 -14 -8 -24q-16 -8 -24 8zM254 946q-8 16 8 24q16 10 24 -8q10 -12 -6 -24q-16 -6 -26 8zM288 884q-8 18 8 24q12 10 24 -6 q6 -16 -8 -26q-16 -8 -24 8zM354 758q-6 16 8 26q16 8 24 -8q8 -18 -8 -24q-12 -10 -24 6zM382 706q-8 16 8 24q6 4 13 2t11 -10q10 -14 -8 -24q-14 -8 -24 8zM412 652q-10 14 8 24q14 6 24 -8q8 -16 -8 -24q-16 -12 -24 8zM438 598q-8 14 6 26q16 6 24 -8q10 -16 -6 -24 q-16 -10 -24 6zM324 816q-6 14 8 24q6 4 13 2t11 -10q4 -6 2 -13t-10 -11q-14 -8 -24 8zM838 1180q-4 -8 -11 -10t-13 2q-8 4 -10 11t2 13q4 8 11 10t13 -2q8 -4 10 -11t-2 -13zM810 1126q-8 -16 -24 -8q-14 8 -8 26q4 6 11 8t13 -2q16 -6 8 -24zM780 1072q-6 -16 -24 -8 q-16 8 -8 24q8 14 26 8q6 -4 8 -11t-2 -13zM748 1010q-8 -16 -24 -8q-16 10 -8 24q4 8 11 10t13 -2q8 -4 10 -11t-2 -13zM716 948q-10 -14 -26 -8q-16 12 -6 24q8 18 24 8q16 -8 8 -24zM682 886q-8 -16 -24 -8q-14 10 -8 26q12 16 24 6q16 -6 8 -24zM616 760q-12 -16 -24 -6 q-16 6 -8 24q8 16 24 8q14 -10 8 -26zM588 708q-10 -16 -24 -8q-18 10 -8 24q4 8 11 10t13 -2q16 -8 8 -24zM558 654q-8 -20 -24 -8q-16 8 -8 24q10 14 24 8q18 -10 8 -24zM532 600q-8 -16 -24 -6q-16 8 -6 24q8 14 24 8q14 -12 6 -26zM646 818q-10 -16 -24 -8q-8 4 -10 11 t2 13q4 8 11 10t13 -2q14 -10 8 -24z" />
<glyph unicode="Z" horiz-adv-x="964" d="M702 1024q4 6 12 8t14 -4q12 -8 6 -24q-10 -12 -26 -6q-4 4 -7 11t1 15zM674 970q2 8 9 10t15 -2t10 -11t-2 -13q-14 -14 -28 -8q-10 10 -4 24zM644 916q8 14 24 8q12 -8 6 -28q-12 -12 -26 -4q-4 4 -7 10t3 14zM610 856q4 8 11 9t13 -3q16 -12 6 -24q-6 -16 -24 -8 q-14 8 -6 26zM572 792q4 4 11 7t15 -1q14 -8 8 -24q-10 -16 -24 -8t-10 26zM540 728q8 20 24 8q14 -10 6 -26q-10 -14 -24 -6q-18 12 -6 24zM476 616q10 18 26 8q6 -2 8 -10t-2 -12q-4 -12 -24 -12q-16 8 -8 26zM446 564q14 18 28 6q14 -8 6 -22q-10 -18 -26 -8q-16 8 -8 24 zM416 512q10 12 26 6q16 -8 8 -24q-10 -16 -26 -6q-4 2 -8 9t0 15zM384 448q8 18 24 10q14 -8 6 -26q-4 -8 -11 -9t-13 1q-16 12 -6 24zM350 390q12 12 26 4q4 -4 7 -11t-1 -13q-12 -14 -26 -6q-12 10 -6 26zM316 326q8 18 24 8q6 -2 8 -10t-2 -12q-8 -18 -24 -8q-6 2 -8 10 t2 12zM508 674q4 8 11 9t13 -3q16 -10 8 -24q-12 -16 -24 -6q-14 8 -8 24zM248 204q2 14 22 6q16 -10 10 -26q-12 -16 -28 -4q-14 8 -4 24zM218 152q4 4 10 7t14 -1t9 -12t-3 -12q-10 -14 -24 -8q-16 10 -6 26zM186 96q10 14 28 8q14 -10 4 -26q-4 -4 -10 -7t-14 1 q-14 8 -8 24zM154 40q8 14 24 4q6 -2 9 -9t-1 -13q-12 -14 -28 -8q-14 10 -4 26zM280 258q2 6 10 9t12 1q14 -10 6 -26q-4 -6 -11 -9t-13 1t-8 11t4 13zM734 1078q4 16 24 8q16 -12 6 -24q-2 -8 -10 -10t-12 2q-8 4 -9 11t1 13zM762 1136q4 6 10 9t14 -1q16 -12 4 -24 q-2 -8 -10 -10t-12 2q-8 2 -9 10t3 14zM802 1202q4 6 10 9t14 -1q16 -12 4 -24q-2 -8 -10 -10t-12 2q-8 2 -9 10t3 14zM244 1176q-18 0 -18 18t18 18t18 -18t-18 -18zM304 1176q-18 0 -18 18t18 18t18 -18t-18 -18zM366 1176q-18 0 -18 18t18 18t18 -18t-18 -18zM436 1176 q-18 0 -18 18t18 18q16 0 17 -18t-17 -18zM498 1176q-18 0 -18 18t18 18t18 -18t-18 -18zM568 1176q-18 0 -18 18t18 18t18 -18t-18 -18zM696 1176q-18 0 -18 18t18 18t18 -18t-18 -18zM756 1176q-18 0 -18 18t18 18t18 -18t-18 -18zM632 1176q-18 0 -18 18t18 18t18 -18 t-18 -18zM180 1176q-18 0 -18 18t18 18t18 -18t-18 -18zM208 28q0 18 18 18t18 -18t-18 -18t-18 18zM350 12q-18 0 -18 18t18 18t18 -18t-18 -18zM410 12q-18 0 -18 18t18 18t18 -18t-18 -18zM472 12q-18 0 -18 18t18 18t18 -18t-18 -18zM542 12q-18 0 -18 18t18 18 q16 0 17 -18t-17 -18zM604 12q-18 0 -18 18t18 18t18 -18t-18 -18zM674 12q-18 0 -18 18t18 18t18 -18t-18 -18zM802 12q-18 0 -18 18t18 18t18 -18t-18 -18zM738 12q-18 0 -18 18t18 18t18 -18t-18 -18zM286 12q-18 0 -18 18t18 18t18 -18t-18 -18z" />
<glyph unicode="[" horiz-adv-x="520" d="M172 1138q0 18 18 18t18 -18t-18 -18t-18 18zM172 1078q0 18 18 18t18 -18t-18 -18t-18 18zM172 1016q0 18 18 18t18 -18t-18 -18t-18 18zM172 946q0 18 18 18t18 -18t-18 -18t-18 18zM172 872q0 18 18 18t18 -18t-18 -18t-18 18zM172 802q0 18 18 18t18 -18t-18 -18 t-18 18zM172 674q0 18 18 18t18 -18t-18 -18t-18 18zM172 614q0 18 18 18t18 -18t-18 -18t-18 18zM172 552q0 18 18 18t18 -18t-18 -18t-18 18zM172 482q0 18 18 18t18 -18t-18 -18t-18 18zM172 412q0 18 18 18t18 -18t-18 -18t-18 18zM172 342q0 18 18 18t18 -18t-18 -18 t-18 18zM172 738q0 18 18 18t18 -18t-18 -18t-18 18zM172 200q0 18 18 18t18 -18t-18 -18t-18 18zM172 140q0 18 18 18t18 -18t-18 -18t-18 18zM172 -46q0 18 18 18t18 -18t-18 -18t-18 18zM170 -104q0 18 18 18t18 -18t-18 -18t-18 18zM172 264q0 18 18 18t18 -18t-18 -18 t-18 18zM172 1310q0 18 18 18t18 -18t-18 -18t-18 18zM314 1296q-18 0 -18 18t18 18t18 -18t-18 -18zM374 1296q-18 0 -18 18t18 18t18 -18t-18 -18zM250 1296q-18 0 -18 18t18 18t18 -18t-18 -18zM312 -122q-18 0 -18 18t18 18t18 -18t-18 -18zM372 -122q-18 0 -18 18 t18 18t18 -18t-18 -18zM248 -122q-18 0 -18 18t18 18t18 -18t-18 -18zM172 1260q0 18 18 18t18 -18t-18 -18t-18 18zM172 1200q0 18 18 18t18 -18t-18 -18t-18 18zM172 76q0 18 18 18t18 -18t-18 -18t-18 18zM172 16q0 18 18 18t18 -18t-18 -18t-18 18z" />
<glyph unicode="\" horiz-adv-x="774" d="M178 1056q6 -16 -10 -24q-16 -6 -24 8q-4 8 0 14t8 10q14 8 26 -8zM202 1002q4 -18 -8 -26q-14 -6 -26 10q-6 18 10 24t24 -8zM226 944q4 -8 1 -14t-9 -10q-16 -6 -24 8q-6 18 8 26q16 6 24 -10zM254 880q8 -18 -8 -24q-18 -6 -24 10q-8 14 10 22q6 4 13 2t9 -10z M286 814q4 -16 -12 -26q-16 -8 -22 10q-6 16 8 24q8 4 15 0t11 -8zM312 748q10 -16 -8 -24q-16 -6 -24 8q-6 16 8 26q18 6 24 -10zM364 630q8 -18 -8 -24q-18 -4 -24 12q-4 4 -1 12t9 10q18 6 24 -10zM390 576q6 -16 -10 -24q-18 -6 -24 10q-8 16 8 22q16 10 26 -8zM414 520 q4 -8 0 -15t-8 -9q-16 -6 -26 10q-4 6 0 13t10 9q16 6 24 -8zM442 454q8 -16 -10 -22q-6 -4 -13 -2t-9 10q-6 18 8 26q6 2 13 -1t11 -11zM470 392q6 -16 -8 -24t-26 8q-6 16 10 24q16 6 24 -8zM498 326q4 -6 1 -13t-11 -9q-6 -4 -13 -1t-9 11q-4 6 -1 13t9 9q18 6 24 -10z M340 690q4 -18 -12 -24q-16 -8 -22 10q-8 14 10 22q6 4 13 2t11 -10zM556 198q4 -8 0 -14t-8 -10q-8 -4 -15 -1t-11 9q-6 16 10 24q18 8 24 -8zM580 142q6 -18 -10 -24q-14 -6 -22 10q-12 16 8 24q16 6 24 -10zM606 86q6 -16 -10 -24q-8 -4 -14 -1t-10 9q-6 16 8 24 q16 10 26 -8zM630 34q6 -16 -8 -24q-16 -6 -26 10q-4 6 0 13t10 9q16 6 24 -8zM528 256q10 -16 -8 -24q-6 -4 -13 -1t-9 9q-6 18 8 26q6 4 13 0t9 -10zM150 1114q4 -6 2 -13t-10 -11q-6 -4 -13 -1t-9 11q-10 16 8 24q8 4 14 0t8 -10zM120 1170q4 -6 2 -13t-10 -11 q-6 -4 -13 -1t-9 11q-10 16 8 24q8 4 14 0t8 -10z" />
<glyph unicode="]" horiz-adv-x="552" d="M390 1138q0 -18 -18 -18t-18 18t18 18t18 -18zM390 1078q0 -18 -18 -18t-18 18t18 18t18 -18zM390 1016q0 -18 -18 -18t-18 18t18 18t18 -18zM390 946q0 -18 -18 -18t-18 18t18 18t18 -18zM390 872q0 -18 -18 -18t-18 18t18 18t18 -18zM390 802q0 -18 -18 -18t-18 18 t18 18t18 -18zM390 674q0 -18 -18 -18t-18 18t18 18t18 -18zM390 614q0 -18 -18 -18t-18 18t18 18t18 -18zM390 552q0 -18 -18 -18t-18 18t18 18t18 -18zM390 482q0 -18 -18 -18t-18 18t18 18t18 -18zM390 412q0 -18 -18 -18t-18 18t18 18t18 -18zM390 342q0 -18 -18 -18 t-18 18t18 18t18 -18zM390 738q0 -18 -18 -18t-18 18t18 18t18 -18zM390 200q0 -18 -18 -18t-18 18t18 18t18 -18zM390 140q0 -18 -18 -18t-18 18t18 18t18 -18zM390 -46q0 -18 -18 -18t-18 18t18 18t18 -18zM392 -104q0 -18 -18 -18t-18 18t18 18t18 -18zM390 264 q0 -18 -18 -18t-18 18t18 18t18 -18zM390 1310q0 -18 -18 -18t-18 18t18 18t18 -18zM248 1296q-18 0 -18 18t18 18t18 -18t-18 -18zM188 1296q-18 0 -18 18t18 18t18 -18t-18 -18zM312 1296q-18 0 -18 18t18 18t18 -18t-18 -18zM250 -122q-18 0 -18 18t18 18t18 -18t-18 -18 zM190 -122q-18 0 -18 18t18 18t18 -18t-18 -18zM314 -122q-18 0 -18 18t18 18t18 -18t-18 -18zM390 1260q0 -18 -18 -18t-18 18t18 18t18 -18zM390 1200q0 -18 -18 -18t-18 18t18 18t18 -18zM390 76q0 -18 -18 -18t-18 18t18 18t18 -18zM390 16q0 -18 -18 -18t-18 18t18 18 t18 -18z" />
<glyph unicode="^" horiz-adv-x="550" d="M208 682q12 16 26 6q16 -10 6 -26q-4 -4 -11 -6t-13 2q-12 8 -8 24zM180 630q6 16 24 8q14 -10 6 -26q-10 -16 -24 -6q-16 6 -6 24zM146 578q4 4 12 6t14 -2q16 -6 4 -22q-4 -8 -11 -10t-13 2q-16 10 -6 26zM110 518q12 12 24 6q6 -4 8 -11t-2 -13q-8 -14 -26 -8 q-12 12 -4 26zM236 732q8 16 22 10q20 -8 12 -22q-8 -20 -22 -12q-18 8 -12 24zM316 682q8 -14 -6 -24q-16 -10 -24 4q-10 14 4 26q14 10 26 -6zM346 632q14 -14 -2 -22q-16 -12 -26 2q-10 16 6 26q16 12 22 -6zM382 582q10 -14 -4 -28q-18 -8 -24 8q-14 16 4 24 q16 12 24 -4zM420 524q6 -6 4 -14t-6 -12q-16 -6 -26 6q-6 6 -4 13t10 11q4 4 11 2t11 -6zM280 732q6 -16 -12 -24q-14 -8 -22 12q-8 14 12 22q14 6 22 -10z" />
<glyph unicode="_" horiz-adv-x="756" d="M154 0q-18 0 -18 18t18 18t18 -18t-18 -18zM282 0q-18 0 -18 18t18 18t18 -18t-18 -18zM342 0q-18 0 -18 18t18 18t18 -18t-18 -18zM404 0q-18 0 -18 18t18 18t18 -18t-18 -18zM474 0q-18 0 -18 18t18 18t18 -18t-18 -18zM544 0q-18 0 -18 18t18 18t18 -18t-18 -18z M614 0q-18 0 -18 18t18 18t18 -18t-18 -18zM218 0q-18 0 -18 18t18 18t18 -18t-18 -18z" />
<glyph unicode="`" horiz-adv-x="448" d="M304 814q4 -4 3 -12t-7 -12q-4 -4 -12 -5t-12 7q-10 14 2 26q14 10 26 -4zM256 870q4 -4 4 -11t-8 -13q-12 -12 -24 2q-12 12 2 26q12 12 26 -4zM212 926q8 -14 -4 -26q-4 -4 -12 -3t-12 7q-12 8 0 24q6 4 15 3t13 -5zM170 974q6 -4 6 -12t-10 -12q-14 -10 -24 0 q-10 18 4 26q12 12 24 -2z" />
<glyph unicode="a" horiz-adv-x="896" d="M438 672q0 18 18 18t18 -18t-18 -18t-18 18zM496 666q0 18 18 18t18 -18t-18 -18t-18 18zM550 652q0 18 18 18t18 -18t-18 -18t-18 18zM600 620q0 18 18 18t18 -18t-18 -18t-18 18zM642 580q0 18 18 18t18 -18t-18 -18t-18 18zM688 538q0 18 18 18t18 -18t-18 -18t-18 18 zM726 244q20 -4 16 -20q-4 -20 -20 -16q-16 0 -16 20q4 16 20 16zM706 190q18 0 14 -18q0 -18 -20 -18q-16 4 -16 22q4 18 22 14zM668 144q18 -4 18 -18q-4 -18 -22 -18q-18 4 -14 20q0 20 18 16zM624 106q18 0 18 -20q-4 -16 -22 -16q-18 4 -14 22q0 18 18 14zM506 60 q6 0 11 -6t3 -14q2 -8 -4 -12t-14 -4q-16 0 -16 20q4 16 20 16zM438 52q20 -4 16 -20q-4 -18 -18 -18q-18 0 -18 20q2 14 20 18zM568 74q18 0 14 -20q0 -16 -18 -16q-18 4 -18 20q4 20 22 16zM160 342q0 -16 -18 -16t-18 18t18 18t18 -20zM412 668q0 -18 -20 -18 q-16 0 -16 18t18 18t18 -18zM352 652q-4 -18 -20 -18q-20 0 -16 18q0 18 18 18t18 -18zM294 616q0 -18 -18 -18t-18 20q0 16 18 16t18 -18zM252 578q0 -18 -20 -18q-16 0 -16 18t18 18t18 -18zM184 464q0 -18 -18 -18q-18 4 -18 20q4 20 20 16q20 0 16 -18zM168 398 q0 -16 -20 -16q-16 0 -16 18t18 18t18 -20zM212 524q0 -18 -18 -18t-18 18t18 18t18 -18zM148 302q20 0 20 -20q0 -16 -16 -16q-20 -4 -20 16q0 16 16 20zM156 244q18 -4 20 -18q0 -8 -5 -14t-13 -4q-18 -4 -18 16q-4 16 16 20zM178 188q18 4 22 -14q0 -18 -16 -22 q-20 0 -20 20q-4 16 14 16zM216 142q20 4 16 -16q4 -16 -14 -20q-18 0 -22 18q2 14 20 18zM258 102q18 4 18 -14q4 -18 -14 -22q-20 4 -22 18q0 8 5 14t13 4zM382 58q18 0 18 -16q0 -20 -16 -20q-8 0 -14 4t-4 12q0 20 16 20zM320 74q18 4 22 -16q0 -16 -20 -20 q-20 0 -16 16q-4 20 14 20zM736 544q0 18 18 18t18 -18t-18 -18t-18 18zM736 484q0 18 18 18t18 -18t-18 -18t-18 18zM736 422q0 18 18 18t18 -18t-18 -18t-18 18zM736 352q0 18 18 18t18 -18t-18 -18t-18 18zM736 278q0 18 18 18t18 -18t-18 -18t-18 18zM736 208 q0 18 18 18t18 -18t-18 -18t-18 18zM736 80q0 18 18 18t18 -18t-18 -18t-18 18zM736 20q0 18 18 18t18 -18t-18 -18t-18 18zM736 144q0 18 18 18t18 -18t-18 -18t-18 18zM736 674q0 18 18 18t18 -18t-18 -18t-18 18zM736 604q0 18 18 18t18 -18t-18 -18t-18 18z" />
<glyph unicode="b" horiz-adv-x="890" d="M148 1222q0 -18 -18 -18t-18 18t18 18t18 -18zM148 1162q0 -18 -18 -18t-18 18t18 18t18 -18zM148 1100q0 -18 -18 -18t-18 18t18 18t18 -18zM148 1030q0 -18 -18 -18t-18 18t18 18t18 -18zM148 956q0 -18 -18 -18t-18 18t18 18t18 -18zM148 886q0 -18 -18 -18t-18 18 t18 18t18 -18zM148 758q0 -18 -18 -18t-18 18t18 18t18 -18zM148 698q0 -18 -18 -18t-18 18t18 18t18 -18zM148 636q0 -18 -18 -18t-18 18t18 18t18 -18zM148 566q0 -18 -18 -18t-18 18t18 18t18 -18zM148 492q0 -18 -18 -18t-18 18t18 18t18 -18zM148 422q0 -18 -18 -18 t-18 18t18 18t18 -18zM148 822q0 -18 -18 -18t-18 18t18 18t18 -18zM148 280q0 -18 -18 -18t-18 18t18 18t18 -18zM148 220q0 -18 -18 -18t-18 18t18 18t18 -18zM148 158q0 -18 -18 -18t-18 18t18 18t18 -18zM148 88q0 -18 -18 -18t-18 18t18 18t18 -18zM148 14 q0 -18 -18 -18t-18 18t18 18t18 -18zM148 344q0 -18 -18 -18t-18 18t18 18t18 -18zM464 676q0 -18 -18 -18t-18 18t18 18t18 -18zM398 666q0 -18 -18 -18t-18 18t18 18t18 -18zM344 648q0 -18 -18 -18t-18 18t18 18t18 -18zM294 616q0 -18 -18 -18t-18 18t18 18t18 -18z M252 576q0 -18 -18 -18t-18 18t18 18t18 -18zM192 466q0 -18 -18 -18t-18 18t18 18t18 -18zM214 526q0 -18 -18 -18t-18 18t18 18t18 -18zM180 188q18 4 22 -14q0 -18 -16 -22q-20 0 -20 18q-4 18 14 18zM226 144q18 4 18 -16q4 -16 -14 -20q-18 0 -22 18q0 14 18 18z M270 106q18 4 18 -14q4 -18 -14 -22q-18 0 -22 16q0 20 18 20zM390 52q16 0 20 -16q0 -20 -16 -20q-8 0 -14 4t-4 12q-2 8 3 14t11 6zM456 52q18 -4 20 -18q0 -20 -18 -20q-14 0 -18 18q-4 16 16 20zM326 74q18 4 22 -16q0 -16 -18 -20q-18 0 -18 16q-4 20 14 20zM734 342 q0 20 18 20t18 -18t-18 -18t-18 16zM490 668q0 18 18 18t18 -18t-16 -18q-20 0 -20 18zM550 652q0 18 18 18t18 -18q4 -18 -16 -18q-16 0 -20 18zM608 616q0 18 18 18t18 -16q0 -20 -18 -20t-18 18zM650 578q0 18 18 18t18 -18t-16 -18q-20 0 -20 18zM710 464q-4 18 16 18 q16 4 20 -16q0 -16 -18 -20q-18 0 -18 18zM726 398q0 20 18 20t18 -18t-16 -18q-20 0 -20 16zM690 524q0 18 18 18t18 -18t-18 -18t-18 18zM746 302q16 -4 16 -20q0 -20 -20 -16q-16 0 -16 16q0 20 20 20zM738 244q20 -4 16 -20q0 -20 -18 -16q-8 -2 -13 4t-5 14q2 14 20 18 zM716 188q18 0 14 -16q0 -20 -20 -20q-16 4 -16 22q4 18 22 14zM678 142q18 -4 20 -18q-4 -18 -22 -18q-18 4 -14 20q-4 20 16 16zM636 102q8 2 13 -4t5 -14q-2 -14 -22 -18q-18 4 -14 22q0 18 18 14zM512 58q16 0 16 -20q2 -8 -4 -12t-14 -4q-16 0 -16 20q0 16 18 16z M574 74q18 0 14 -20q4 -16 -16 -16q-20 4 -20 20q4 20 22 16z" />
<glyph unicode="c" horiz-adv-x="848" d="M438 672q0 18 18 18t18 -18t-18 -18t-18 18zM496 666q0 18 18 18t18 -18t-18 -18t-18 18zM550 652q0 18 18 18t18 -18t-18 -18t-18 18zM600 620q0 18 18 18t18 -18t-18 -18t-18 18zM642 580q0 18 18 18t18 -18t-18 -18t-18 18zM680 526q0 18 18 18t18 -18t-18 -18t-18 18 zM726 244q20 -4 16 -20q-4 -20 -20 -16q-16 0 -16 20q4 16 20 16zM706 190q18 0 14 -18q0 -18 -20 -18q-16 4 -16 22q4 18 22 14zM668 144q18 -4 18 -18q-4 -18 -22 -18q-18 4 -14 20q0 20 18 16zM624 106q18 0 18 -20q-4 -16 -22 -16q-18 4 -14 22q0 18 18 14zM506 60 q6 0 11 -6t3 -14q2 -8 -4 -12t-14 -4q-16 0 -16 20q4 16 20 16zM438 52q20 -4 16 -20q-4 -18 -18 -18q-18 0 -18 20q2 14 20 18zM568 74q18 0 14 -20q0 -16 -18 -16q-18 4 -18 20q4 20 22 16zM160 342q0 -16 -18 -16t-18 18t18 18t18 -20zM412 668q0 -18 -20 -18 q-16 0 -16 18t18 18t18 -18zM352 652q-4 -18 -20 -18q-20 0 -16 18q0 18 18 18t18 -18zM294 616q0 -18 -18 -18t-18 20q0 16 18 16t18 -18zM252 578q0 -18 -20 -18q-16 0 -16 18t18 18t18 -18zM184 464q0 -18 -18 -18q-18 4 -18 20q4 20 20 16q20 0 16 -18zM168 398 q0 -16 -20 -16q-16 0 -16 18t18 18t18 -20zM212 524q0 -18 -18 -18t-18 18t18 18t18 -18zM148 302q20 0 20 -20q0 -16 -16 -16q-20 -4 -20 16q0 16 16 20zM156 244q18 -4 20 -18q0 -8 -5 -14t-13 -4q-18 -4 -18 16q-4 16 16 20zM178 188q18 4 22 -14q0 -18 -16 -22 q-20 0 -20 20q-4 16 14 16zM216 142q20 4 16 -16q4 -16 -14 -20q-18 0 -22 18q2 14 20 18zM258 102q18 4 18 -14q4 -18 -14 -22q-20 4 -22 18q0 8 5 14t13 4zM382 58q18 0 18 -16q0 -20 -16 -20q-8 0 -14 4t-4 12q0 20 16 20zM320 74q18 4 22 -16q0 -16 -20 -20 q-20 0 -16 16q-4 20 14 20z" />
<glyph unicode="d" horiz-adv-x="904" d="M734 1222q0 18 18 18t18 -18t-18 -18t-18 18zM734 1162q0 18 18 18t18 -18t-18 -18t-18 18zM734 1100q0 18 18 18t18 -18t-18 -18t-18 18zM734 1030q0 18 18 18t18 -18t-18 -18t-18 18zM734 956q0 18 18 18t18 -18t-18 -18t-18 18zM734 886q0 18 18 18t18 -18t-18 -18 t-18 18zM734 758q0 18 18 18t18 -18t-18 -18t-18 18zM734 698q0 18 18 18t18 -18t-18 -18t-18 18zM734 636q0 18 18 18t18 -18t-18 -18t-18 18zM734 566q0 18 18 18t18 -18t-18 -18t-18 18zM734 492q0 18 18 18t18 -18t-18 -18t-18 18zM734 422q0 18 18 18t18 -18t-18 -18 t-18 18zM734 822q0 18 18 18t18 -18t-18 -18t-18 18zM734 280q0 18 18 18t18 -18t-18 -18t-18 18zM734 220q0 18 18 18t18 -18t-18 -18t-18 18zM734 158q0 18 18 18t18 -18t-18 -18t-18 18zM734 88q0 18 18 18t18 -18t-18 -18t-18 18zM734 14q0 18 18 18t18 -18t-18 -18 t-18 18zM734 344q0 18 18 18t18 -18t-18 -18t-18 18zM426 676q0 18 18 18t18 -18t-18 -18t-18 18zM484 666q0 18 18 18t18 -18t-18 -18t-18 18zM538 652q0 18 18 18t18 -18t-18 -18t-18 18zM588 620q0 18 18 18t18 -18t-18 -18t-18 18zM630 580q0 18 18 18t18 -18t-18 -18 t-18 18zM690 466q0 18 18 18t18 -18t-18 -18t-18 18zM668 526q0 18 18 18t18 -18t-18 -18t-18 18zM702 188q18 0 14 -18q0 -18 -20 -18q-16 4 -16 22q4 18 22 14zM656 144q18 -4 18 -18q-4 -18 -22 -18q-18 4 -14 20q0 20 18 16zM612 106q18 0 18 -20q-4 -16 -22 -16 q-18 4 -14 22q0 18 18 14zM494 54q6 0 11 -6t3 -14q2 -8 -4 -12t-14 -4q-16 0 -16 20q4 16 20 16zM426 46q20 -4 16 -20q-4 -18 -18 -18q-18 0 -18 20q2 14 20 18zM556 68q18 0 14 -20q0 -16 -18 -16q-18 4 -18 20q4 20 22 16zM148 342q0 -16 -18 -16t-18 18t18 18t18 -20z M400 668q0 -18 -20 -18q-16 0 -16 18t18 18t18 -18zM340 652q-4 -18 -20 -18q-20 0 -16 18q0 18 18 18t18 -18zM282 616q0 -18 -18 -18t-18 20q0 16 18 16t18 -18zM240 578q0 -18 -20 -18q-16 0 -16 18t18 18t18 -18zM172 464q0 -18 -18 -18q-18 4 -18 20q4 20 20 16 q20 0 16 -18zM156 398q0 -16 -20 -16q-16 0 -16 18t18 18t18 -20zM200 524q0 -18 -18 -18t-18 18t18 18t18 -18zM136 302q20 0 20 -20q0 -16 -16 -16q-20 -4 -20 16q0 16 16 20zM144 244q18 -4 20 -18q0 -8 -5 -14t-13 -4q-18 -4 -18 16q-4 16 16 20zM166 188q18 4 22 -14 q0 -18 -16 -22q-20 0 -20 20q-4 16 14 16zM204 142q20 4 16 -16q4 -16 -14 -20q-18 0 -22 18q2 14 20 18zM246 102q18 4 18 -14q4 -18 -14 -22q-20 4 -22 18q0 8 5 14t13 4zM370 52q18 0 18 -16q0 -20 -16 -20q-8 0 -14 4t-4 12q0 20 16 20zM308 68q18 4 22 -16 q0 -16 -20 -20q-20 0 -16 16q-4 20 14 20z" />
<glyph unicode="e" horiz-adv-x="878" d="M720 344q0 18 18 18t18 -18t-18 -18t-18 18zM438 672q0 18 18 18t18 -18t-18 -18t-18 18zM496 666q0 18 18 18t18 -18t-18 -18t-18 18zM550 652q0 18 18 18t18 -18t-18 -18t-18 18zM600 620q0 18 18 18t18 -18t-18 -18t-18 18zM642 580q0 18 18 18t18 -18t-18 -18t-18 18 zM702 466q0 18 18 18t18 -18t-18 -18t-18 18zM718 400q0 18 18 18t18 -18t-18 -18t-18 18zM680 526q0 18 18 18t18 -18t-18 -18t-18 18zM682 364q16 -4 16 -20q0 -20 -20 -16q-16 0 -16 18t20 18zM622 364q20 -4 16 -20q-4 -20 -20 -16q-16 0 -16 20q4 16 20 16zM702 184 q18 0 14 -18q0 -18 -20 -18q-16 4 -16 22q4 18 22 14zM664 138q18 -4 18 -18q-4 -18 -22 -18q-18 4 -14 20q0 20 18 16zM620 100q18 0 18 -20q-4 -16 -22 -16q-18 4 -14 22q0 18 18 14zM506 60q6 0 11 -6t3 -14q2 -8 -4 -12t-14 -4q-16 0 -16 20q4 16 20 16zM438 52 q20 -4 16 -20q-4 -18 -18 -18q-18 0 -18 20q2 14 20 18zM568 74q18 0 14 -20q0 -16 -18 -16q-18 4 -18 20q4 20 22 16zM160 342q0 -16 -18 -16t-18 18t18 18t18 -20zM412 668q0 -18 -20 -18q-16 0 -16 18t18 18t18 -18zM352 652q-4 -18 -20 -18q-20 0 -16 18q0 18 18 18 t18 -18zM294 616q0 -18 -18 -18t-18 20q0 16 18 16t18 -18zM252 578q0 -18 -20 -18q-16 0 -16 18t18 18t18 -18zM184 464q0 -18 -18 -18q-18 4 -18 20q4 20 20 16q20 0 16 -18zM168 398q0 -16 -20 -16q-16 0 -16 18t18 18t18 -20zM212 524q0 -18 -18 -18t-18 18t18 18 t18 -18zM148 302q20 0 20 -20q0 -16 -16 -16q-20 -4 -20 16q0 16 16 20zM156 244q18 -4 20 -18q0 -8 -5 -14t-13 -4q-18 -4 -18 16q-4 16 16 20zM178 188q18 4 22 -14q0 -18 -16 -22q-20 0 -20 20q-4 16 14 16zM216 142q20 4 16 -16q4 -16 -14 -20q-18 0 -22 18q2 14 20 18z M258 102q18 4 18 -14q4 -18 -14 -22q-20 4 -22 18q0 8 5 14t13 4zM382 58q18 0 18 -16q0 -20 -16 -20q-8 0 -14 4t-4 12q0 20 16 20zM320 74q18 4 22 -16q0 -16 -20 -20q-20 0 -16 16q-4 20 14 20zM350 328q-18 0 -18 18t18 18t18 -18t-18 -18zM420 328q-18 0 -18 18t18 18 t18 -18t-18 -18zM548 328q-18 0 -18 18t18 18t18 -18t-18 -18zM484 328q-18 0 -18 18t18 18t18 -18t-18 -18zM272 328q-18 0 -18 18t18 18t18 -18t-18 -18zM208 328q-18 0 -18 18t18 18t18 -18t-18 -18zM742 230q18 0 14 -18q0 -18 -20 -18q-16 4 -16 22q4 18 22 14z" />
<glyph unicode="f" horiz-adv-x="884" d="M358 1078q0 18 18 18t18 -18t-18 -18t-18 18zM332 1014q0 18 18 18t18 -18t-18 -18t-18 18zM320 942q0 18 18 18t18 -18t-18 -18t-18 18zM312 872q0 18 18 18t18 -18t-18 -18t-18 18zM308 802q0 18 18 18t18 -18t-18 -18t-18 18zM308 674q0 18 18 18t18 -18t-18 -18 t-18 18zM308 614q0 18 18 18t18 -18t-18 -18t-18 18zM308 552q0 18 18 18t18 -18t-18 -18t-18 18zM308 482q0 18 18 18t18 -18t-18 -18t-18 18zM308 412q0 18 18 18t18 -18t-18 -18t-18 18zM308 342q0 18 18 18t18 -18t-18 -18t-18 18zM308 738q0 18 18 18t18 -18t-18 -18 t-18 18zM308 200q0 18 18 18t18 -18t-18 -18t-18 18zM308 140q0 18 18 18t18 -18t-18 -18t-18 18zM308 78q0 18 18 18t18 -18t-18 -18t-18 18zM306 20q0 18 18 18t18 -18t-18 -18t-18 18zM308 264q0 18 18 18t18 -18t-18 -18t-18 18zM690 628q-18 0 -18 18t18 18t18 -18 t-18 -18zM106 626q-18 0 -18 18t18 18t18 -18t-18 -18zM234 626q-18 0 -18 18t18 18t18 -18t-18 -18zM294 626q-18 0 -18 18t18 18t18 -18t-18 -18zM356 626q-18 0 -18 18t18 18t18 -18t-18 -18zM426 626q-18 0 -18 18t18 18t18 -18t-18 -18zM496 626q-18 0 -18 18t18 18 t18 -18t-18 -18zM566 626q-18 0 -18 18t18 18t18 -18t-18 -18zM170 626q-18 0 -18 18t18 18t18 -18t-18 -18zM634 626q-18 0 -18 18t18 18t18 -18t-18 -18zM396 1134q0 18 18 18t18 -18t-18 -18t-18 18zM444 1174q0 18 18 18t18 -18t-18 -18t-18 18zM500 1204q0 18 18 18 t18 -18t-18 -18t-18 18zM556 1214q0 18 18 18t18 -18t-18 -18t-18 18zM618 1206q0 18 18 18t18 -18t-18 -18t-18 18zM668 1170q0 18 18 18t18 -18t-18 -18t-18 18zM714 1122q0 18 18 18t18 -18t-18 -18t-18 18zM750 1068q0 18 18 18t18 -18t-18 -18t-18 18zM778 998 q0 18 18 18t18 -18t-18 -18t-18 18z" />
<glyph unicode="g" horiz-adv-x="872" d="M438 672q0 18 18 18t18 -18t-18 -18t-18 18zM496 666q0 18 18 18t18 -18t-18 -18t-18 18zM550 652q0 18 18 18t18 -18t-18 -18t-18 18zM600 620q0 18 18 18t18 -18t-18 -18t-18 18zM642 580q0 18 18 18t18 -18t-18 -18t-18 18zM688 538q0 18 18 18t18 -18t-18 -18t-18 18 zM726 244q20 -4 16 -20q-4 -20 -20 -16q-16 0 -16 20q4 16 20 16zM706 190q18 0 14 -18q0 -18 -20 -18q-16 4 -16 22q4 18 22 14zM668 144q18 -4 18 -18q-4 -18 -22 -18q-18 4 -14 20q0 20 18 16zM624 106q18 0 18 -20q-4 -16 -22 -16q-18 4 -14 22q0 18 18 14zM506 60 q6 0 11 -6t3 -14q2 -8 -4 -12t-14 -4q-16 0 -16 20q4 16 20 16zM438 52q20 -4 16 -20q-4 -18 -18 -18q-18 0 -18 20q2 14 20 18zM568 74q18 0 14 -20q0 -16 -18 -16q-18 4 -18 20q4 20 22 16zM160 342q0 -16 -18 -16t-18 18t18 18t18 -20zM412 668q0 -18 -20 -18 q-16 0 -16 18t18 18t18 -18zM352 652q-4 -18 -20 -18q-20 0 -16 18q0 18 18 18t18 -18zM294 616q0 -18 -18 -18t-18 20q0 16 18 16t18 -18zM252 578q0 -18 -20 -18q-16 0 -16 18t18 18t18 -18zM184 464q0 -18 -18 -18q-18 4 -18 20q4 20 20 16q20 0 16 -18zM168 398 q0 -16 -20 -16q-16 0 -16 18t18 18t18 -20zM212 524q0 -18 -18 -18t-18 18t18 18t18 -18zM148 302q20 0 20 -20q0 -16 -16 -16q-20 -4 -20 16q0 16 16 20zM156 244q18 -4 20 -18q0 -8 -5 -14t-13 -4q-18 -4 -18 16q-4 16 16 20zM178 188q18 4 22 -14q0 -18 -16 -22 q-20 0 -20 20q-4 16 14 16zM216 142q20 4 16 -16q4 -16 -14 -20q-18 0 -22 18q2 14 20 18zM258 102q18 4 18 -14q4 -18 -14 -22q-20 4 -22 18q0 8 5 14t13 4zM382 58q18 0 18 -16q0 -20 -16 -20q-8 0 -14 4t-4 12q0 20 16 20zM320 74q18 4 22 -16q0 -16 -20 -20 q-20 0 -16 16q-4 20 14 20zM736 544q0 18 18 18t18 -18t-18 -18t-18 18zM736 484q0 18 18 18t18 -18t-18 -18t-18 18zM736 422q0 18 18 18t18 -18t-18 -18t-18 18zM736 352q0 18 18 18t18 -18t-18 -18t-18 18zM736 278q0 18 18 18t18 -18t-18 -18t-18 18zM736 208 q0 18 18 18t18 -18t-18 -18t-18 18zM736 80q0 18 18 18t18 -18t-18 -18t-18 18zM736 20q0 18 18 18t18 -18t-18 -18t-18 18zM736 144q0 18 18 18t18 -18t-18 -18t-18 18zM736 674q0 18 18 18t18 -18t-18 -18t-18 18zM736 604q0 18 18 18t18 -18t-18 -18t-18 18zM744 -176 q0 -16 -16 -20q-20 0 -20 16q-4 16 16 20q16 0 20 -16zM762 -110q4 -16 -16 -20q-18 0 -18 16q-4 20 16 20q18 4 18 -16zM770 -44q0 -18 -16 -18q-20 -4 -20 16q0 18 16 18q16 4 20 -16zM710 -236q4 -16 -16 -20q-18 0 -18 16q-4 20 16 20q18 4 18 -16zM668 -280 q0 -16 -18 -20q-6 0 -12 4t-6 12q-4 16 16 20q16 0 20 -16zM614 -316q4 -16 -16 -20q-16 0 -20 16q0 20 16 20q20 4 20 -16zM560 -330q0 -20 -16 -20q-20 -4 -20 16q-4 16 16 20q16 0 20 -16zM332 -328q0 -18 -18 -18q-18 -4 -18 16q-4 16 16 20q16 0 20 -18zM278 -298 q0 -16 -16 -20q-20 0 -20 16q-4 20 16 20q16 0 20 -16zM232 -260q0 -20 -16 -20q-20 -4 -20 16q-4 16 16 20q16 0 20 -16zM188 -214q4 -20 -16 -20q-16 -4 -20 16q0 16 16 20q20 0 20 -16zM152 -172q0 -16 -16 -20q-20 0 -20 16q-4 20 16 20q16 4 20 -16zM354 -342 q0 18 18 18t18 -18t-18 -18t-18 18zM410 -344q0 18 18 18t18 -18t-18 -18t-18 18zM462 -342q0 18 18 18t18 -18t-18 -18t-18 18z" />
<glyph unicode="h" horiz-adv-x="834" d="M122 1134q0 18 18 18t18 -18t-18 -18t-18 18zM122 1074q0 18 18 18t18 -18t-18 -18t-18 18zM122 1012q0 18 18 18t18 -18t-18 -18t-18 18zM122 942q0 18 18 18t18 -18t-18 -18t-18 18zM122 868q0 18 18 18t18 -18t-18 -18t-18 18zM122 798q0 18 18 18t18 -18t-18 -18 t-18 18zM122 1198q0 18 18 18t18 -18t-18 -18t-18 18zM122 670q0 18 18 18t18 -18t-18 -18t-18 18zM122 610q0 18 18 18t18 -18t-18 -18t-18 18zM122 548q0 18 18 18t18 -18t-18 -18t-18 18zM122 478q0 18 18 18t18 -18t-18 -18t-18 18zM122 408q0 18 18 18t18 -18t-18 -18 t-18 18zM122 338q0 18 18 18t18 -18t-18 -18t-18 18zM122 734q0 18 18 18t18 -18t-18 -18t-18 18zM122 196q0 18 18 18t18 -18t-18 -18t-18 18zM122 136q0 18 18 18t18 -18t-18 -18t-18 18zM122 74q0 18 18 18t18 -18t-18 -18t-18 18zM120 16q0 18 18 18t18 -18t-18 -18 t-18 18zM172 522q0 18 18 18t18 -18t-18 -18t-18 18zM122 260q0 18 18 18t18 -18t-18 -18t-18 18zM406 678q0 18 18 18t18 -18t-18 -18t-18 18zM460 678q0 18 18 18t18 -18t-18 -18t-18 18zM518 666q0 18 18 18t18 -18t-18 -18t-18 18zM568 634q0 18 18 18t18 -18t-18 -18 t-18 18zM610 594q0 18 18 18t18 -18t-18 -18t-18 18zM356 664q0 18 18 18t18 -18t-18 -18t-18 18zM310 638q0 18 18 18t18 -18t-18 -18t-18 18zM260 610q0 18 18 18t18 -18t-18 -18t-18 18zM216 568q0 18 18 18t18 -18t-18 -18t-18 18zM654 480q0 18 18 18t18 -18t-18 -18 t-18 18zM668 414q0 18 18 18t18 -18t-18 -18t-18 18zM638 540q0 18 18 18t18 -18t-18 -18t-18 18zM674 282q0 18 18 18t18 -18t-18 -18t-18 18zM674 222q0 18 18 18t18 -18t-18 -18t-18 18zM674 160q0 18 18 18t18 -18t-18 -18t-18 18zM674 90q0 18 18 18t18 -18t-18 -18 t-18 18zM674 16q0 18 18 18t18 -18t-18 -18t-18 18zM674 346q0 18 18 18t18 -18t-18 -18t-18 18z" />
<glyph unicode="i" horiz-adv-x="388" d="M168 830q0 12 9 21t21 9t20 -9t8 -21q0 -28 -28 -28q-12 0 -21 8t-9 20zM182 338q0 18 18 18t18 -18t-18 -18t-18 18zM182 260q0 18 18 18t18 -18t-18 -18t-18 18zM180 16q0 18 18 18t18 -18t-18 -18t-18 18zM182 74q0 18 18 18t18 -18t-18 -18t-18 18zM182 136 q0 18 18 18t18 -18t-18 -18t-18 18zM182 196q0 18 18 18t18 -18t-18 -18t-18 18zM182 552q0 18 18 18t18 -18t-18 -18t-18 18zM182 408q0 18 18 18t18 -18t-18 -18t-18 18zM182 482q0 18 18 18t18 -18t-18 -18t-18 18zM182 674q0 18 18 18t18 -18t-18 -18t-18 18zM182 614 q0 18 18 18t18 -18t-18 -18t-18 18z" />
<glyph unicode="j" horiz-adv-x="358" d="M122 -294q0 -18 -18 -18t-18 18t18 18t18 -18zM156 -244q0 -18 -18 -18t-18 18t18 18t18 -18zM176 -188q0 -18 -18 -18t-18 18t18 18t18 -18zM198 -60q0 -18 -18 -18t-18 18t18 18t18 -18zM198 0q0 -18 -18 -18t-18 18t18 18t18 -18zM198 62q0 -18 -18 -18t-18 18t18 18 t18 -18zM198 132q0 -18 -18 -18t-18 18t18 18t18 -18zM198 206q0 -18 -18 -18t-18 18t18 18t18 -18zM198 276q0 -18 -18 -18t-18 18t18 18t18 -18zM190 -124q0 -18 -18 -18t-18 18t18 18t18 -18zM198 418q0 -18 -18 -18t-18 18t18 18t18 -18zM198 478q0 -18 -18 -18t-18 18 t18 18t18 -18zM198 540q0 -18 -18 -18t-18 18t18 18t18 -18zM198 610q0 -18 -18 -18t-18 18t18 18t18 -18zM198 684q0 -18 -18 -18t-18 18t18 18t18 -18zM198 354q0 -18 -18 -18t-18 18t18 18t18 -18zM-52 -334q0 -18 -18 -18t-18 18t18 18t18 -18zM10 -336q0 -18 -18 -18 t-18 18t18 18t18 -18zM72 -322q0 -18 -18 -18t-18 18t18 18t18 -18zM-162 -286q0 -18 -18 -18t-18 18t18 18t18 -18zM-110 -322q0 -18 -18 -18t-18 18t18 18t18 -18zM198 684q0 -18 -18 -18t-18 18t18 18t18 -18zM148 830q0 12 9 21t21 9t20 -9t8 -21q0 -28 -28 -28 q-12 0 -21 8t-9 20z" />
<glyph unicode="k" horiz-adv-x="808" d="M142 1134q0 18 18 18t18 -18t-18 -18t-18 18zM142 1074q0 18 18 18t18 -18t-18 -18t-18 18zM142 1012q0 18 18 18t18 -18t-18 -18t-18 18zM142 942q0 18 18 18t18 -18t-18 -18t-18 18zM142 868q0 18 18 18t18 -18t-18 -18t-18 18zM142 798q0 18 18 18t18 -18t-18 -18 t-18 18zM142 1198q0 18 18 18t18 -18t-18 -18t-18 18zM142 670q0 18 18 18t18 -18t-18 -18t-18 18zM142 610q0 18 18 18t18 -18t-18 -18t-18 18zM142 548q0 18 18 18t18 -18t-18 -18t-18 18zM142 478q0 18 18 18t18 -18t-18 -18t-18 18zM142 408q0 18 18 18t18 -18t-18 -18 t-18 18zM142 338q0 18 18 18t18 -18t-18 -18t-18 18zM142 734q0 18 18 18t18 -18t-18 -18t-18 18zM142 196q0 18 18 18t18 -18t-18 -18t-18 18zM142 136q0 18 18 18t18 -18t-18 -18t-18 18zM142 74q0 18 18 18t18 -18t-18 -18t-18 18zM140 16q0 18 18 18t18 -18t-18 -18 t-18 18zM142 260q0 18 18 18t18 -18t-18 -18t-18 18zM720 40q10 -12 -4 -26q-18 -4 -26 6q-8 18 6 26q18 10 24 -6zM690 92q2 -8 1 -15t-7 -9q-14 -10 -26 2q-10 18 6 26q12 10 26 -4zM656 144q4 -6 3 -13t-11 -11q-4 -6 -12 -4t-12 6q-6 18 6 26q14 12 26 -4zM620 202 q2 -4 1 -12t-9 -12q-6 -6 -13 -3t-11 7q-10 18 6 26q6 6 13 3t13 -9zM578 264q8 -16 -4 -24q-8 -4 -15 -3t-9 9q-10 10 2 26q20 8 26 -8zM542 324q10 -12 -6 -24q-18 -10 -26 6q-10 12 6 24q16 8 26 -6zM474 432q4 -16 -8 -26q-4 -4 -12 -2t-12 10q-8 12 6 26q16 8 26 -8z M440 482q10 -14 -6 -26q-4 -2 -12 -1t-12 9q-4 6 -2 13t6 11q18 10 26 -6zM598 738q4 6 12 5t12 -5q12 -14 0 -26q-16 -12 -26 2q-12 12 2 24zM546 692q12 12 24 -2q6 -4 5 -12t-5 -12q-6 -6 -14 -5t-12 5q-12 16 2 26zM494 646q12 12 24 -2q12 -12 0 -26q-16 -12 -26 2 t2 26zM442 598q4 6 12 5t12 -5q12 -14 0 -26q-16 -12 -26 2q-6 4 -5 12t7 12zM506 378q10 -12 -4 -26q-20 -8 -24 8q-10 12 4 26q6 2 13 1t11 -9zM336 504q12 12 24 -2q12 -12 0 -26q-16 -12 -26 2q-12 16 2 26zM290 464q16 12 26 -2t-2 -26t-24 2q-6 6 -5 14t5 12zM244 422 q6 6 14 5t12 -5q12 -16 -2 -26q-12 -12 -26 2q-12 12 2 24zM200 386q14 10 26 -2q10 -14 -2 -26q-14 -10 -26 2q-10 14 2 26zM382 546q6 6 14 5t12 -5q14 -14 -2 -26q-12 -12 -24 2q-6 4 -5 12t5 12z" />
<glyph unicode="l" horiz-adv-x="372" d="M172 1138q0 18 18 18t18 -18t-18 -18t-18 18zM172 1078q0 18 18 18t18 -18t-18 -18t-18 18zM172 1016q0 18 18 18t18 -18t-18 -18t-18 18zM172 946q0 18 18 18t18 -18t-18 -18t-18 18zM172 872q0 18 18 18t18 -18t-18 -18t-18 18zM172 802q0 18 18 18t18 -18t-18 -18 t-18 18zM172 674q0 18 18 18t18 -18t-18 -18t-18 18zM172 614q0 18 18 18t18 -18t-18 -18t-18 18zM172 552q0 18 18 18t18 -18t-18 -18t-18 18zM172 482q0 18 18 18t18 -18t-18 -18t-18 18zM172 412q0 18 18 18t18 -18t-18 -18t-18 18zM172 342q0 18 18 18t18 -18t-18 -18 t-18 18zM172 738q0 18 18 18t18 -18t-18 -18t-18 18zM172 200q0 18 18 18t18 -18t-18 -18t-18 18zM172 140q0 18 18 18t18 -18t-18 -18t-18 18zM172 78q0 18 18 18t18 -18t-18 -18t-18 18zM170 20q0 18 18 18t18 -18t-18 -18t-18 18zM172 264q0 18 18 18t18 -18t-18 -18 t-18 18zM172 1202q0 18 18 18t18 -18t-18 -18t-18 18z" />
<glyph unicode="m" horiz-adv-x="1286" d="M122 670q0 18 18 18t18 -18t-18 -18t-18 18zM122 610q0 18 18 18t18 -18t-18 -18t-18 18zM122 548q0 18 18 18t18 -18t-18 -18t-18 18zM122 478q0 18 18 18t18 -18t-18 -18t-18 18zM122 408q0 18 18 18t18 -18t-18 -18t-18 18zM122 338q0 18 18 18t18 -18t-18 -18t-18 18 zM122 196q0 18 18 18t18 -18t-18 -18t-18 18zM122 136q0 18 18 18t18 -18t-18 -18t-18 18zM122 74q0 18 18 18t18 -18t-18 -18t-18 18zM120 16q0 18 18 18t18 -18t-18 -18t-18 18zM172 522q0 18 18 18t18 -18t-18 -18t-18 18zM122 260q0 18 18 18t18 -18t-18 -18t-18 18z M406 678q0 18 18 18t18 -18t-18 -18t-18 18zM460 678q0 18 18 18t18 -18t-18 -18t-18 18zM518 666q0 18 18 18t18 -18t-18 -18t-18 18zM568 634q0 18 18 18t18 -18t-18 -18t-18 18zM610 594q0 18 18 18t18 -18t-18 -18t-18 18zM356 664q0 18 18 18t18 -18t-18 -18t-18 18z M310 638q0 18 18 18t18 -18t-18 -18t-18 18zM260 610q0 18 18 18t18 -18t-18 -18t-18 18zM216 568q0 18 18 18t18 -18t-18 -18t-18 18zM652 480q0 18 18 18t18 -18t-18 -18t-18 18zM666 414q0 18 18 18t18 -18t-18 -18t-18 18zM638 540q0 18 18 18t18 -18t-18 -18t-18 18z M672 282q0 18 18 18t18 -18t-18 -18t-18 18zM672 222q0 18 18 18t18 -18t-18 -18t-18 18zM672 160q0 18 18 18t18 -18t-18 -18t-18 18zM672 90q0 18 18 18t18 -18t-18 -18t-18 18zM672 16q0 18 18 18t18 -18t-18 -18t-18 18zM672 346q0 18 18 18t18 -18t-18 -18t-18 18z M878 678q0 18 18 18t18 -18t-18 -18t-18 18zM932 678q0 18 18 18t18 -18t-18 -18t-18 18zM990 666q0 18 18 18t18 -18t-18 -18t-18 18zM1040 634q0 18 18 18t18 -18t-18 -18t-18 18zM1082 594q0 18 18 18t18 -18t-18 -18t-18 18zM828 664q0 18 18 18t18 -18t-18 -18t-18 18z M782 638q0 18 18 18t18 -18t-18 -18t-18 18zM732 610q0 18 18 18t18 -18t-18 -18t-18 18zM688 568q0 18 18 18t18 -18t-18 -18t-18 18zM1126 480q0 18 18 18t18 -18t-18 -18t-18 18zM1140 414q0 18 18 18t18 -18t-18 -18t-18 18zM1110 540q0 18 18 18t18 -18t-18 -18t-18 18 zM1146 282q0 18 18 18t18 -18t-18 -18t-18 18zM1146 222q0 18 18 18t18 -18t-18 -18t-18 18zM1146 160q0 18 18 18t18 -18t-18 -18t-18 18zM1146 90q0 18 18 18t18 -18t-18 -18t-18 18zM1146 16q0 18 18 18t18 -18t-18 -18t-18 18zM1146 346q0 18 18 18t18 -18t-18 -18 t-18 18z" />
<glyph unicode="n" horiz-adv-x="834" d="M122 670q0 18 18 18t18 -18t-18 -18t-18 18zM122 610q0 18 18 18t18 -18t-18 -18t-18 18zM122 548q0 18 18 18t18 -18t-18 -18t-18 18zM122 478q0 18 18 18t18 -18t-18 -18t-18 18zM122 408q0 18 18 18t18 -18t-18 -18t-18 18zM122 338q0 18 18 18t18 -18t-18 -18t-18 18 zM122 196q0 18 18 18t18 -18t-18 -18t-18 18zM122 136q0 18 18 18t18 -18t-18 -18t-18 18zM122 74q0 18 18 18t18 -18t-18 -18t-18 18zM120 16q0 18 18 18t18 -18t-18 -18t-18 18zM172 522q0 18 18 18t18 -18t-18 -18t-18 18zM122 260q0 18 18 18t18 -18t-18 -18t-18 18z M406 678q0 18 18 18t18 -18t-18 -18t-18 18zM460 678q0 18 18 18t18 -18t-18 -18t-18 18zM518 666q0 18 18 18t18 -18t-18 -18t-18 18zM568 634q0 18 18 18t18 -18t-18 -18t-18 18zM610 594q0 18 18 18t18 -18t-18 -18t-18 18zM356 664q0 18 18 18t18 -18t-18 -18t-18 18z M310 638q0 18 18 18t18 -18t-18 -18t-18 18zM260 610q0 18 18 18t18 -18t-18 -18t-18 18zM216 568q0 18 18 18t18 -18t-18 -18t-18 18zM654 480q0 18 18 18t18 -18t-18 -18t-18 18zM668 414q0 18 18 18t18 -18t-18 -18t-18 18zM638 540q0 18 18 18t18 -18t-18 -18t-18 18z M674 282q0 18 18 18t18 -18t-18 -18t-18 18zM674 222q0 18 18 18t18 -18t-18 -18t-18 18zM674 160q0 18 18 18t18 -18t-18 -18t-18 18zM674 90q0 18 18 18t18 -18t-18 -18t-18 18zM674 16q0 18 18 18t18 -18t-18 -18t-18 18zM674 346q0 18 18 18t18 -18t-18 -18t-18 18z" />
<glyph unicode="o" d="M724 342q0 18 18 18t18 -18t-18 -18t-18 18zM438 672q0 18 18 18t18 -18t-18 -18t-18 18zM496 666q0 18 18 18t18 -18t-18 -18t-18 18zM550 652q0 18 18 18t18 -18t-18 -18t-18 18zM600 620q0 18 18 18t18 -18t-18 -18t-18 18zM642 580q0 18 18 18t18 -18t-18 -18t-18 18 zM702 466q0 18 18 18t18 -18t-18 -18t-18 18zM718 400q0 18 18 18t18 -18t-18 -18t-18 18zM680 526q0 18 18 18t18 -18t-18 -18t-18 18zM734 302q16 -4 16 -20q0 -20 -20 -16q-16 0 -16 18t20 18zM726 244q20 -4 16 -20q-4 -20 -20 -16q-16 0 -16 20q4 16 20 16zM706 190 q18 0 14 -18q0 -18 -20 -18q-16 4 -16 22q4 18 22 14zM668 144q18 -4 18 -18q-4 -18 -22 -18q-18 4 -14 20q0 20 18 16zM624 106q18 0 18 -20q-4 -16 -22 -16q-18 4 -14 22q0 18 18 14zM506 60q6 0 11 -6t3 -14q2 -8 -4 -12t-14 -4q-16 0 -16 20q4 16 20 16zM438 52 q20 -4 16 -20q-4 -18 -18 -18q-18 0 -18 20q2 14 20 18zM568 74q18 0 14 -20q0 -16 -18 -16q-18 4 -18 20q4 20 22 16zM160 342q0 -16 -18 -16t-18 18t18 18t18 -20zM412 668q0 -18 -20 -18q-16 0 -16 18t18 18t18 -18zM352 652q-4 -18 -20 -18q-20 0 -16 18q0 18 18 18 t18 -18zM294 616q0 -18 -18 -18t-18 20q0 16 18 16t18 -18zM252 578q0 -18 -20 -18q-16 0 -16 18t18 18t18 -18zM184 464q0 -18 -18 -18q-18 4 -18 20q4 20 20 16q20 0 16 -18zM168 398q0 -16 -20 -16q-16 0 -16 18t18 18t18 -20zM212 524q0 -18 -18 -18t-18 18t18 18 t18 -18zM148 302q20 0 20 -20q0 -16 -16 -16q-20 -4 -20 16q0 16 16 20zM156 244q18 -4 20 -18q0 -8 -5 -14t-13 -4q-18 -4 -18 16q-4 16 16 20zM178 188q18 4 22 -14q0 -18 -16 -22q-20 0 -20 20q-4 16 14 16zM216 142q20 4 16 -16q4 -16 -14 -20q-18 0 -22 18q2 14 20 18z M258 102q18 4 18 -14q4 -18 -14 -22q-20 4 -22 18q0 8 5 14t13 4zM382 58q18 0 18 -16q0 -20 -16 -20q-8 0 -14 4t-4 12q0 20 16 20zM320 74q18 4 22 -16q0 -16 -20 -20q-20 0 -16 16q-4 20 14 20z" />
<glyph unicode="p" horiz-adv-x="894" d="M156 -332q0 -18 -18 -18t-18 18t18 18t18 -18zM156 -258q0 -18 -18 -18t-18 18t18 18t18 -18zM156 -188q0 -18 -18 -18t-18 18t18 18t18 -18zM156 -60q0 -18 -18 -18t-18 18t18 18t18 -18zM156 0q0 -18 -18 -18t-18 18t18 18t18 -18zM156 62q0 -18 -18 -18t-18 18t18 18 t18 -18zM156 132q0 -18 -18 -18t-18 18t18 18t18 -18zM156 206q0 -18 -18 -18t-18 18t18 18t18 -18zM156 276q0 -18 -18 -18t-18 18t18 18t18 -18zM156 -124q0 -18 -18 -18t-18 18t18 18t18 -18zM156 418q0 -18 -18 -18t-18 18t18 18t18 -18zM156 478q0 -18 -18 -18t-18 18 t18 18t18 -18zM156 540q0 -18 -18 -18t-18 18t18 18t18 -18zM156 610q0 -18 -18 -18t-18 18t18 18t18 -18zM156 684q0 -18 -18 -18t-18 18t18 18t18 -18zM156 354q0 -18 -18 -18t-18 18t18 18t18 -18zM464 26q0 -18 -18 -18t-18 18t18 18t18 -18zM406 32q0 -18 -18 -18 t-18 18t18 18t18 -18zM352 46q0 -18 -18 -18t-18 18t18 18t18 -18zM302 78q0 -18 -18 -18t-18 18t18 18t18 -18zM260 118q0 -18 -18 -18t-18 18t18 18t18 -18zM200 232q0 -18 -18 -18t-18 18t18 18t18 -18zM222 172q0 -18 -18 -18t-18 18t18 18t18 -18zM188 510 q-18 0 -14 18q0 18 20 18q16 -4 16 -22q-4 -18 -22 -14zM234 554q-18 4 -18 18q4 18 22 18q18 -4 14 -20q0 -20 -18 -16zM278 592q-18 0 -18 20q4 16 22 16q18 -4 14 -22q0 -18 -18 -14zM396 644q-6 0 -11 6t-3 14q-2 8 4 12t14 4q16 0 16 -20q-4 -16 -20 -16zM464 652 q-20 4 -16 20q4 18 18 18q18 0 18 -20q-2 -14 -20 -18zM334 624q-18 0 -14 20q0 16 18 16q18 -4 18 -14q-2 -8 -8 -16t-14 -6zM742 356q0 16 18 16t18 -18t-18 -18t-18 20zM490 30q0 18 20 18q16 0 16 -18t-18 -18t-18 18zM550 46q4 18 20 18q20 0 16 -18q0 -18 -18 -18 t-18 18zM608 82q0 18 18 18t18 -20q0 -16 -18 -16t-18 18zM650 120q0 18 20 18q16 0 16 -18t-18 -18t-18 18zM718 234q0 18 18 18q18 -4 18 -20q-4 -20 -20 -16q-20 0 -16 18zM734 300q0 16 20 16q16 0 16 -18t-18 -18t-18 20zM690 174q0 18 18 18t18 -18t-18 -18t-18 18z M754 396q-20 0 -20 20q0 16 16 16q20 4 20 -16q0 -16 -16 -20zM746 454q-18 4 -20 18q0 8 5 14t13 4q18 4 18 -16q4 -16 -16 -20zM724 510q-18 -4 -22 14q0 18 16 22q20 0 20 -20q4 -16 -14 -16zM686 556q-20 -4 -16 16q-4 16 14 20q18 0 22 -18q-2 -14 -20 -18zM644 596 q-18 -4 -18 14q-4 18 14 22q20 -4 22 -18q0 -8 -5 -14t-13 -4zM520 646q-18 0 -18 16q0 20 16 20q8 0 14 -4t4 -12q0 -20 -16 -20zM582 624q-18 -4 -22 16q0 16 20 20q20 0 16 -16q4 -20 -14 -20z" />
<glyph unicode="q" horiz-adv-x="924" d="M792 -298q0 18 18 18t18 -18t-18 -18t-18 18zM764 -248q0 18 18 18t18 -18t-18 -18t-18 18zM748 -192q0 18 18 18t18 -18t-18 -18t-18 18zM742 -60q0 18 18 18t18 -18t-18 -18t-18 18zM742 0q0 18 18 18t18 -18t-18 -18t-18 18zM742 62q0 18 18 18t18 -18t-18 -18t-18 18 zM742 132q0 18 18 18t18 -18t-18 -18t-18 18zM742 206q0 18 18 18t18 -18t-18 -18t-18 18zM742 276q0 18 18 18t18 -18t-18 -18t-18 18zM742 -124q0 18 18 18t18 -18t-18 -18t-18 18zM742 418q0 18 18 18t18 -18t-18 -18t-18 18zM742 478q0 18 18 18t18 -18t-18 -18t-18 18z M742 540q0 18 18 18t18 -18t-18 -18t-18 18zM742 610q0 18 18 18t18 -18t-18 -18t-18 18zM742 684q0 18 18 18t18 -18t-18 -18t-18 18zM742 354q0 18 18 18t18 -18t-18 -18t-18 18zM434 26q0 18 18 18t18 -18t-18 -18t-18 18zM492 32q0 18 18 18t18 -18t-18 -18t-18 18z M546 46q0 18 18 18t18 -18t-18 -18t-18 18zM596 78q0 18 18 18t18 -18t-18 -18t-18 18zM638 118q0 18 18 18t18 -18t-18 -18t-18 18zM698 232q0 18 18 18t18 -18t-18 -18t-18 18zM676 172q0 18 18 18t18 -18t-18 -18t-18 18zM710 510q-18 -4 -22 14q0 18 16 22q20 0 20 -18 q4 -18 -14 -18zM664 554q-18 -4 -18 16q-4 16 14 20q18 0 22 -18q0 -14 -18 -18zM620 592q-18 -4 -18 14q-4 18 14 22q18 0 22 -16q0 -20 -18 -20zM502 644q-16 0 -20 16q0 20 16 20q8 0 14 -4t4 -12q2 -8 -3 -14t-11 -6zM434 652q-18 4 -20 18q0 20 18 20q14 0 18 -18 q4 -16 -16 -20zM564 624q-8 -2 -14 6t-8 16q0 10 18 14q18 0 18 -16q4 -20 -14 -20zM156 356q0 -20 -18 -20t-18 18t18 18t18 -16zM408 30q0 -18 -18 -18t-18 18t16 18q20 0 20 -18zM348 46q0 -18 -18 -18t-18 18q-4 18 16 18q16 0 20 -18zM290 82q0 -18 -18 -18t-18 16 q0 20 18 20t18 -18zM248 120q0 -18 -18 -18t-18 18t16 18q20 0 20 -18zM180 234q4 -18 -16 -18q-16 -4 -20 16q0 16 18 20q18 0 18 -18zM164 300q0 -20 -18 -20t-18 18t16 18q20 0 20 -16zM208 174q0 -18 -18 -18t-18 18t18 18t18 -18zM144 396q-16 4 -16 20q0 20 20 16 q16 0 16 -16q0 -20 -20 -20zM152 454q-20 4 -16 20q0 20 18 16q8 2 13 -4t5 -14q-2 -14 -20 -18zM174 510q-18 0 -14 16q0 20 20 20q16 -4 16 -22q-4 -18 -22 -14zM212 556q-18 4 -20 18q4 18 22 18q18 -4 14 -20q4 -20 -16 -16zM254 596q-8 -2 -13 4t-5 14q2 14 22 18 q18 -4 14 -22q0 -18 -18 -14zM378 646q-16 0 -16 20q-2 8 4 12t14 4q16 0 16 -20q0 -16 -18 -16zM316 624q-18 0 -14 20q-4 16 16 16q20 -4 20 -20q-4 -20 -22 -16zM954 -272q0 18 18 18t18 -18t-18 -18t-18 18zM908 -316q0 18 18 18t18 -18t-18 -18t-18 18zM842 -326 q0 18 18 18t18 -18t-18 -18t-18 18zM978 -90q0 18 18 18t18 -18t-18 -18t-18 18zM982 -156q0 18 18 18t18 -18t-18 -18t-18 18zM978 -218q0 18 18 18t18 -18t-18 -18t-18 18z" />
<glyph unicode="r" horiz-adv-x="808" d="M138 670q0 18 18 18t18 -18t-18 -18t-18 18zM138 610q0 18 18 18t18 -18t-18 -18t-18 18zM138 548q0 18 18 18t18 -18t-18 -18t-18 18zM138 478q0 18 18 18t18 -18t-18 -18t-18 18zM138 408q0 18 18 18t18 -18t-18 -18t-18 18zM138 338q0 18 18 18t18 -18t-18 -18t-18 18 zM138 196q0 18 18 18t18 -18t-18 -18t-18 18zM138 136q0 18 18 18t18 -18t-18 -18t-18 18zM138 74q0 18 18 18t18 -18t-18 -18t-18 18zM136 16q0 18 18 18t18 -18t-18 -18t-18 18zM188 522q0 18 18 18t18 -18t-18 -18t-18 18zM138 260q0 18 18 18t18 -18t-18 -18t-18 18z M422 678q0 18 18 18t18 -18t-18 -18t-18 18zM476 678q0 18 18 18t18 -18t-18 -18t-18 18zM534 666q0 18 18 18t18 -18t-18 -18t-18 18zM584 634q0 18 18 18t18 -18t-18 -18t-18 18zM626 594q0 18 18 18t18 -18t-18 -18t-18 18zM372 664q0 18 18 18t18 -18t-18 -18t-18 18z M326 638q0 18 18 18t18 -18t-18 -18t-18 18zM276 610q0 18 18 18t18 -18t-18 -18t-18 18zM232 568q0 18 18 18t18 -18t-18 -18t-18 18zM654 540q0 18 18 18t18 -18t-18 -18t-18 18z" />
<glyph unicode="s" horiz-adv-x="814" d="M168 552q0 18 18 18t18 -18t-18 -18t-18 18zM410 692q0 18 18 18t18 -18t-18 -18t-18 18zM468 684q0 18 18 18t18 -18t-18 -18t-18 18zM522 666q0 18 18 18t18 -18t-18 -18t-18 18zM572 634q0 18 18 18t18 -18t-18 -18t-18 18zM614 594q0 18 18 18t18 -18t-18 -18t-18 18 zM352 690q0 18 18 18t18 -18t-18 -18t-18 18zM288 676q0 18 18 18t18 -18t-18 -18t-18 18zM234 646q0 18 18 18t18 -18t-18 -18t-18 18zM196 604q0 18 18 18t18 -18t-18 -18t-18 18zM642 540q0 18 18 18t18 -18t-18 -18t-18 18zM614 262q0 18 18 18t18 -18t-18 -18t-18 18z M310 342q0 18 18 18t18 -18t-18 -18t-18 18zM262 354q0 18 18 18t18 -18t-18 -18t-18 18zM218 386q0 18 18 18t18 -18t-18 -18t-18 18zM176 432q0 18 18 18t18 -18t-18 -18t-18 18zM162 492q0 18 18 18t18 -18t-18 -18t-18 18zM376 330q0 18 18 18t18 -18t-18 -18t-18 18z M438 324q0 18 18 18t18 -18t-18 -18t-18 18zM498 312q0 18 18 18t18 -18t-18 -18t-18 18zM560 300q0 18 18 18t18 -18t-18 -18t-18 18zM370 22q0 -18 -18 -18t-18 18t18 18t18 -18zM316 40q0 -18 -18 -18t-18 18t18 18t18 -18zM266 72q0 -18 -18 -18t-18 18t18 18t18 -18z M224 112q0 -18 -18 -18t-18 18t18 18t18 -18zM494 16q0 -18 -18 -18t-18 18t18 18t18 -18zM196 166q0 -18 -18 -18t-18 18t18 18t18 -18zM640 212q0 18 18 18t18 -18t-18 -18t-18 18zM518 22q0 18 18 18t18 -18t-18 -18t-18 18zM582 38q0 18 18 18t18 -18t-18 -18t-18 18z M622 84q0 18 18 18t18 -18t-18 -18t-18 18zM646 148q0 18 18 18t18 -18t-18 -18t-18 18zM146 226q0 18 18 18t18 -18t-18 -18t-18 18zM426 16q0 -18 -18 -18t-18 18t18 18t18 -18z" />
<glyph unicode="t" horiz-adv-x="770" d="M356 1078q0 18 18 18t18 -18t-18 -18t-18 18zM356 1016q0 18 18 18t18 -18t-18 -18t-18 18zM356 946q0 18 18 18t18 -18t-18 -18t-18 18zM356 872q0 18 18 18t18 -18t-18 -18t-18 18zM356 802q0 18 18 18t18 -18t-18 -18t-18 18zM356 674q0 18 18 18t18 -18t-18 -18 t-18 18zM356 614q0 18 18 18t18 -18t-18 -18t-18 18zM356 552q0 18 18 18t18 -18t-18 -18t-18 18zM356 482q0 18 18 18t18 -18t-18 -18t-18 18zM356 412q0 18 18 18t18 -18t-18 -18t-18 18zM356 342q0 18 18 18t18 -18t-18 -18t-18 18zM356 738q0 18 18 18t18 -18t-18 -18 t-18 18zM356 200q0 18 18 18t18 -18t-18 -18t-18 18zM356 140q0 18 18 18t18 -18t-18 -18t-18 18zM356 78q0 18 18 18t18 -18t-18 -18t-18 18zM354 20q0 18 18 18t18 -18t-18 -18t-18 18zM356 264q0 18 18 18t18 -18t-18 -18t-18 18zM84 626q-18 0 -18 18t18 18t18 -18 t-18 -18zM154 626q-18 0 -18 18t18 18t18 -18t-18 -18zM282 626q-18 0 -18 18t18 18t18 -18t-18 -18zM342 626q-18 0 -18 18t18 18t18 -18t-18 -18zM404 626q-18 0 -18 18t18 18t18 -18t-18 -18zM474 626q-18 0 -18 18t18 18t18 -18t-18 -18zM544 626q-18 0 -18 18t18 18 t18 -18t-18 -18zM614 626q-18 0 -18 18t18 18t18 -18t-18 -18zM218 626q-18 0 -18 18t18 18t18 -18t-18 -18zM682 626q-18 0 -18 18t18 18t18 -18t-18 -18z" />
<glyph unicode="u" horiz-adv-x="846" d="M708 24q0 -18 -18 -18t-18 18t18 18t18 -18zM708 84q0 -18 -18 -18t-18 18t18 18t18 -18zM708 146q0 -18 -18 -18t-18 18t18 18t18 -18zM708 216q0 -18 -18 -18t-18 18t18 18t18 -18zM708 286q0 -18 -18 -18t-18 18t18 18t18 -18zM708 356q0 -18 -18 -18t-18 18t18 18 t18 -18zM708 498q0 -18 -18 -18t-18 18t18 18t18 -18zM708 558q0 -18 -18 -18t-18 18t18 18t18 -18zM708 620q0 -18 -18 -18t-18 18t18 18t18 -18zM710 678q0 -18 -18 -18t-18 18t18 18t18 -18zM658 172q0 -18 -18 -18t-18 18t18 18t18 -18zM708 434q0 -18 -18 -18t-18 18 t18 18t18 -18zM424 16q0 -18 -18 -18t-18 18t18 18t18 -18zM370 16q0 -18 -18 -18t-18 18t18 18t18 -18zM312 28q0 -18 -18 -18t-18 18t18 18t18 -18zM262 60q0 -18 -18 -18t-18 18t18 18t18 -18zM220 100q0 -18 -18 -18t-18 18t18 18t18 -18zM474 30q0 -18 -18 -18t-18 18 t18 18t18 -18zM520 56q0 -18 -18 -18t-18 18t18 18t18 -18zM570 84q0 -18 -18 -18t-18 18t18 18t18 -18zM614 126q0 -18 -18 -18t-18 18t18 18t18 -18zM176 214q0 -18 -18 -18t-18 18t18 18t18 -18zM162 280q0 -18 -18 -18t-18 18t18 18t18 -18zM192 154q0 -18 -18 -18 t-18 18t18 18t18 -18zM156 412q0 -18 -18 -18t-18 18t18 18t18 -18zM156 472q0 -18 -18 -18t-18 18t18 18t18 -18zM156 534q0 -18 -18 -18t-18 18t18 18t18 -18zM156 604q0 -18 -18 -18t-18 18t18 18t18 -18zM156 678q0 -18 -18 -18t-18 18t18 18t18 -18zM156 348 q0 -18 -18 -18t-18 18t18 18t18 -18z" />
<glyph unicode="v" horiz-adv-x="790" d="M446 74q-8 -18 -24 -12t-10 24q2 6 8 10t14 0q16 -6 12 -22zM464 130q-4 -16 -22 -12q-16 6 -12 24q6 16 24 10q18 -4 10 -22zM486 188q-8 -16 -24 -10q-16 4 -8 22q4 16 22 12q16 -6 10 -24zM510 254q-8 -16 -22 -10q-20 4 -12 22q6 16 24 12q16 -8 10 -24zM534 324 q-2 -6 -8 -10t-14 0q-16 4 -12 22q6 16 24 12q16 -8 10 -24zM560 388q-4 -4 -10 -8t-14 0q-6 2 -10 9t0 13q4 16 22 12q16 -6 12 -26zM418 10q-8 -16 -22 -10q-20 8 -12 22q8 20 22 12q18 -8 12 -24zM602 510q-6 -16 -24 -12q-16 8 -10 24q2 6 10 10t12 0q8 -2 11 -9t1 -13z M624 566q-6 -16 -24 -10q-18 4 -10 22q4 16 22 12q16 -6 12 -24zM644 624q-8 -16 -24 -10q-6 2 -10 9t0 13q2 8 9 11t13 1q16 -6 12 -24zM666 690q-2 -6 -8 -10t-14 0q-16 6 -12 22q10 18 26 12q14 -8 8 -24zM580 450q-4 -20 -22 -10q-16 6 -12 22q6 16 24 10q16 -8 10 -22z M346 74q-4 16 12 22q18 8 22 -8q6 -18 -8 -26q-16 -6 -26 12zM326 128q-10 18 8 22q16 10 24 -8q6 -18 -10 -24q-18 -8 -22 10zM300 184q-6 16 10 26q18 4 22 -12q10 -18 -8 -22q-16 -6 -24 8zM274 248q-8 14 8 26q18 4 24 -12q4 -6 1 -13t-11 -9q-6 -4 -12 0t-10 8z M244 318q-4 6 0 13t10 11q18 4 24 -10q4 -18 -10 -24q-16 -6 -24 10zM216 382q-4 18 10 24q8 2 15 0t9 -10q4 -6 0 -13t-8 -11q-14 -6 -26 10zM374 10q-6 16 12 24q14 8 22 -12q8 -14 -12 -22q-14 -6 -22 10zM166 500q-2 6 1 13t11 11q4 4 12 0t10 -10q6 -16 -8 -24 q-18 -4 -26 10zM144 554q-8 18 10 26q18 4 22 -10q8 -18 -8 -24t-24 8zM120 612q-6 18 10 24q6 2 13 0t9 -10q4 -6 1 -13t-9 -9q-8 -4 -14 -1t-10 9zM94 676q-4 8 -1 14t9 10q16 10 24 -10q4 -16 -10 -22q-8 -4 -14 -1t-8 9zM192 442q-6 14 10 22q6 4 13 1t11 -11 q4 -16 -10 -22q-16 -10 -24 10z" />
<glyph unicode="w" horiz-adv-x="1232" d="M436 74q-8 -18 -24 -12t-10 24q2 6 8 10t14 0q16 -6 12 -22zM454 130q-4 -16 -22 -12q-16 6 -12 24q6 16 24 10q18 -4 10 -22zM476 188q-8 -16 -24 -10q-16 4 -8 22q4 16 22 12q16 -6 10 -24zM500 254q-8 -16 -22 -10q-20 4 -12 22q6 16 24 12q16 -8 10 -24zM524 324 q-2 -6 -8 -10t-14 0q-16 4 -12 22q6 16 24 12q16 -8 10 -24zM550 388q-4 -4 -10 -8t-14 0q-6 2 -10 9t0 13q4 16 22 12q16 -6 12 -26zM408 10q-8 -16 -22 -10q-20 8 -12 22q8 20 22 12q18 -8 12 -24zM592 510q-6 -16 -24 -12q-16 8 -10 24q2 6 10 10t12 0q8 -2 11 -9t1 -13z M614 566q-6 -16 -24 -10q-18 4 -10 22q4 16 22 12q16 -6 12 -24zM634 624q-8 -16 -24 -10q-6 2 -10 9t0 13q2 8 9 11t13 1q16 -6 12 -24zM570 450q-4 -20 -22 -10q-16 6 -12 22q6 16 24 10q16 -8 10 -22zM336 72q-4 16 12 20q18 8 22 -8q6 -18 -10 -26q-8 -4 -14 1t-10 13z M318 126q-10 18 8 22q16 10 24 -10q8 -18 -10 -22q-18 -8 -22 10zM294 184q-6 18 10 24q18 4 22 -12q10 -18 -8 -22q-18 -6 -24 10zM270 248q-4 8 0 15t10 11q18 4 24 -14q4 -6 0 -13t-12 -7q-6 -4 -12 0t-10 8zM244 320q-4 6 0 13t10 9q18 4 24 -10q4 -18 -12 -24 q-8 -4 -14 1t-8 11zM218 384q-4 18 10 24q8 2 15 0t9 -12q4 -6 0 -12t-8 -10q-14 -6 -26 10zM364 10q-6 16 12 24q14 8 22 -12q8 -14 -12 -22q-14 -6 -22 10zM172 504q-4 16 14 24q4 4 12 -1t10 -11q4 -18 -10 -22q-18 -4 -26 10zM152 560q-4 20 12 24q18 4 22 -10 q6 -18 -10 -24q-18 -6 -24 10zM132 618q-6 18 10 24q6 2 13 -1t9 -11q4 -6 0 -13t-10 -7q-8 -4 -14 -1t-8 9zM108 682q-8 16 8 24q16 10 24 -10q4 -16 -10 -22q-8 -4 -14 -1t-8 9zM196 446q-4 6 1 12t11 8q6 4 13 1t9 -11q4 -16 -10 -22q-8 -4 -14 0t-10 12zM804 76 q-4 16 12 22q8 4 14 0t8 -10q6 -18 -10 -24t-24 12zM786 132q-8 18 10 22q18 6 24 -10q4 -18 -12 -24q-18 -4 -22 12zM764 190q-6 18 10 24q18 4 22 -12q8 -18 -8 -22q-16 -6 -24 10zM740 256q-6 16 10 24q18 4 24 -12q8 -18 -12 -22q-14 -6 -22 10zM716 326q-6 16 10 24 q18 4 24 -12q4 -18 -12 -22q-8 -4 -14 0t-8 10zM690 390q-4 20 12 26q18 4 22 -12q4 -6 0 -13t-10 -9q-8 -4 -14 0t-10 8zM832 12q-6 16 12 24q14 8 22 -12q8 -14 -12 -22q-14 -6 -22 10zM648 512q-2 6 1 13t11 9q4 4 12 0t10 -10q6 -16 -10 -24q-18 -4 -24 12zM626 568 q-4 18 12 24q18 4 22 -12q8 -18 -10 -22q-18 -6 -24 10zM670 452q-6 14 10 22q18 6 24 -10q4 -16 -12 -22q-18 -10 -22 10zM876 12q-8 -16 -22 -10q-20 8 -12 22q8 20 22 12q18 -8 12 -24zM896 66q-4 -8 -10 -13t-14 -1q-18 8 -10 26q4 16 22 8q16 -4 12 -20zM914 120 q-4 -18 -22 -10q-18 4 -10 22q8 20 24 10q18 -4 8 -22zM938 178q-6 -16 -24 -10q-18 4 -8 22q4 16 22 12q16 -6 10 -24zM962 242q-4 -4 -10 -8t-12 0q-8 0 -12 7t0 13q6 18 24 14q6 -4 10 -11t0 -15zM988 314q-2 -6 -8 -11t-14 -1q-16 6 -12 24q6 14 24 10q6 -2 10 -9t0 -13 zM1014 378q-12 -16 -26 -10q-4 4 -8 10t0 12q2 10 9 12t15 0q14 -6 10 -24zM1060 498q-8 -14 -26 -10q-14 4 -10 22q2 6 10 11t12 1q18 -8 14 -24zM1080 554q-6 -16 -24 -10q-16 6 -10 24q4 14 22 10q16 -4 12 -24zM1100 612q-2 -6 -8 -9t-14 1q-6 0 -10 7t0 13q2 8 9 11 t13 1q16 -6 10 -24zM1124 676q-2 -6 -8 -9t-14 1q-14 6 -10 22q8 20 24 10q16 -8 8 -24zM1036 440q-4 -8 -10 -12t-14 0q-14 6 -10 22q2 8 9 11t13 -1q6 -2 11 -8t1 -12z" />
<glyph unicode="x" horiz-adv-x="788" d="M154 662q-12 14 4 26q14 10 24 -4q12 -16 -2 -26q-14 -12 -26 4zM198 602q-12 14 4 26q14 12 26 -4q10 -14 -4 -24q-16 -12 -26 2zM240 546q-12 14 4 26q14 12 26 -4q10 -14 -4 -24q-16 -12 -26 2zM318 444q-12 16 2 26q14 12 26 -4q12 -14 -4 -26q-14 -10 -24 4z M354 396q-12 16 2 26q14 12 26 -4q12 -14 -4 -26q-14 -10 -24 4zM390 346q-12 14 4 26q14 12 26 -4q10 -14 -4 -24q-16 -12 -26 2zM432 290q-12 14 4 26q14 12 26 -4q10 -14 -4 -24q-16 -12 -26 2zM474 234q-12 14 4 26q14 12 26 -4q10 -14 -4 -24q-16 -12 -26 2zM516 178 q-12 14 4 26q14 12 26 -4q10 -14 -4 -24q-16 -12 -26 2zM278 496q-10 14 4 24q16 12 26 -2q12 -14 -4 -26q-14 -12 -26 4zM602 66q-10 14 4 24t24 -4t-4 -24t-24 4zM638 18q-10 14 4 24t24 -4t-4 -24t-24 4zM564 116q-12 16 2 26q14 12 26 -4q12 -14 -4 -26q-14 -10 -24 4z M646 658q-12 -16 -26 -4q-14 10 -2 26q10 14 24 4q16 -12 4 -26zM602 598q-10 -14 -26 -2q-14 10 -4 24q12 16 26 4q16 -12 4 -26zM560 542q-10 -14 -26 -2q-14 10 -4 24q12 16 26 4q16 -12 4 -26zM482 440q-10 -14 -24 -4q-16 12 -4 26q12 16 26 4q14 -10 2 -26zM446 392 q-10 -14 -24 -4q-16 12 -4 26q12 16 26 4q14 -10 2 -26zM410 342q-10 -14 -26 -2q-14 10 -4 24q12 16 26 4q16 -12 4 -26zM368 286q-10 -14 -26 -2q-14 10 -4 24q12 16 26 4q16 -12 4 -26zM326 230q-10 -14 -26 -2q-14 10 -4 24q12 16 26 4q16 -12 4 -26zM284 174 q-10 -14 -26 -2q-14 10 -4 24q12 16 26 4q16 -12 4 -26zM522 492q-12 -16 -26 -4q-16 12 -4 26q10 14 26 2q14 -10 4 -24zM198 62q-10 -14 -24 -4t-4 24t24 4t4 -24zM162 14q-10 -14 -24 -4t-4 24t24 4t4 -24zM236 112q-10 -14 -24 -4q-16 12 -4 26q12 16 26 4q14 -10 2 -26 z" />
<glyph unicode="y" horiz-adv-x="916" d="M112 662q-8 16 8 26q14 8 22 -8q4 -6 3 -14t-7 -12q-8 -4 -15 -1t-11 9zM148 596q-4 8 -1 15t9 11t14 2t12 -8q4 -8 1 -14t-9 -10q-14 -12 -26 4zM184 536q-4 6 -2 14t8 12q16 10 26 -8q8 -16 -6 -22q-16 -10 -26 4zM248 426q-8 16 6 26q14 8 26 -8q8 -14 -8 -26 q-14 -8 -24 8zM278 374q-8 16 6 26q14 8 26 -8q8 -14 -8 -26q-14 -8 -24 8zM308 320q-8 14 8 24q16 8 24 -6q10 -12 -6 -24q-6 -4 -14 -3t-12 9zM344 258q-10 18 6 26q18 10 26 -6q8 -14 -8 -24q-6 -4 -13 -3t-11 7zM378 198q-8 16 8 26q14 8 24 -8q8 -16 -6 -22 q-6 -4 -14 -3t-12 7zM414 138q-4 6 -2 14t8 12q14 8 26 -8q8 -14 -8 -24q-14 -8 -24 6zM216 482q-10 12 6 24q16 8 26 -6q8 -16 -8 -26q-14 -6 -24 8zM486 16q-10 12 6 24q14 8 24 -8q6 -14 -8 -22q-12 -6 -22 6zM454 70q-12 18 4 26q16 10 26 -8q8 -14 -8 -24q-16 -8 -22 6 zM738 666q2 6 9 10t15 0q6 -4 7 -10t1 -12t-8 -10t-14 -2q-14 8 -10 24zM710 600q4 6 12 8t14 0q14 -8 10 -24q-6 -14 -24 -10q-20 8 -12 26zM686 532q0 6 7 11t15 1q18 -8 10 -26q-6 -16 -22 -8q-10 2 -10 22zM638 414q4 6 11 11t13 1q14 -6 10 -26q-4 -18 -24 -10 q-6 2 -10 8t0 16zM616 360q6 10 24 10q8 0 11 -9t-1 -17q-2 -6 -10 -11t-16 -1t-11 11t3 17zM592 300q8 18 24 10q16 -6 10 -24q-4 -10 -22 -10q-10 0 -13 7t1 17zM566 234q4 8 12 11t14 -1q14 -4 10 -22q-8 -20 -24 -10q-6 4 -11 10t-1 12zM540 170q0 8 8 12t18 -2 q16 -12 10 -24q-4 -10 -11 -11t-13 1q-12 6 -12 24zM514 104q4 10 13 13t15 -1q16 -8 8 -26q-2 -6 -8 -10t-14 0q-18 8 -14 24zM664 474q0 8 7 10t13 0q16 -8 10 -24q-4 -6 -9 -11t-15 -1q-8 4 -7 11t1 15zM464 -28q8 14 24 10q14 -6 8 -24q-6 -12 -22 -6t-10 20zM488 30 q10 16 22 14q18 -8 10 -24t-24 -10q-18 8 -8 20zM442 -92q2 6 9 10t15 0q6 -4 7 -10t1 -12t-8 -10t-14 -2q-14 8 -10 24zM414 -158q4 6 12 8t14 0q14 -8 10 -24q-6 -14 -24 -10q-20 8 -12 26zM390 -226q0 6 7 11t15 1q18 -8 10 -26q-6 -16 -22 -8q-10 2 -10 22zM342 -344 q4 6 11 11t13 1q14 -6 10 -26q-4 -18 -24 -10q-6 2 -10 8t0 16zM368 -284q0 8 7 10t13 0q16 -8 10 -24q-4 -6 -9 -11t-15 -1q-8 4 -7 11t1 15z" />
<glyph unicode="z" horiz-adv-x="822" d="M666 696q12 12 26 2q12 -12 2 -26t-26 -2q-14 10 -2 26zM582 592q12 12 26 2q12 -12 2 -26q-12 -12 -26 -2t-2 26zM542 546q12 12 26 2t2 -26q-12 -12 -26 -2q-12 12 -2 26zM502 500q10 14 26 2q12 -14 0 -26q-10 -12 -24 -2t-2 26zM456 448q12 12 26 0q4 -4 5 -12 t-5 -12q-12 -14 -24 -2q-14 10 -2 26zM406 392q14 10 26 2q12 -12 2 -26t-26 -2q-12 12 -2 26zM360 338q12 12 26 2q14 -12 2 -24q-12 -16 -26 -2q-14 12 -2 24zM624 640q12 12 26 2q12 -12 2 -26t-26 -2q-14 10 -2 26zM268 232q12 14 24 2q14 -10 2 -26q-10 -14 -26 -2 q-12 14 0 26zM228 186q12 16 26 2q4 -4 5 -12t-5 -12q-4 -6 -12 -7t-12 5q-14 12 -2 24zM186 140q12 12 26 2t2 -26q-10 -14 -26 -2q-12 12 -2 26zM140 88q12 12 26 2q12 -12 2 -26t-26 -2q-14 10 -2 26zM92 32q10 14 26 2q4 -4 5 -12t-5 -14q-10 -12 -24 -2q-12 12 -2 26z M310 280q12 14 24 2q16 -12 2 -26q-12 -14 -24 -2q-14 14 -2 26zM88 666q-18 0 -18 18t18 18t18 -18t-18 -18zM148 666q-18 0 -18 18t18 18t18 -18t-18 -18zM218 666q-18 0 -18 18t18 18t18 -18t-18 -18zM350 666q-18 0 -18 18t18 18t18 -18t-18 -18zM410 666q-18 0 -18 18 t18 18t18 -18t-18 -18zM472 666q-18 0 -18 18t18 18t18 -18t-18 -18zM542 666q-18 0 -18 18t18 18t18 -18t-18 -18zM616 666q-18 0 -18 18t18 18t18 -18t-18 -18zM286 666q-18 0 -18 18t18 18t18 -18t-18 -18zM170 2q-18 0 -18 18t18 18t18 -18t-18 -18zM230 2q-18 0 -18 18 t18 18t18 -18t-18 -18zM300 2q-18 0 -18 18t18 18t18 -18t-18 -18zM432 2q-18 0 -18 18t18 18t18 -18t-18 -18zM492 2q-18 0 -18 18t18 18t18 -18t-18 -18zM554 2q-18 0 -18 18t18 18t18 -18t-18 -18zM624 2q-18 0 -18 18t18 18t18 -18t-18 -18zM698 2q-18 0 -18 18t18 18 t18 -18t-18 -18zM368 2q-18 0 -18 18t18 18t18 -18t-18 -18z" />
<glyph unicode="{" horiz-adv-x="760" d="M556 1272q0 -18 -18 -18t-18 18t18 18t18 -18zM582 1290q0 18 18 18t18 -18t-16 -18q-20 0 -20 18zM504 1240q0 -18 -20 -18q-16 0 -16 18t18 18t18 -18zM456 1196q-4 -18 -20 -18q-20 0 -16 18q0 18 18 18t18 -18zM422 1134q0 -18 -18 -18t-18 20q0 16 18 16t18 -18z M408 1068q0 -18 -20 -18q-16 0 -16 18t18 18t18 -18zM402 928q0 -18 -18 -18q-18 4 -18 20q4 20 20 16q20 0 16 -18zM400 860q0 -16 -20 -16q-16 0 -16 18t18 18t18 -20zM402 996q0 -18 -18 -18t-18 18t18 18t18 -18zM368 790q0 18 18 18t18 -18t-18 -18t-18 18zM368 724 q0 18 18 18t18 -18t-18 -18t-18 18zM368 664q0 18 18 18t18 -18t-18 -18t-18 18zM304 624q0 18 18 18t18 -18t-18 -18t-18 18zM192 544q0 18 18 18t18 -18t-18 -18t-18 18zM280 586q0 -18 -20 -18q-16 0 -16 18t18 18t18 -18zM564 -174q0 -18 -18 -18t-18 18t18 18t18 -18z M590 -192q0 18 20 18q16 0 16 -18t-18 -18t-18 18zM512 -142q0 -18 -18 -18t-18 18t16 18q20 0 20 -18zM464 -98q0 -18 -18 -18t-18 18q-4 18 16 18q16 0 20 -18zM430 -36q0 -18 -18 -18t-18 16q0 20 18 20t18 -18zM416 30q0 -18 -18 -18t-18 18t16 18q20 0 20 -18zM410 170 q4 -18 -16 -18q-16 -4 -20 16q0 16 18 20q18 0 18 -18zM408 238q0 -20 -18 -20t-18 18t16 18q20 0 20 -16zM410 102q0 -18 -18 -18t-18 18t18 18t18 -18zM376 308q0 18 18 18t18 -18t-18 -18t-18 18zM376 374q0 18 18 18t18 -18t-18 -18t-18 18zM376 434q0 18 18 18t18 -18 t-18 -18t-18 18zM312 474q0 18 18 18t18 -18t-18 -18t-18 18zM288 512q0 -18 -18 -18t-18 18t16 18q20 0 20 -18z" />
<glyph unicode="|" horiz-adv-x="372" d="M172 1138q0 18 18 18t18 -18t-18 -18t-18 18zM172 1078q0 18 18 18t18 -18t-18 -18t-18 18zM172 1016q0 18 18 18t18 -18t-18 -18t-18 18zM172 946q0 18 18 18t18 -18t-18 -18t-18 18zM172 872q0 18 18 18t18 -18t-18 -18t-18 18zM172 802q0 18 18 18t18 -18t-18 -18 t-18 18zM172 674q0 18 18 18t18 -18t-18 -18t-18 18zM172 614q0 18 18 18t18 -18t-18 -18t-18 18zM172 552q0 18 18 18t18 -18t-18 -18t-18 18zM172 482q0 18 18 18t18 -18t-18 -18t-18 18zM172 412q0 18 18 18t18 -18t-18 -18t-18 18zM172 342q0 18 18 18t18 -18t-18 -18 t-18 18zM172 738q0 18 18 18t18 -18t-18 -18t-18 18zM172 200q0 18 18 18t18 -18t-18 -18t-18 18zM172 140q0 18 18 18t18 -18t-18 -18t-18 18zM172 78q0 18 18 18t18 -18t-18 -18t-18 18zM170 20q0 18 18 18t18 -18t-18 -18t-18 18zM172 264q0 18 18 18t18 -18t-18 -18 t-18 18zM172 1202q0 18 18 18t18 -18t-18 -18t-18 18z" />
<glyph unicode="}" horiz-adv-x="786" d="M212 1276q0 18 18 18t18 -18t-18 -18t-18 18zM186 1294q0 -18 -20 -18q-16 0 -16 18t18 18t18 -18zM264 1244q0 18 18 18t18 -18t-16 -18q-20 0 -20 18zM312 1200q0 18 18 18t18 -18q4 -18 -16 -18q-16 0 -20 18zM346 1138q0 18 18 18t18 -16q0 -20 -18 -20t-18 18z M360 1072q0 18 18 18t18 -18t-16 -18q-20 0 -20 18zM366 932q-4 18 16 18q16 4 20 -16q0 -16 -18 -20q-18 0 -18 18zM368 864q0 20 18 20t18 -18t-16 -18q-20 0 -20 16zM366 1000q0 18 18 18t18 -18t-18 -18t-18 18zM400 794q0 -18 -18 -18t-18 18t18 18t18 -18zM400 728 q0 -18 -18 -18t-18 18t18 18t18 -18zM400 668q0 -18 -18 -18t-18 18t18 18t18 -18zM464 628q0 -18 -18 -18t-18 18t18 18t18 -18zM576 548q0 -18 -18 -18t-18 18t18 18t18 -18zM488 590q0 18 18 18t18 -18t-16 -18q-20 0 -20 18zM204 -170q0 -18 18 -18t18 18t-18 18 t-18 -18zM178 -188q0 18 -20 18q-16 0 -16 -18t18 -18t18 18zM256 -138q0 -18 18 -18t18 18t-16 18q-20 0 -20 -18zM304 -94q0 -18 18 -18t18 18q4 18 -16 18q-16 0 -20 -18zM338 -32q0 -18 18 -18t18 16q0 20 -18 20t-18 -18zM352 34q0 -18 18 -18t18 18t-16 18 q-20 0 -20 -18zM358 174q-4 -18 16 -18q16 -4 20 16q0 16 -18 20q-18 0 -18 -18zM360 242q0 -20 18 -20t18 18t-16 18q-20 0 -20 -16zM358 106q0 -18 18 -18t18 18t-18 18t-18 -18zM392 312q0 18 -18 18t-18 -18t18 -18t18 18zM392 378q0 18 -18 18t-18 -18t18 -18t18 18z M392 438q0 18 -18 18t-18 -18t18 -18t18 18zM456 478q0 18 -18 18t-18 -18t18 -18t18 18zM480 516q0 -18 18 -18t18 18t-16 18q-20 0 -20 -18z" />
<glyph unicode="~" horiz-adv-x="820" d="M156 538q-16 12 -4 26q12 12 26 2q16 -12 4 -26q-12 -12 -26 -2zM188 598q-16 12 -4 26q12 12 26 2q16 -12 4 -26q-12 -12 -26 -2zM222 658q-16 12 -4 26q12 12 26 2q16 -12 4 -26q-12 -12 -26 -2zM282 680q-16 12 -4 26q12 12 26 2q16 -12 4 -26q-12 -12 -26 -2z M346 652q-16 12 -4 26q12 12 26 2q16 -12 4 -26q-12 -12 -26 -2zM402 602q-16 12 -4 26q12 12 26 2q16 -12 4 -26q-12 -12 -26 -2zM458 556q-16 12 -4 26q12 12 26 2q16 -12 4 -26q-12 -12 -26 -2zM510 524q-16 12 -4 26q12 12 26 2q16 -12 4 -26q-12 -12 -26 -2zM574 520 q-16 12 -4 26q12 12 26 2q16 -12 4 -26q-12 -12 -26 -2zM634 560q-16 12 -4 26q12 12 26 2q16 -12 4 -26q-12 -12 -26 -2zM664 624q-16 12 -4 26q12 12 26 2q16 -12 4 -26q-12 -12 -26 -2zM664 694q-16 12 -4 26q12 12 26 2q16 -12 4 -26q-12 -12 -26 -2z" />
<glyph unicode="&#xa1;" horiz-adv-x="366" d="M134 1150q0 12 9 21t21 9t20 -9t8 -21q0 -28 -28 -28q-12 0 -21 8t-9 20zM148 658q0 18 18 18t18 -18t-18 -18t-18 18zM148 580q0 18 18 18t18 -18t-18 -18t-18 18zM146 336q0 18 18 18t18 -18t-18 -18t-18 18zM148 394q0 18 18 18t18 -18t-18 -18t-18 18zM148 456 q0 18 18 18t18 -18t-18 -18t-18 18zM148 516q0 18 18 18t18 -18t-18 -18t-18 18zM148 872q0 18 18 18t18 -18t-18 -18t-18 18zM148 728q0 18 18 18t18 -18t-18 -18t-18 18zM148 802q0 18 18 18t18 -18t-18 -18t-18 18zM148 994q0 18 18 18t18 -18t-18 -18t-18 18zM148 934 q0 18 18 18t18 -18t-18 -18t-18 18zM148 270q0 18 18 18t18 -18t-18 -18t-18 18zM146 26q0 18 18 18t18 -18t-18 -18t-18 18zM148 84q0 18 18 18t18 -18t-18 -18t-18 18zM148 146q0 18 18 18t18 -18t-18 -18t-18 18zM148 206q0 18 18 18t18 -18t-18 -18t-18 18zM146 -36 q0 18 18 18t18 -18t-18 -18t-18 18z" />
<glyph unicode="&#xa2;" horiz-adv-x="848" d="M424 784q0 18 18 18t18 -18t-18 -18t-18 18zM482 778q0 18 18 18t18 -18t-18 -18t-18 18zM536 764q0 18 18 18t18 -18t-18 -18t-18 18zM586 732q0 18 18 18t18 -18t-18 -18t-18 18zM628 692q0 18 18 18t18 -18t-18 -18t-18 18zM666 638q0 18 18 18t18 -18t-18 -18t-18 18 zM712 356q20 -4 16 -20q-4 -20 -20 -16q-16 0 -16 20q4 16 20 16zM692 302q18 0 14 -18q0 -18 -20 -18q-16 4 -16 22q4 18 22 14zM654 256q18 -4 18 -18q-4 -18 -22 -18q-18 4 -14 20q0 20 18 16zM610 218q18 0 18 -20q-4 -16 -22 -16q-18 4 -14 22q0 18 18 14zM492 172 q6 0 11 -6t3 -14q2 -8 -4 -12t-14 -4q-16 0 -16 20q4 16 20 16zM424 164q20 -4 16 -20q-4 -18 -18 -18q-18 0 -18 20q2 14 20 18zM554 186q18 0 14 -20q0 -16 -18 -16q-18 4 -18 20q4 20 22 16zM146 454q0 -16 -18 -16t-18 18t18 18t18 -20zM398 780q0 -18 -20 -18 q-16 0 -16 18t18 18t18 -18zM338 764q-4 -18 -20 -18q-20 0 -16 18q0 18 18 18t18 -18zM280 728q0 -18 -18 -18t-18 20q0 16 18 16t18 -18zM238 690q0 -18 -20 -18q-16 0 -16 18t18 18t18 -18zM170 576q0 -18 -18 -18q-18 4 -18 20q4 20 20 16q20 0 16 -18zM154 510 q0 -16 -20 -16q-16 0 -16 18t18 18t18 -20zM198 636q0 -18 -18 -18t-18 18t18 18t18 -18zM134 414q20 0 20 -20q0 -16 -16 -16q-20 -4 -20 16q0 16 16 20zM142 356q18 -4 20 -18q0 -8 -5 -14t-13 -4q-18 -4 -18 16q-4 16 16 20zM164 300q18 4 22 -14q0 -18 -16 -22 q-20 0 -20 20q-4 16 14 16zM202 254q20 4 16 -16q4 -16 -14 -20q-18 0 -22 18q2 14 20 18zM244 214q18 4 18 -14q4 -18 -14 -22q-20 4 -22 18q0 8 5 14t13 4zM368 170q18 0 18 -16q0 -20 -16 -20q-8 0 -14 4t-4 12q0 20 16 20zM306 186q18 4 22 -16q0 -16 -20 -20 q-20 0 -16 16q-4 20 14 20zM390 76q0 18 18 18t18 -18t-18 -18t-18 18zM390 2q0 18 18 18t18 -18t-18 -18t-18 18zM392 914q0 18 18 18t18 -18t-18 -18t-18 18zM392 786q0 18 18 18t18 -18t-18 -18t-18 18zM392 726q0 18 18 18t18 -18t-18 -18t-18 18zM392 664q0 18 18 18 t18 -18t-18 -18t-18 18zM392 594q0 18 18 18t18 -18t-18 -18t-18 18zM392 524q0 18 18 18t18 -18t-18 -18t-18 18zM392 454q0 18 18 18t18 -18t-18 -18t-18 18zM392 850q0 18 18 18t18 -18t-18 -18t-18 18zM392 312q0 18 18 18t18 -18t-18 -18t-18 18zM392 252q0 18 18 18 t18 -18t-18 -18t-18 18zM392 190q0 18 18 18t18 -18t-18 -18t-18 18zM390 132q0 18 18 18t18 -18t-18 -18t-18 18zM392 376q0 18 18 18t18 -18t-18 -18t-18 18z" />
<glyph unicode="&#xa3;" horiz-adv-x="890" d="M358 1078q0 18 18 18t18 -18t-18 -18t-18 18zM332 1014q0 18 18 18t18 -18t-18 -18t-18 18zM320 942q0 18 18 18t18 -18t-18 -18t-18 18zM312 872q0 18 18 18t18 -18t-18 -18t-18 18zM308 802q0 18 18 18t18 -18t-18 -18t-18 18zM308 674q0 18 18 18t18 -18t-18 -18 t-18 18zM308 614q0 18 18 18t18 -18t-18 -18t-18 18zM308 552q0 18 18 18t18 -18t-18 -18t-18 18zM308 482q0 18 18 18t18 -18t-18 -18t-18 18zM308 412q0 18 18 18t18 -18t-18 -18t-18 18zM308 342q0 18 18 18t18 -18t-18 -18t-18 18zM308 738q0 18 18 18t18 -18t-18 -18 t-18 18zM308 200q0 18 18 18t18 -18t-18 -18t-18 18zM308 140q0 18 18 18t18 -18t-18 -18t-18 18zM308 78q0 18 18 18t18 -18t-18 -18t-18 18zM306 20q0 18 18 18t18 -18t-18 -18t-18 18zM308 264q0 18 18 18t18 -18t-18 -18t-18 18zM690 628q-18 0 -18 18t18 18t18 -18 t-18 -18zM106 626q-18 0 -18 18t18 18t18 -18t-18 -18zM234 626q-18 0 -18 18t18 18t18 -18t-18 -18zM294 626q-18 0 -18 18t18 18t18 -18t-18 -18zM356 626q-18 0 -18 18t18 18t18 -18t-18 -18zM426 626q-18 0 -18 18t18 18t18 -18t-18 -18zM496 626q-18 0 -18 18t18 18 t18 -18t-18 -18zM566 626q-18 0 -18 18t18 18t18 -18t-18 -18zM170 626q-18 0 -18 18t18 18t18 -18t-18 -18zM634 626q-18 0 -18 18t18 18t18 -18t-18 -18zM396 1134q0 18 18 18t18 -18t-18 -18t-18 18zM444 1174q0 18 18 18t18 -18t-18 -18t-18 18zM500 1204q0 18 18 18 t18 -18t-18 -18t-18 18zM556 1214q0 18 18 18t18 -18t-18 -18t-18 18zM618 1206q0 18 18 18t18 -18t-18 -18t-18 18zM668 1170q0 18 18 18t18 -18t-18 -18t-18 18zM714 1122q0 18 18 18t18 -18t-18 -18t-18 18zM750 1068q0 18 18 18t18 -18t-18 -18t-18 18zM778 998 q0 18 18 18t18 -18t-18 -18t-18 18zM388 2q-18 0 -18 18t18 18t18 -18t-18 -18zM516 2q-18 0 -18 18t18 18t18 -18t-18 -18zM576 2q-18 0 -18 18t18 18t18 -18t-18 -18zM638 2q-18 0 -18 18t18 18t18 -18t-18 -18zM708 2q-18 0 -18 18t18 18t18 -18t-18 -18zM778 2 q-18 0 -18 18t18 18t18 -18t-18 -18zM452 2q-18 0 -18 18t18 18t18 -18t-18 -18z" />
<glyph unicode="&#xa5;" horiz-adv-x="920" d="M464 548q0 18 18 18t18 -18t-18 -18t-18 18zM464 478q0 18 18 18t18 -18t-18 -18t-18 18zM464 408q0 18 18 18t18 -18t-18 -18t-18 18zM464 338q0 18 18 18t18 -18t-18 -18t-18 18zM464 196q0 18 18 18t18 -18t-18 -18t-18 18zM464 136q0 18 18 18t18 -18t-18 -18t-18 18 zM464 74q0 18 18 18t18 -18t-18 -18t-18 18zM462 16q0 18 18 18t18 -18t-18 -18t-18 18zM464 260q0 18 18 18t18 -18t-18 -18t-18 18zM132 1178q-4 6 -2 13t10 11q6 4 13 2t11 -10q4 -6 2 -13t-10 -11q-6 -4 -13 -2t-11 10zM160 1124q-8 18 8 24q6 4 13 2t11 -8 q6 -18 -8 -26q-16 -8 -24 8zM190 1070q-4 6 -2 13t8 11q18 6 26 -8q8 -16 -8 -24q-18 -8 -24 8zM222 1008q-4 6 -2 13t10 11q6 4 13 2t11 -10q8 -14 -8 -24q-16 -8 -24 8zM254 946q-8 16 8 24q16 10 24 -8q10 -12 -6 -24q-16 -6 -26 8zM288 884q-8 18 8 24q12 10 24 -6 q6 -16 -8 -26q-16 -8 -24 8zM354 758q-6 16 8 26q16 8 24 -8q8 -18 -8 -24q-12 -10 -24 6zM382 706q-8 16 8 24q6 4 13 2t11 -10q10 -14 -8 -24q-14 -8 -24 8zM412 652q-10 14 8 24q14 6 24 -8q8 -16 -8 -24q-16 -12 -24 8zM438 598q-8 14 6 26q16 6 24 -8q10 -16 -6 -24 q-16 -10 -24 6zM324 816q-6 14 8 24q6 4 13 2t11 -10q4 -6 2 -13t-10 -11q-14 -8 -24 8zM838 1180q-4 -8 -11 -10t-13 2q-8 4 -10 11t2 13q4 8 11 10t13 -2q8 -4 10 -11t-2 -13zM810 1126q-8 -16 -24 -8q-14 8 -8 26q4 6 11 8t13 -2q16 -6 8 -24zM780 1072q-6 -16 -24 -8 q-16 8 -8 24q8 14 26 8q6 -4 8 -11t-2 -13zM748 1010q-8 -16 -24 -8q-16 10 -8 24q4 8 11 10t13 -2q8 -4 10 -11t-2 -13zM716 948q-10 -14 -26 -8q-16 12 -6 24q8 18 24 8q16 -8 8 -24zM682 886q-8 -16 -24 -8q-14 10 -8 26q12 16 24 6q16 -6 8 -24zM616 760q-12 -16 -24 -6 q-16 6 -8 24q8 16 24 8q14 -10 8 -26zM588 708q-10 -16 -24 -8q-18 10 -8 24q4 8 11 10t13 -2q16 -8 8 -24zM558 654q-8 -20 -24 -8q-16 8 -8 24q10 14 24 8q18 -10 8 -24zM532 600q-8 -16 -24 -6q-16 8 -6 24q8 14 24 8q14 -12 6 -26zM646 818q-10 -16 -24 -8q-8 4 -10 11 t2 13q4 8 11 10t13 -2q14 -10 8 -24zM264 426q-18 0 -18 18t18 18t18 -18t-18 -18zM392 426q-18 0 -18 18t18 18t18 -18t-18 -18zM452 426q-18 0 -18 18t18 18t18 -18t-18 -18zM514 426q-18 0 -18 18t18 18t18 -18t-18 -18zM584 426q-18 0 -18 18t18 18t18 -18t-18 -18z M654 426q-18 0 -18 18t18 18t18 -18t-18 -18zM724 426q-18 0 -18 18t18 18t18 -18t-18 -18zM328 426q-18 0 -18 18t18 18t18 -18t-18 -18zM264 152q-18 0 -18 18t18 18t18 -18t-18 -18zM392 152q-18 0 -18 18t18 18t18 -18t-18 -18zM452 152q-18 0 -18 18t18 18t18 -18 t-18 -18zM514 152q-18 0 -18 18t18 18t18 -18t-18 -18zM584 152q-18 0 -18 18t18 18t18 -18t-18 -18zM654 152q-18 0 -18 18t18 18t18 -18t-18 -18zM724 152q-18 0 -18 18t18 18t18 -18t-18 -18zM328 152q-18 0 -18 18t18 18t18 -18t-18 -18z" />
<glyph unicode="&#xa8;" horiz-adv-x="596" d="M180 832q0 -12 -9 -21t-21 -9t-20 9t-8 21q0 28 28 28q12 0 21 -8t9 -20zM448 832q0 -12 -9 -21t-21 -9t-20 9t-8 21q0 28 28 28q12 0 21 -8t9 -20z" />
<glyph unicode="&#xab;" horiz-adv-x="1170" d="M202 550q16 4 24 -10q4 -6 1 -13t-9 -9q-14 -10 -24 6q-8 14 8 26zM256 574q6 4 13 3t9 -9q10 -16 -6 -26q-18 -4 -26 10q-4 20 10 22zM310 604q18 10 24 -6q8 -18 -8 -24q-20 -8 -22 6q-4 6 -2 13t8 11zM372 638q16 6 24 -6q8 -20 -8 -26q-16 -12 -24 8q-6 14 8 24z M438 672q16 6 24 -8q8 -18 -8 -24q-18 -8 -24 8t8 24zM498 706q18 8 26 -8q8 -18 -8 -24q-6 -4 -13 -1t-11 7q-6 14 6 26zM144 524q16 6 24 -12q8 -14 -12 -22q-14 -8 -22 12q-6 14 10 22zM556 734q6 4 13 1t11 -7q6 -18 -8 -26q-4 -4 -11 -1t-11 9q-14 16 6 24zM198 456 q-16 12 -10 28q12 12 28 4q6 -2 7 -9t-3 -13q-4 -8 -11 -10t-11 0zM248 430q-8 2 -9 9t3 13q6 16 24 8q16 -10 4 -26q-4 -18 -22 -4zM300 396q-14 10 -4 26q2 6 9 8t13 -4q14 -6 10 -24q-14 -14 -28 -6zM360 362q-4 4 -6 11t2 11q2 8 10 10t12 -2q14 -8 8 -26q-4 -4 -11 -7 t-15 3zM426 324q-14 8 -8 24q8 14 26 6q12 -6 6 -24q-4 -6 -12 -8t-12 2zM486 286q-14 14 -8 28q4 4 12 6t14 -2q8 -2 9 -9t-3 -15q-4 -6 -11 -8t-13 0zM144 480q-16 8 -10 22q8 20 22 12q20 -8 12 -22q-8 -18 -24 -12zM542 256q-20 8 -8 24q8 12 24 8q8 -4 10 -12t-4 -14 q-4 -6 -11 -8t-11 2zM630 550q16 4 24 -10q4 -6 1 -13t-9 -9q-14 -10 -24 6q-8 14 8 26zM684 574q6 4 13 3t9 -9q10 -16 -6 -26q-18 -4 -26 10q-4 20 10 22zM738 604q18 10 24 -6q8 -18 -8 -24q-20 -8 -22 6q-4 6 -2 13t8 11zM800 638q16 6 24 -6q8 -20 -8 -26 q-16 -12 -24 8q-6 14 8 24zM866 672q16 6 24 -8q8 -18 -8 -24q-18 -8 -24 8t8 24zM926 706q18 8 26 -8q8 -18 -8 -24q-6 -4 -13 -1t-11 7q-6 14 6 26zM572 524q16 6 24 -12q8 -14 -12 -22q-14 -8 -22 12q-6 14 10 22zM984 734q6 4 13 1t11 -7q6 -18 -8 -26q-4 -4 -11 -1 t-11 9q-14 16 6 24zM626 456q-16 12 -10 28q12 12 28 4q6 -2 7 -9t-3 -13q-4 -8 -11 -10t-11 0zM676 430q-8 2 -9 9t3 13q6 16 24 8q16 -10 4 -26q-4 -18 -22 -4zM728 396q-14 10 -4 26q2 6 9 8t13 -4q14 -6 10 -24q-14 -14 -28 -6zM788 362q-4 4 -6 11t2 11q2 8 10 10 t12 -2q14 -8 8 -26q-4 -4 -11 -7t-15 3zM854 324q-14 8 -8 24q8 14 26 6q12 -6 6 -24q-4 -6 -12 -8t-12 2zM914 286q-14 14 -8 28q4 4 12 6t14 -2q8 -2 9 -9t-3 -15q-4 -6 -11 -8t-13 0zM572 480q-16 8 -10 22q8 20 22 12q20 -8 12 -22q-8 -18 -24 -12zM970 256q-20 8 -8 24 q8 12 24 8q8 -4 10 -12t-4 -14q-4 -6 -11 -8t-11 2z" />
<glyph unicode="&#xad;" horiz-adv-x="806" d="M154 454q-18 0 -18 18t18 18t18 -18t-18 -18zM282 454q-18 0 -18 18t18 18t18 -18t-18 -18zM342 454q-18 0 -18 18t18 18t18 -18t-18 -18zM404 454q-18 0 -18 18t18 18t18 -18t-18 -18zM474 454q-18 0 -18 18t18 18t18 -18t-18 -18zM544 454q-18 0 -18 18t18 18t18 -18 t-18 -18zM614 454q-18 0 -18 18t18 18t18 -18t-18 -18zM218 454q-18 0 -18 18t18 18t18 -18t-18 -18z" />
<glyph unicode="&#xaf;" horiz-adv-x="732" d="M144 788q-18 0 -18 18t18 18t18 -18t-18 -18zM272 788q-18 0 -18 18t18 18t18 -18t-18 -18zM332 788q-18 0 -18 18t18 18t18 -18t-18 -18zM394 788q-18 0 -18 18t18 18t18 -18t-18 -18zM464 788q-18 0 -18 18t18 18t18 -18t-18 -18zM534 788q-18 0 -18 18t18 18t18 -18 t-18 -18zM604 788q-18 0 -18 18t18 18t18 -18t-18 -18zM208 788q-18 0 -18 18t18 18t18 -18t-18 -18z" />
<glyph unicode="&#xb0;" horiz-adv-x="410" d="M230 900q0 18 18 18t18 -18t-18 -18t-18 18zM252 848q0 18 18 18t18 -18t-18 -18t-18 18zM230 802q0 18 18 18t18 -18t-18 -18t-18 18zM106 852q0 18 18 18t18 -18t-18 -18t-18 18zM182 920q0 18 18 18t18 -18t-18 -18t-18 18zM130 904q0 18 18 18t18 -18t-18 -18t-18 18 zM132 800q0 18 18 18t18 -18t-18 -18t-18 18zM180 778q0 18 18 18t18 -18t-18 -18t-18 18z" />
<glyph unicode="&#xb1;" horiz-adv-x="806" d="M170 698q-18 0 -18 18t18 18t18 -18t-18 -18zM298 698q-18 0 -18 18t18 18t18 -18t-18 -18zM358 698q-18 0 -18 18t18 18t18 -18t-18 -18zM420 698q-18 0 -18 18t18 18t18 -18t-18 -18zM490 698q-18 0 -18 18t18 18t18 -18t-18 -18zM560 698q-18 0 -18 18t18 18t18 -18 t-18 -18zM630 698q-18 0 -18 18t18 18t18 -18t-18 -18zM234 698q-18 0 -18 18t18 18t18 -18t-18 -18zM410 492q0 -18 -18 -18t-18 18t18 18t18 -18zM410 620q0 -18 -18 -18t-18 18t18 18t18 -18zM410 680q0 -18 -18 -18t-18 18t18 18t18 -18zM410 742q0 -18 -18 -18t-18 18 t18 18t18 -18zM410 812q0 -18 -18 -18t-18 18t18 18t18 -18zM410 882q0 -18 -18 -18t-18 18t18 18t18 -18zM410 952q0 -18 -18 -18t-18 18t18 18t18 -18zM410 556q0 -18 -18 -18t-18 18t18 18t18 -18zM148 290q-18 0 -18 18t18 18t18 -18t-18 -18zM276 290q-18 0 -18 18 t18 18t18 -18t-18 -18zM336 290q-18 0 -18 18t18 18t18 -18t-18 -18zM398 290q-18 0 -18 18t18 18t18 -18t-18 -18zM468 290q-18 0 -18 18t18 18t18 -18t-18 -18zM538 290q-18 0 -18 18t18 18t18 -18t-18 -18zM608 290q-18 0 -18 18t18 18t18 -18t-18 -18zM212 290 q-18 0 -18 18t18 18t18 -18t-18 -18z" />
<glyph unicode="&#xb4;" horiz-adv-x="462" d="M140 814q12 14 26 4q12 -12 2 -26q-4 -8 -12 -7t-12 5q-6 4 -7 12t3 12zM188 870q14 16 26 4q14 -14 2 -26q-14 -14 -24 -2q-8 6 -8 13t4 11zM232 926q4 4 13 5t15 -3q12 -16 0 -24q-4 -6 -12 -7t-12 3q-12 12 -4 26zM274 974q12 14 24 2q14 -8 4 -26q-10 -10 -24 0 q-10 4 -10 12t6 12z" />
<glyph unicode="&#xb8;" horiz-adv-x="546" d="M206 -98q-14 -10 -26 2q-12 14 4 26q14 10 26 -2q12 -14 -4 -26zM276 -92q-14 -10 -26 2q-12 14 4 26q14 10 26 -2q12 -14 -4 -26zM346 -108q-14 -10 -26 2q-12 14 4 26q14 10 26 -2q12 -14 -4 -26zM394 -162q-14 -10 -26 2q-12 14 4 26q14 10 26 -2q12 -14 -4 -26z M406 -226q-14 -10 -26 2q-12 14 4 26q14 10 26 -2q12 -14 -4 -26zM386 -284q-14 -10 -26 2q-12 14 4 26q14 10 26 -2q12 -14 -4 -26zM330 -324q-14 -10 -26 2q-12 14 4 26q14 10 26 -2q12 -14 -4 -26zM260 -314q-14 -10 -26 2q-12 14 4 26q14 10 26 -2q12 -14 -4 -26z M194 -284q-14 -10 -26 2q-12 14 4 26q14 10 26 -2q12 -14 -4 -26zM200 -32q-14 -10 -26 2q-12 14 4 26q14 10 26 -2q12 -14 -4 -26z" />
<glyph unicode="&#xbb;" horiz-adv-x="1218" d="M556 550q16 -12 8 -26q-10 -16 -24 -6q-6 2 -9 9t1 13q8 14 24 10zM502 574q14 -2 10 -22q-8 -14 -26 -10q-16 10 -6 26q2 8 9 9t13 -3zM448 604q6 -4 8 -11t-2 -13q-2 -14 -22 -6q-16 6 -8 24q6 16 24 6zM386 638q14 -10 8 -24q-8 -20 -24 -8q-16 6 -8 26q8 12 24 6z M320 672q14 -8 8 -24t-24 -8q-16 6 -8 24q8 14 24 8zM260 706q12 -12 6 -26q-4 -4 -11 -7t-13 1q-16 6 -8 24q8 16 26 8zM614 524q16 -8 10 -22q-8 -20 -22 -12q-20 8 -12 22q8 18 24 12zM202 734q20 -8 6 -24q-4 -6 -11 -9t-11 1q-14 8 -8 26q4 4 11 7t13 -1zM560 456 q-4 -2 -11 0t-11 10q-4 6 -3 13t7 9q14 8 28 -4q6 -16 -10 -28zM510 430q-18 -14 -22 4q-12 16 4 26q18 8 24 -8q4 -6 3 -13t-9 -9zM458 396q-14 -8 -28 6q-4 18 10 24q6 6 13 4t9 -8q10 -16 -4 -26zM398 362q-8 -6 -15 -3t-11 7q-6 18 8 26q4 4 12 2t10 -10q4 -4 2 -11 t-6 -11zM332 324q-4 -4 -12 -2t-12 8q-8 18 6 24q18 8 26 -6q6 -16 -8 -24zM272 286q-6 -2 -13 0t-11 8q-4 8 -3 15t9 9q6 4 14 2t12 -6q6 -14 -8 -28zM614 480q-16 -6 -24 12q-8 14 12 22q14 8 22 -12q6 -14 -10 -22zM216 256q-4 -4 -11 -2t-11 8q-6 6 -4 14t10 12 q16 4 24 -8q12 -16 -8 -24zM996 550q16 -12 8 -26q-10 -16 -24 -6q-6 2 -9 9t1 13q8 14 24 10zM942 574q14 -2 10 -22q-8 -14 -26 -10q-16 10 -6 26q2 8 9 9t13 -3zM888 604q6 -4 8 -11t-2 -13q-2 -14 -22 -6q-16 6 -8 24q6 16 24 6zM826 638q14 -10 8 -24q-8 -20 -24 -8 q-16 6 -8 26q8 12 24 6zM760 672q14 -8 8 -24t-24 -8q-16 6 -8 24q8 14 24 8zM700 706q12 -12 6 -26q-4 -4 -11 -7t-13 1q-16 6 -8 24q8 16 26 8zM1054 524q16 -8 10 -22q-8 -20 -22 -12q-20 8 -12 22q8 18 24 12zM642 734q20 -8 6 -24q-4 -6 -11 -9t-11 1q-14 8 -8 26 q4 4 11 7t13 -1zM1000 456q-4 -2 -11 0t-11 10q-4 6 -3 13t7 9q14 8 28 -4q6 -16 -10 -28zM950 430q-18 -14 -22 4q-12 16 4 26q18 8 24 -8q4 -6 3 -13t-9 -9zM898 396q-14 -8 -28 6q-4 18 10 24q6 6 13 4t9 -8q10 -16 -4 -26zM838 362q-8 -6 -15 -3t-11 7q-6 18 8 26 q4 4 12 2t10 -10q4 -4 2 -11t-6 -11zM772 324q-4 -4 -12 -2t-12 8q-8 18 6 24q18 8 26 -6q6 -16 -8 -24zM712 286q-6 -2 -13 0t-11 8q-4 8 -3 15t9 9q6 4 14 2t12 -6q6 -14 -8 -28zM1054 480q-16 -6 -24 12q-8 14 12 22q14 8 22 -12q6 -14 -10 -22zM656 256q-4 -4 -11 -2 t-11 8q-6 6 -4 14t10 12q16 4 24 -8q12 -16 -8 -24z" />
<glyph unicode="&#xbf;" horiz-adv-x="920" d="M116 102q0 18 18 18t18 -18t-18 -18t-18 18zM376 -14q0 18 18 18t18 -18t-18 -18t-18 18zM438 -12q0 18 18 18t18 -18t-18 -18t-18 18zM494 6q0 18 18 18t18 -18t-18 -18t-18 18zM662 146q0 18 18 18t18 -18t-18 -18t-18 18zM690 204q0 18 18 18t18 -18t-18 -18t-18 18z M318 -12q0 18 18 18t18 -18t-18 -18t-18 18zM254 2q0 18 18 18t18 -18t-18 -18t-18 18zM200 32q0 18 18 18t18 -18t-18 -18t-18 18zM152 62q0 18 18 18t18 -18t-18 -18t-18 18zM704 256q0 18 18 18t18 -18t-18 -18t-18 18zM418 692q0 18 18 18t18 -18t-18 -18t-18 18z M52 448q0 18 18 18t18 -18t-18 -18t-18 18zM42 378q0 18 18 18t18 -18t-18 -18t-18 18zM44 268q0 18 18 18t18 -18t-18 -18t-18 18zM62 210q0 18 18 18t18 -18t-18 -18t-18 18zM82 152q0 18 18 18t18 -18t-18 -18t-18 18zM76 502q0 18 18 18t18 -18t-18 -18t-18 18zM108 558 q0 18 18 18t18 -18t-18 -18t-18 18zM154 610q0 18 18 18t18 -18t-18 -18t-18 18zM360 688q0 18 18 18t18 -18t-18 -18t-18 18zM248 656q0 -18 -18 -18t-18 18t18 18t18 -18zM578 26q0 -18 -18 -18t-18 18t18 18t18 -18zM626 56q0 -18 -18 -18t-18 18t18 18t18 -18zM418 828 q0 18 18 18t18 -18t-18 -18t-18 18zM288 680q0 18 18 18t18 -18t-18 -18t-18 18zM418 760q0 18 18 18t18 -18t-18 -18t-18 18zM632 100q0 18 18 18t18 -18t-18 -18t-18 18zM38 322q0 18 18 18t18 -18t-18 -18t-18 18zM420 892q0 18 18 18t18 -18t-18 -18t-18 18zM414 1164 q0 -12 9 -20t21 -8q28 0 28 28q0 12 -8 21t-20 9t-21 -9t-9 -21z" />
<glyph unicode="&#xc0;" horiz-adv-x="1108" d="M624 1354q4 -4 3 -12t-7 -12q-4 -4 -12 -5t-12 7q-10 14 2 26q14 10 26 -4zM576 1410q4 -4 4 -11t-8 -13q-12 -12 -24 2q-12 12 2 26q12 12 26 -4zM532 1466q8 -14 -4 -26q-4 -4 -12 -3t-12 7q-12 8 0 24q6 4 15 3t13 -5zM490 1514q6 -4 6 -12t-10 -12q-14 -10 -24 0 q-10 18 4 26q12 12 24 -2zM520 1162q8 18 24 12t10 -24q-2 -6 -8 -10t-14 0q-16 6 -12 22zM502 1106q4 16 22 12q16 -6 12 -24q-6 -16 -24 -10q-18 4 -10 22zM480 1048q8 16 24 10q18 -4 10 -22q-4 -16 -22 -12q-16 6 -12 24zM458 982q8 16 22 10q20 -4 12 -22 q-6 -16 -24 -12q-16 8 -10 24zM434 912q2 6 8 10t14 0q16 -4 12 -22q-6 -16 -24 -12q-16 8 -10 24zM410 846q8 16 24 10q6 -2 10 -9t0 -13q-4 -16 -22 -12q-16 6 -12 24zM542 1224q8 16 22 10q20 -8 12 -22q-8 -20 -22 -12q-18 8 -12 24zM368 724q6 16 24 12q16 -8 10 -24 q-2 -6 -9 -10t-13 0q-8 2 -11 9t-1 13zM348 668q6 16 24 10q18 -4 10 -22q-4 -16 -22 -12q-16 6 -12 24zM328 610q8 16 24 10q6 -2 10 -9t0 -13q-2 -8 -9 -11t-13 -1q-16 6 -12 24zM306 544q2 6 8 10t14 0q16 -6 12 -22q-8 -18 -24 -12q-16 8 -10 24zM282 474q2 6 8 10t14 0 q8 -2 11 -9t1 -13q-6 -16 -24 -12q-16 6 -10 24zM258 408q8 16 22 10q20 -8 12 -22q-8 -20 -22 -12q-18 8 -12 24zM390 784q4 20 22 12q16 -6 12 -22q-8 -18 -24 -12q-16 8 -10 22zM212 274q2 6 8 10t14 0q16 -6 12 -22q-8 -18 -24 -12q-16 8 -10 24zM192 216q2 8 9 11t13 1 q16 -6 12 -24q-8 -16 -24 -10q-6 2 -10 8t0 14zM172 158q4 18 22 10q16 -4 12 -22q-6 -16 -24 -12q-16 6 -10 24zM148 92q6 16 24 10q6 -2 10 -8t0 -14q-2 -8 -9 -11t-13 -1q-16 6 -12 24zM124 22q6 18 22 10q20 -4 12 -22q-6 -16 -22 -12q-18 8 -12 24zM232 334q8 16 24 10 q6 -2 10 -8t0 -14q-2 -8 -9 -11t-13 -1q-16 6 -12 24zM608 1162q4 -16 -12 -22q-8 -4 -14 0t-8 10q-6 18 10 24t24 -12zM626 1106q8 -18 -10 -22q-18 -6 -24 10q-4 18 12 24q18 4 22 -12zM648 1048q4 -18 -12 -24q-18 -4 -22 12q-8 18 10 22q16 6 24 -10zM670 982 q6 -16 -10 -24q-18 -4 -24 12q-8 18 12 22q14 6 22 -10zM694 912q6 -16 -10 -24q-18 -4 -24 12q-4 18 12 22q8 4 14 0t8 -10zM718 846q4 -18 -12 -24q-18 -4 -22 12q-4 6 0 13t10 9q16 6 24 -10zM586 1224q6 -16 -12 -24q-14 -8 -22 12q-8 14 12 22q14 6 22 -10zM760 724 q2 -6 -1 -13t-11 -9q-6 -4 -13 0t-9 10q-6 16 10 24q18 4 24 -12zM780 668q4 -18 -12 -24q-18 -4 -22 12q-8 18 10 22q18 6 24 -10zM800 610q4 -18 -12 -24q-6 -2 -13 1t-9 11q-4 6 0 13t10 9q16 6 24 -10zM822 544q6 -16 -10 -24q-16 -6 -24 12q-4 16 12 22q8 4 14 0t8 -10 zM846 474q6 -18 -10 -24q-18 -4 -24 12q-2 6 1 13t11 9q8 4 14 0t8 -10zM870 408q6 -16 -12 -24q-14 -8 -22 12q-8 14 12 22q14 6 22 -10zM738 784q6 -14 -10 -22q-16 -6 -24 12q-4 16 12 22q18 8 22 -12zM916 274q6 -16 -10 -24q-16 -6 -24 12q-4 16 12 22q8 4 14 0t8 -10z M936 216q4 -8 0 -14t-10 -8q-16 -6 -24 10q-4 18 12 24q6 2 13 -1t9 -11zM956 158q6 -18 -10 -24q-18 -4 -24 12q-4 18 12 22q18 8 22 -10zM980 92q4 -18 -12 -24q-6 -2 -13 1t-9 11q-4 8 0 14t10 8q18 6 24 -10zM1004 22q6 -16 -12 -24q-16 -4 -22 12q-8 18 12 22 q14 8 22 -10zM896 334q4 -18 -12 -24q-6 -2 -13 1t-9 11q-4 8 0 14t10 8q16 6 24 -10zM364 516q-18 0 -18 18t18 18t18 -18t-18 -18zM426 516q-18 0 -18 18t18 18t18 -18t-18 -18zM496 516q-18 0 -18 18t18 18t18 -18t-18 -18zM570 516q-18 0 -18 18t18 18t18 -18t-18 -18z M640 516q-18 0 -18 18t18 18t18 -18t-18 -18zM768 516q-18 0 -18 18t18 18t18 -18t-18 -18zM704 516q-18 0 -18 18t18 18t18 -18t-18 -18z" />
<glyph unicode="&#xc1;" horiz-adv-x="1108" d="M474 1348q12 14 26 4q12 -12 2 -26q-4 -8 -12 -7t-12 5q-6 4 -7 12t3 12zM522 1404q14 16 26 4q14 -14 2 -26q-14 -14 -24 -2q-8 6 -8 13t4 11zM566 1460q4 4 13 5t15 -3q12 -16 0 -24q-4 -6 -12 -7t-12 3q-12 12 -4 26zM608 1508q12 14 24 2q14 -8 4 -26q-10 -10 -24 0 q-10 4 -10 12t6 12zM520 1162q8 18 24 12t10 -24q-2 -6 -8 -10t-14 0q-16 6 -12 22zM502 1106q4 16 22 12q16 -6 12 -24q-6 -16 -24 -10q-18 4 -10 22zM480 1048q8 16 24 10q18 -4 10 -22q-4 -16 -22 -12q-16 6 -12 24zM458 982q8 16 22 10q20 -4 12 -22q-6 -16 -24 -12 q-16 8 -10 24zM434 912q2 6 8 10t14 0q16 -4 12 -22q-6 -16 -24 -12q-16 8 -10 24zM410 846q8 16 24 10q6 -2 10 -9t0 -13q-4 -16 -22 -12q-16 6 -12 24zM542 1224q8 16 22 10q20 -8 12 -22q-8 -20 -22 -12q-18 8 -12 24zM368 724q6 16 24 12q16 -8 10 -24q-2 -6 -9 -10 t-13 0q-8 2 -11 9t-1 13zM348 668q6 16 24 10q18 -4 10 -22q-4 -16 -22 -12q-16 6 -12 24zM328 610q8 16 24 10q6 -2 10 -9t0 -13q-2 -8 -9 -11t-13 -1q-16 6 -12 24zM306 544q2 6 8 10t14 0q16 -6 12 -22q-8 -18 -24 -12q-16 8 -10 24zM282 474q2 6 8 10t14 0q8 -2 11 -9 t1 -13q-6 -16 -24 -12q-16 6 -10 24zM258 408q8 16 22 10q20 -8 12 -22q-8 -20 -22 -12q-18 8 -12 24zM390 784q4 20 22 12q16 -6 12 -22q-8 -18 -24 -12q-16 8 -10 22zM212 274q2 6 8 10t14 0q16 -6 12 -22q-8 -18 -24 -12q-16 8 -10 24zM192 216q2 8 9 11t13 1 q16 -6 12 -24q-8 -16 -24 -10q-6 2 -10 8t0 14zM172 158q4 18 22 10q16 -4 12 -22q-6 -16 -24 -12q-16 6 -10 24zM148 92q6 16 24 10q6 -2 10 -8t0 -14q-2 -8 -9 -11t-13 -1q-16 6 -12 24zM124 22q6 18 22 10q20 -4 12 -22q-6 -16 -22 -12q-18 8 -12 24zM232 334q8 16 24 10 q6 -2 10 -8t0 -14q-2 -8 -9 -11t-13 -1q-16 6 -12 24zM608 1162q4 -16 -12 -22q-8 -4 -14 0t-8 10q-6 18 10 24t24 -12zM626 1106q8 -18 -10 -22q-18 -6 -24 10q-4 18 12 24q18 4 22 -12zM648 1048q4 -18 -12 -24q-18 -4 -22 12q-8 18 10 22q16 6 24 -10zM670 982 q6 -16 -10 -24q-18 -4 -24 12q-8 18 12 22q14 6 22 -10zM694 912q6 -16 -10 -24q-18 -4 -24 12q-4 18 12 22q8 4 14 0t8 -10zM718 846q4 -18 -12 -24q-18 -4 -22 12q-4 6 0 13t10 9q16 6 24 -10zM586 1224q6 -16 -12 -24q-14 -8 -22 12q-8 14 12 22q14 6 22 -10zM760 724 q2 -6 -1 -13t-11 -9q-6 -4 -13 0t-9 10q-6 16 10 24q18 4 24 -12zM780 668q4 -18 -12 -24q-18 -4 -22 12q-8 18 10 22q18 6 24 -10zM800 610q4 -18 -12 -24q-6 -2 -13 1t-9 11q-4 6 0 13t10 9q16 6 24 -10zM822 544q6 -16 -10 -24q-16 -6 -24 12q-4 16 12 22q8 4 14 0t8 -10 zM846 474q6 -18 -10 -24q-18 -4 -24 12q-2 6 1 13t11 9q8 4 14 0t8 -10zM870 408q6 -16 -12 -24q-14 -8 -22 12q-8 14 12 22q14 6 22 -10zM738 784q6 -14 -10 -22q-16 -6 -24 12q-4 16 12 22q18 8 22 -12zM916 274q6 -16 -10 -24q-16 -6 -24 12q-4 16 12 22q8 4 14 0t8 -10z M936 216q4 -8 0 -14t-10 -8q-16 -6 -24 10q-4 18 12 24q6 2 13 -1t9 -11zM956 158q6 -18 -10 -24q-18 -4 -24 12q-4 18 12 22q18 8 22 -10zM980 92q4 -18 -12 -24q-6 -2 -13 1t-9 11q-4 8 0 14t10 8q18 6 24 -10zM1004 22q6 -16 -12 -24q-16 -4 -22 12q-8 18 12 22 q14 8 22 -10zM896 334q4 -18 -12 -24q-6 -2 -13 1t-9 11q-4 8 0 14t10 8q16 6 24 -10zM364 516q-18 0 -18 18t18 18t18 -18t-18 -18zM426 516q-18 0 -18 18t18 18t18 -18t-18 -18zM496 516q-18 0 -18 18t18 18t18 -18t-18 -18zM570 516q-18 0 -18 18t18 18t18 -18t-18 -18z M640 516q-18 0 -18 18t18 18t18 -18t-18 -18zM768 516q-18 0 -18 18t18 18t18 -18t-18 -18zM704 516q-18 0 -18 18t18 18t18 -18t-18 -18z" />
<glyph unicode="&#xc2;" horiz-adv-x="1108" d="M496 1504q12 16 26 6q16 -10 6 -26q-4 -4 -11 -6t-13 2q-12 8 -8 24zM468 1452q6 16 24 8q14 -10 6 -26q-10 -16 -24 -6q-16 6 -6 24zM434 1400q4 4 12 6t14 -2q16 -6 4 -22q-4 -8 -11 -10t-13 2q-16 10 -6 26zM398 1340q12 12 24 6q6 -4 8 -11t-2 -13q-8 -14 -26 -8 q-12 12 -4 26zM524 1554q8 16 22 10q20 -8 12 -22q-8 -20 -22 -12q-18 8 -12 24zM604 1504q8 -14 -6 -24q-16 -10 -24 4q-10 14 4 26q14 10 26 -6zM634 1454q14 -14 -2 -22q-16 -12 -26 2q-10 16 6 26q16 12 22 -6zM670 1404q10 -14 -4 -28q-18 -8 -24 8q-14 16 4 24 q16 12 24 -4zM708 1346q6 -6 4 -14t-6 -12q-16 -6 -26 6q-6 6 -4 13t10 11q4 4 11 2t11 -6zM568 1554q6 -16 -12 -24q-14 -8 -22 12q-8 14 12 22q14 6 22 -10zM520 1162q8 18 24 12t10 -24q-2 -6 -8 -10t-14 0q-16 6 -12 22zM502 1106q4 16 22 12q16 -6 12 -24 q-6 -16 -24 -10q-18 4 -10 22zM480 1048q8 16 24 10q18 -4 10 -22q-4 -16 -22 -12q-16 6 -12 24zM458 982q8 16 22 10q20 -4 12 -22q-6 -16 -24 -12q-16 8 -10 24zM434 912q2 6 8 10t14 0q16 -4 12 -22q-6 -16 -24 -12q-16 8 -10 24zM410 846q8 16 24 10q6 -2 10 -9t0 -13 q-4 -16 -22 -12q-16 6 -12 24zM542 1224q8 16 22 10q20 -8 12 -22q-8 -20 -22 -12q-18 8 -12 24zM368 724q6 16 24 12q16 -8 10 -24q-2 -6 -9 -10t-13 0q-8 2 -11 9t-1 13zM348 668q6 16 24 10q18 -4 10 -22q-4 -16 -22 -12q-16 6 -12 24zM328 610q8 16 24 10q6 -2 10 -9 t0 -13q-2 -8 -9 -11t-13 -1q-16 6 -12 24zM306 544q2 6 8 10t14 0q16 -6 12 -22q-8 -18 -24 -12q-16 8 -10 24zM282 474q2 6 8 10t14 0q8 -2 11 -9t1 -13q-6 -16 -24 -12q-16 6 -10 24zM258 408q8 16 22 10q20 -8 12 -22q-8 -20 -22 -12q-18 8 -12 24zM390 784q4 20 22 12 q16 -6 12 -22q-8 -18 -24 -12q-16 8 -10 22zM212 274q2 6 8 10t14 0q16 -6 12 -22q-8 -18 -24 -12q-16 8 -10 24zM192 216q2 8 9 11t13 1q16 -6 12 -24q-8 -16 -24 -10q-6 2 -10 8t0 14zM172 158q4 18 22 10q16 -4 12 -22q-6 -16 -24 -12q-16 6 -10 24zM148 92q6 16 24 10 q6 -2 10 -8t0 -14q-2 -8 -9 -11t-13 -1q-16 6 -12 24zM124 22q6 18 22 10q20 -4 12 -22q-6 -16 -22 -12q-18 8 -12 24zM232 334q8 16 24 10q6 -2 10 -8t0 -14q-2 -8 -9 -11t-13 -1q-16 6 -12 24zM608 1162q4 -16 -12 -22q-8 -4 -14 0t-8 10q-6 18 10 24t24 -12zM626 1106 q8 -18 -10 -22q-18 -6 -24 10q-4 18 12 24q18 4 22 -12zM648 1048q4 -18 -12 -24q-18 -4 -22 12q-8 18 10 22q16 6 24 -10zM670 982q6 -16 -10 -24q-18 -4 -24 12q-8 18 12 22q14 6 22 -10zM694 912q6 -16 -10 -24q-18 -4 -24 12q-4 18 12 22q8 4 14 0t8 -10zM718 846 q4 -18 -12 -24q-18 -4 -22 12q-4 6 0 13t10 9q16 6 24 -10zM586 1224q6 -16 -12 -24q-14 -8 -22 12q-8 14 12 22q14 6 22 -10zM760 724q2 -6 -1 -13t-11 -9q-6 -4 -13 0t-9 10q-6 16 10 24q18 4 24 -12zM780 668q4 -18 -12 -24q-18 -4 -22 12q-8 18 10 22q18 6 24 -10z M800 610q4 -18 -12 -24q-6 -2 -13 1t-9 11q-4 6 0 13t10 9q16 6 24 -10zM822 544q6 -16 -10 -24q-16 -6 -24 12q-4 16 12 22q8 4 14 0t8 -10zM846 474q6 -18 -10 -24q-18 -4 -24 12q-2 6 1 13t11 9q8 4 14 0t8 -10zM870 408q6 -16 -12 -24q-14 -8 -22 12q-8 14 12 22 q14 6 22 -10zM738 784q6 -14 -10 -22q-16 -6 -24 12q-4 16 12 22q18 8 22 -12zM916 274q6 -16 -10 -24q-16 -6 -24 12q-4 16 12 22q8 4 14 0t8 -10zM936 216q4 -8 0 -14t-10 -8q-16 -6 -24 10q-4 18 12 24q6 2 13 -1t9 -11zM956 158q6 -18 -10 -24q-18 -4 -24 12 q-4 18 12 22q18 8 22 -10zM980 92q4 -18 -12 -24q-6 -2 -13 1t-9 11q-4 8 0 14t10 8q18 6 24 -10zM1004 22q6 -16 -12 -24q-16 -4 -22 12q-8 18 12 22q14 8 22 -10zM896 334q4 -18 -12 -24q-6 -2 -13 1t-9 11q-4 8 0 14t10 8q16 6 24 -10zM364 516q-18 0 -18 18t18 18 t18 -18t-18 -18zM426 516q-18 0 -18 18t18 18t18 -18t-18 -18zM496 516q-18 0 -18 18t18 18t18 -18t-18 -18zM570 516q-18 0 -18 18t18 18t18 -18t-18 -18zM640 516q-18 0 -18 18t18 18t18 -18t-18 -18zM768 516q-18 0 -18 18t18 18t18 -18t-18 -18zM704 516q-18 0 -18 18 t18 18t18 -18t-18 -18z" />
<glyph unicode="&#xc3;" horiz-adv-x="1108" d="M298 1362q-16 12 -4 26q12 12 26 2q16 -12 4 -26q-12 -12 -26 -2zM330 1422q-16 12 -4 26q12 12 26 2q16 -12 4 -26q-12 -12 -26 -2zM364 1482q-16 12 -4 26q12 12 26 2q16 -12 4 -26q-12 -12 -26 -2zM424 1504q-16 12 -4 26q12 12 26 2q16 -12 4 -26q-12 -12 -26 -2z M488 1476q-16 12 -4 26q12 12 26 2q16 -12 4 -26q-12 -12 -26 -2zM544 1426q-16 12 -4 26q12 12 26 2q16 -12 4 -26q-12 -12 -26 -2zM600 1380q-16 12 -4 26q12 12 26 2q16 -12 4 -26q-12 -12 -26 -2zM652 1348q-16 12 -4 26q12 12 26 2q16 -12 4 -26q-12 -12 -26 -2z M716 1344q-16 12 -4 26q12 12 26 2q16 -12 4 -26q-12 -12 -26 -2zM776 1384q-16 12 -4 26q12 12 26 2q16 -12 4 -26q-12 -12 -26 -2zM806 1448q-16 12 -4 26q12 12 26 2q16 -12 4 -26q-12 -12 -26 -2zM806 1518q-16 12 -4 26q12 12 26 2q16 -12 4 -26q-12 -12 -26 -2z M520 1162q8 18 24 12t10 -24q-2 -6 -8 -10t-14 0q-16 6 -12 22zM502 1106q4 16 22 12q16 -6 12 -24q-6 -16 -24 -10q-18 4 -10 22zM480 1048q8 16 24 10q18 -4 10 -22q-4 -16 -22 -12q-16 6 -12 24zM458 982q8 16 22 10q20 -4 12 -22q-6 -16 -24 -12q-16 8 -10 24zM434 912 q2 6 8 10t14 0q16 -4 12 -22q-6 -16 -24 -12q-16 8 -10 24zM410 846q8 16 24 10q6 -2 10 -9t0 -13q-4 -16 -22 -12q-16 6 -12 24zM542 1224q8 16 22 10q20 -8 12 -22q-8 -20 -22 -12q-18 8 -12 24zM368 724q6 16 24 12q16 -8 10 -24q-2 -6 -9 -10t-13 0q-8 2 -11 9t-1 13z M348 668q6 16 24 10q18 -4 10 -22q-4 -16 -22 -12q-16 6 -12 24zM328 610q8 16 24 10q6 -2 10 -9t0 -13q-2 -8 -9 -11t-13 -1q-16 6 -12 24zM306 544q2 6 8 10t14 0q16 -6 12 -22q-8 -18 -24 -12q-16 8 -10 24zM282 474q2 6 8 10t14 0q8 -2 11 -9t1 -13q-6 -16 -24 -12 q-16 6 -10 24zM258 408q8 16 22 10q20 -8 12 -22q-8 -20 -22 -12q-18 8 -12 24zM390 784q4 20 22 12q16 -6 12 -22q-8 -18 -24 -12q-16 8 -10 22zM212 274q2 6 8 10t14 0q16 -6 12 -22q-8 -18 -24 -12q-16 8 -10 24zM192 216q2 8 9 11t13 1q16 -6 12 -24q-8 -16 -24 -10 q-6 2 -10 8t0 14zM172 158q4 18 22 10q16 -4 12 -22q-6 -16 -24 -12q-16 6 -10 24zM148 92q6 16 24 10q6 -2 10 -8t0 -14q-2 -8 -9 -11t-13 -1q-16 6 -12 24zM124 22q6 18 22 10q20 -4 12 -22q-6 -16 -22 -12q-18 8 -12 24zM232 334q8 16 24 10q6 -2 10 -8t0 -14 q-2 -8 -9 -11t-13 -1q-16 6 -12 24zM608 1162q4 -16 -12 -22q-8 -4 -14 0t-8 10q-6 18 10 24t24 -12zM626 1106q8 -18 -10 -22q-18 -6 -24 10q-4 18 12 24q18 4 22 -12zM648 1048q4 -18 -12 -24q-18 -4 -22 12q-8 18 10 22q16 6 24 -10zM670 982q6 -16 -10 -24 q-18 -4 -24 12q-8 18 12 22q14 6 22 -10zM694 912q6 -16 -10 -24q-18 -4 -24 12q-4 18 12 22q8 4 14 0t8 -10zM718 846q4 -18 -12 -24q-18 -4 -22 12q-4 6 0 13t10 9q16 6 24 -10zM586 1224q6 -16 -12 -24q-14 -8 -22 12q-8 14 12 22q14 6 22 -10zM760 724q2 -6 -1 -13 t-11 -9q-6 -4 -13 0t-9 10q-6 16 10 24q18 4 24 -12zM780 668q4 -18 -12 -24q-18 -4 -22 12q-8 18 10 22q18 6 24 -10zM800 610q4 -18 -12 -24q-6 -2 -13 1t-9 11q-4 6 0 13t10 9q16 6 24 -10zM822 544q6 -16 -10 -24q-16 -6 -24 12q-4 16 12 22q8 4 14 0t8 -10zM846 474 q6 -18 -10 -24q-18 -4 -24 12q-2 6 1 13t11 9q8 4 14 0t8 -10zM870 408q6 -16 -12 -24q-14 -8 -22 12q-8 14 12 22q14 6 22 -10zM738 784q6 -14 -10 -22q-16 -6 -24 12q-4 16 12 22q18 8 22 -12zM916 274q6 -16 -10 -24q-16 -6 -24 12q-4 16 12 22q8 4 14 0t8 -10zM936 216 q4 -8 0 -14t-10 -8q-16 -6 -24 10q-4 18 12 24q6 2 13 -1t9 -11zM956 158q6 -18 -10 -24q-18 -4 -24 12q-4 18 12 22q18 8 22 -10zM980 92q4 -18 -12 -24q-6 -2 -13 1t-9 11q-4 8 0 14t10 8q18 6 24 -10zM1004 22q6 -16 -12 -24q-16 -4 -22 12q-8 18 12 22q14 8 22 -10z M896 334q4 -18 -12 -24q-6 -2 -13 1t-9 11q-4 8 0 14t10 8q16 6 24 -10zM364 516q-18 0 -18 18t18 18t18 -18t-18 -18zM426 516q-18 0 -18 18t18 18t18 -18t-18 -18zM496 516q-18 0 -18 18t18 18t18 -18t-18 -18zM570 516q-18 0 -18 18t18 18t18 -18t-18 -18zM640 516 q-18 0 -18 18t18 18t18 -18t-18 -18zM768 516q-18 0 -18 18t18 18t18 -18t-18 -18zM704 516q-18 0 -18 18t18 18t18 -18t-18 -18z" />
</font>
</defs>
</svg>
